<?xml version="1.0" standalone="no"?>
<!DOCTYPE svg PUBLIC "-//W3C//DTD SVG 1.1//EN" "http://www.w3.org/Graphics/SVG/1.1/DTD/svg11.dtd" >
<svg xmlns="http://www.w3.org/2000/svg" xmlns:xlink="http://www.w3.org/1999/xlink" version="1.1">
<metadata>
Created by FontForge 20170924 at Wed Jul  8 09:59:27 2020
 By www-data
fagostudio (c) 2020
</metadata>
<defs>
<font id="AbyssRegular" horiz-adv-x="617" >
  <font-face 
    font-family="Abyss"
    font-weight="400"
    font-stretch="normal"
    units-per-em="1000"
    panose-1="0 0 0 0 0 0 0 0 0 0"
    ascent="800"
    descent="-200"
    x-height="670.049"
    cap-height="825.014"
    bbox="18 -192.343 999.783 832.295"
    underline-thickness="50"
    underline-position="-100"
    unicode-range="U+000A-2014"
  />
<missing-glyph horiz-adv-x="527" 
d="M50 700h427v-700h-427v700zM78 680l185 -309l186 309h-371zM251 350l-180 300v-601zM264 329l-185 -308h370zM276 350l181 -303v605z" />
    <glyph glyph-name=".notdef" horiz-adv-x="527" 
d="M50 700h427v-700h-427v700zM78 680l185 -309l186 309h-371zM251 350l-180 300v-601zM264 329l-185 -308h370zM276 350l181 -303v605z" />
    <glyph glyph-name=".null" horiz-adv-x="0" 
 />
    <glyph glyph-name=".null" horiz-adv-x="0" 
 />
    <glyph glyph-name="controlLF" unicode="&#xa;" horiz-adv-x="0" 
 />
    <glyph glyph-name="controlCR" unicode="&#xd;" horiz-adv-x="0" 
 />
    <glyph glyph-name="space" unicode=" " horiz-adv-x="313" 
 />
    <glyph glyph-name="exclam" unicode="!" horiz-adv-x="252" 
d="M202.772 750.02c0.179688 -18.9678 0.65918 -37.9688 -0.115234 -56.9033c-5.75488 -141.388 -11.7373 -282.76 -17.8018 -424.132c-1.19824 -27.9258 -9.14551 -36.6641 -33.2891 -34.708c-29.1074 2.36426 -58.0928 6.31738 -93.4688 10.2871
c1.91504 36.9238 5.7627 73.2207 5.25781 109.452c-1.0918 78.1035 -5.15918 156.158 -6.61035 234.262c-1.14941 61.8828 -0.228516 123.807 -0.228516 184.932c41.8965 29.0342 81.0137 10.6377 118.272 11.958c14.4521 0.513672 27.8037 -16.0654 27.9834 -35.1475z
M126.233 126.732c41.1221 -0.643555 56.0225 -17.0107 56.4053 -61.9561c0.350586 -40.5273 -25.3174 -65.3477 -66.9609 -64.7686c-35.832 0.49707 -67.54 27.4688 -67.6787 57.5459c-0.163086 36.0117 38.0576 69.7979 78.2344 69.1787z" />
    <glyph glyph-name="quotedbl" unicode="&#x22;" horiz-adv-x="385" 
d="M302.704 609.455c10.792 -2.11133 20.9004 -7.74414 33.5098 -12.6104c-28.7324 -75.1768 -55.9404 -146.344 -86.0752 -225.173c-25.2686 12.667 -41.8809 20.9893 -63.1631 31.6592c5.02148 18.9834 9.02344 37.1768 14.6641 54.8486
c12.0957 37.9268 25.4307 75.4541 37.5107 113.381c13.5225 42.459 19.2197 46.5674 63.5537 37.8945zM132.821 631.772c24.0781 -9.80566 45.6855 -18.6182 71.3447 -29.0674c-9.67578 -20.7119 -18.4219 -40.3311 -27.9346 -59.5752
c-20.875 -42.2471 -42.915 -83.9482 -62.877 -126.619c-7.80078 -16.6768 -16.9541 -22.415 -34.3643 -15.8857c-17.1172 6.41504 -37.2744 12.7891 -29.123 35.7754c22.0732 62.2578 46.6406 123.635 70.6377 185.199c1.36914 3.49707 6.5127 5.51855 12.3164 10.1729z" />
    <glyph glyph-name="quotedbl" unicode="&#x201d;" horiz-adv-x="385" 
d="M302.704 609.455c10.792 -2.11133 20.9004 -7.74414 33.5098 -12.6104c-28.7324 -75.1768 -55.9404 -146.344 -86.0752 -225.173c-25.2686 12.667 -41.8809 20.9893 -63.1631 31.6592c5.02148 18.9834 9.02344 37.1768 14.6641 54.8486
c12.0957 37.9268 25.4307 75.4541 37.5107 113.381c13.5225 42.459 19.2197 46.5674 63.5537 37.8945zM132.821 631.772c24.0781 -9.80566 45.6855 -18.6182 71.3447 -29.0674c-9.67578 -20.7119 -18.4219 -40.3311 -27.9346 -59.5752
c-20.875 -42.2471 -42.915 -83.9482 -62.877 -126.619c-7.80078 -16.6768 -16.9541 -22.415 -34.3643 -15.8857c-17.1172 6.41504 -37.2744 12.7891 -29.123 35.7754c22.0732 62.2578 46.6406 123.635 70.6377 185.199c1.36914 3.49707 6.5127 5.51855 12.3164 10.1729z" />
    <glyph glyph-name="quotedbl" unicode="&#x201c;" horiz-adv-x="385" 
d="M302.704 609.455c10.792 -2.11133 20.9004 -7.74414 33.5098 -12.6104c-28.7324 -75.1768 -55.9404 -146.344 -86.0752 -225.173c-25.2686 12.667 -41.8809 20.9893 -63.1631 31.6592c5.02148 18.9834 9.02344 37.1768 14.6641 54.8486
c12.0957 37.9268 25.4307 75.4541 37.5107 113.381c13.5225 42.459 19.2197 46.5674 63.5537 37.8945zM132.821 631.772c24.0781 -9.80566 45.6855 -18.6182 71.3447 -29.0674c-9.67578 -20.7119 -18.4219 -40.3311 -27.9346 -59.5752
c-20.875 -42.2471 -42.915 -83.9482 -62.877 -126.619c-7.80078 -16.6768 -16.9541 -22.415 -34.3643 -15.8857c-17.1172 6.41504 -37.2744 12.7891 -29.123 35.7754c22.0732 62.2578 46.6406 123.635 70.6377 185.199c1.36914 3.49707 6.5127 5.51855 12.3164 10.1729z" />
    <glyph glyph-name="ampersand" unicode="&#x26;" horiz-adv-x="653" 
d="M568.858 83.7051c11.6719 -16.6445 25.2754 -31.9336 35.5947 -44.7959c-20.2148 -26.3115 -38.8887 -50.6182 -60.5381 -78.7959c-33.9658 39.4922 -60.4727 70.2949 -89.2783 103.787c-27.8682 -21.2334 -53.8535 -42.1162 -80.9473 -61.459
c-74.2637 -53.0225 -174.636 -45.3604 -243.602 16.0986c-29.3604 26.165 -51.1562 56.8867 -67.3193 92.1641c-23.6787 51.6855 -19.3428 101.008 16.334 145.316c19.3018 23.9805 41.6602 45.6865 63.9775 67.0264c21.2412 20.3125 44.2109 38.8154 65.7295 57.5059
c-11.6807 30.0361 -22.6602 57.1143 -32.7754 84.5098c-32.5635 88.1865 30.8105 168.278 103.982 182.013c31.708 5.9502 61.7939 21.9102 94.4229 6.48828c65.3799 -30.917 96.4434 -72.4385 78.2588 -148.594c-10.1484 -42.5 -31.6758 -79.416 -67.2471 -106.755
c-11.6396 -8.94141 -22.9365 -18.3154 -37.4287 -29.9307c40.9268 -51.8652 79.0332 -100.16 117.579 -149.01c18.6084 16.4326 33.9404 29.9629 48.3105 42.6455c4.90723 -0.782227 8.3877 -0.326172 10.5068 -1.80957c71.0449 -49.8438 71.2812 -52.2158 10.6211 -122.209
c10.7998 -17.4678 21.3965 -36.4756 33.8184 -54.1963zM323.576 565.287c-46.8438 -1.62988 -73.4658 -45.2217 -53.292 -88.2188c5.56738 -11.8516 13.5225 -22.5781 23.2871 -38.5947c30.917 22.3828 61.3037 37.8701 71.0527 74.3701
c7.67871 28.7402 -11.1582 53.4785 -41.0479 52.4434zM289.251 62.7266c41.2275 13.9629 72.6406 42.0684 100.501 77.9902c-22.4883 26.1973 -44.5039 49.8682 -64.2129 75.332c-20.6465 26.6699 -39.084 55.0518 -61.2383 86.6045
c-11.8438 -6.79004 -21.8535 -10.4414 -29.0996 -17.0928c-19.4561 -17.8594 -38.375 -36.4111 -56.3477 -55.7539c-43.7227 -47.0557 -37.3652 -77.4102 -8.37988 -123.513c25.3418 -40.3154 66.6104 -61.2393 118.777 -43.5674z" />
    <glyph glyph-name="quotesingle" unicode="'" horiz-adv-x="246" 
d="M163.729 609.455c10.792 -2.11133 20.8994 -7.74414 33.5088 -12.6104c-28.7324 -75.1768 -55.9404 -146.344 -86.0752 -225.173c-25.2686 12.667 -41.8809 20.9893 -63.1631 31.6592c5.02148 18.9834 9.03223 37.1768 14.665 54.8486
c12.0957 37.9268 25.4307 75.4541 37.5107 113.381c13.5225 42.459 19.2285 46.5674 63.5537 37.8945z" />
    <glyph glyph-name="quotesingle" unicode="&#x2019;" horiz-adv-x="246" 
d="M163.729 609.455c10.792 -2.11133 20.8994 -7.74414 33.5088 -12.6104c-28.7324 -75.1768 -55.9404 -146.344 -86.0752 -225.173c-25.2686 12.667 -41.8809 20.9893 -63.1631 31.6592c5.02148 18.9834 9.03223 37.1768 14.665 54.8486
c12.0957 37.9268 25.4307 75.4541 37.5107 113.381c13.5225 42.459 19.2285 46.5674 63.5537 37.8945z" />
    <glyph glyph-name="quotesingle" unicode="&#x2018;" horiz-adv-x="246" 
d="M163.729 609.455c10.792 -2.11133 20.8994 -7.74414 33.5088 -12.6104c-28.7324 -75.1768 -55.9404 -146.344 -86.0752 -225.173c-25.2686 12.667 -41.8809 20.9893 -63.1631 31.6592c5.02148 18.9834 9.03223 37.1768 14.665 54.8486
c12.0957 37.9268 25.4307 75.4541 37.5107 113.381c13.5225 42.459 19.2285 46.5674 63.5537 37.8945z" />
    <glyph glyph-name="parenleft" unicode="(" horiz-adv-x="344" 
d="M183.107 182.658c19.8154 -63.4883 41.5781 -127.047 112.436 -155.453c-13.4902 -24.7871 -25.0977 -46.6641 -37.2178 -68.2559c-13.7754 -24.5342 -21.9102 -28.7969 -44.8633 -11.9727c-25.8066 18.9189 -52.3623 40.0713 -70.2295 66.0078
c-82.5293 119.804 -111.123 253.807 -86.9307 396.499c14.2559 84.0537 51.7832 160.209 108.865 224.61c17.207 19.416 40.4697 33.4688 65.6074 53.7324c21.0137 -36.4922 38.4326 -66.749 55.4688 -96.3291c-113.609 -84.6562 -125.322 -201.778 -115.402 -326.065
c2.2168 -27.7949 4.05078 -56.4541 12.2666 -82.7734z" />
    <glyph glyph-name="parenright" unicode=")" horiz-adv-x="344" 
d="M228.358 568.635c81.5352 -144.502 86.9375 -294.67 26.9541 -447.103c-20.3535 -51.7344 -44.3418 -103.566 -87.4287 -141.876c-18.209 -16.1875 -39.5811 -28.8213 -63.9365 -46.2314c-20.5898 35.2695 -38.0088 65.127 -55.9492 95.8564
c94.3564 52.9902 114.498 142.293 125.633 236.454c6.30078 53.2344 3.5625 105.482 -8.81055 157.983c-20.1816 85.6592 -37.0137 114.922 -109.265 170.536c18.707 31.6338 36.4355 61.6211 54.5957 92.334c57.8564 -24.1602 90.5342 -68.9092 118.207 -117.954z" />
    <glyph glyph-name="plus" unicode="+" horiz-adv-x="586" 
d="M531.704 304.508c1.21484 -19.0732 5.2793 -38.0254 5.41797 -57.0576c0.228516 -27.999 -8.16699 -36.3135 -33.6875 -36.1914c-1.11621 0 -2.23242 0.0078125 -3.34863 0.015625c-0.0166016 -0.146484 -0.0244141 -0.285156 -0.0322266 -0.431641
c-3.21191 0.155273 -6.28516 0.326172 -9.43164 0.489258c-58.1904 0.292969 -75.626 0.708984 -133.816 1.24707c-0.130859 -7.83301 -0.220703 -15.666 -0.351562 -23.499c0.375 -22.7168 0.717773 -45.4424 0.978516 -68.1592
c0.913086 -80.0352 1.41797 10.2861 1.80957 -69.7568c0.130859 -25.5127 -8.19141 -33.916 -36.1904 -33.6875c-19.0322 0.155273 -37.9834 4.22266 -57.0566 5.4375c-21.7305 1.38574 -31.7236 10.2051 -30.8682 30.1914
c0.725586 17.0107 -1.90723 34.1113 -1.90723 51.1719c0.0166016 70.8242 0.0654297 77.1572 0.146484 109.851c-7.30371 0.114258 -14.6074 0.204102 -21.9111 0.326172c-22.7168 -0.375 -29.1396 -0.717773 -51.8564 -0.978516
c-80.0352 -0.913086 2.13574 -1.41797 -77.9072 -1.80957c-25.5127 -0.130859 -33.916 8.19141 -33.6875 36.1904c0.155273 19.0322 4.22266 37.9834 5.4375 57.0566c1.38574 21.7305 10.2051 31.7236 30.1914 30.8682c17.0107 -0.725586 34.1113 1.90723 51.1719 1.90723
c68.8027 -0.0166016 67.2129 -0.0576172 98.9043 -0.138672c0.0078125 0.660156 0.0078125 1.27148 0.0078125 1.93945c-0.0244141 43.0703 -0.0732422 61.6953 -0.0810547 104.766c-0.0078125 17.0605 2.63281 34.1611 1.90723 51.1719
c-0.855469 19.9863 9.1377 28.8057 30.8682 30.1914c19.0732 1.21484 38.0244 5.28223 57.0566 5.4375c27.999 0.228516 36.3135 -8.16699 36.1914 -33.6875c0 -1.11621 -0.0078125 -2.23242 -0.015625 -3.34863
c0.146484 -0.0166016 0.285156 -0.0244141 0.431641 -0.0322266c-0.155273 -3.21191 -0.326172 -6.29297 -0.489258 -9.43945c-0.285156 -57.2607 -0.692383 -90.0771 -1.22266 -147.338c1.19043 0 2.29883 -0.0078125 3.51367 -0.0078125
c43.0703 0.0244141 45.3936 0.0732422 88.4639 0.0810547c17.0605 0.0078125 34.1611 -2.63281 51.1719 -1.90723c19.9863 0.855469 28.8057 -9.1377 30.1914 -30.8682z" />
    <glyph glyph-name="comma" unicode="," horiz-adv-x="220" 
d="M123.556 60.2334c25.7412 -15.0059 42.6709 -24.8691 64.3525 -37.5117c-6.54492 -19.6357 -11.9736 -38.5137 -19.0811 -56.7314c-15.251 -39.1006 -31.7812 -77.6953 -47.0156 -116.796c-17.0518 -43.7627 -23.3281 -47.708 -69.3896 -35.6367
c-11.2158 2.94238 -21.4697 9.54492 -34.4219 15.4951c35.2451 77.1826 68.6074 150.249 105.556 231.181z" />
    <glyph glyph-name="hyphen" unicode="-" horiz-adv-x="462" 
d="M375.367 336.876c28.7246 0.12207 38.1777 -8.20117 37.9336 -36.1914c-0.179688 -19.0322 -4.75195 -37.9834 -6.12109 -57.0566c-1.55664 -21.7305 -11.4844 -31.7236 -33.9893 -30.8682c-19.1465 0.725586 -38.3994 -1.90723 -57.6035 -1.90723
c-152.188 0.0322266 -208.325 3.04785 -227.472 2.32227c-22.5049 -0.855469 -32.4326 9.1377 -33.9893 30.8682c-1.36914 19.0732 -5.9502 38.0244 -6.12109 57.0566c-0.25293 27.999 9.20215 36.3135 37.9268 36.1914
c1.26367 -0.0078125 157.805 -2.48535 183.383 -2.22461c90.1016 0.913086 15.9512 1.41797 106.053 1.80957z" />
    <glyph glyph-name="period" unicode="." horiz-adv-x="231" 
d="M126.234 105.921c41.1221 -0.643555 56.0225 -17.0098 56.4053 -61.9551c0.350586 -40.5273 -25.3174 -65.3477 -66.9609 -64.7686c-35.832 0.49707 -67.54 27.4688 -67.6787 57.5459c-0.163086 36.0117 38.0576 69.8057 78.2344 69.1777z" />
    <glyph glyph-name="slash" unicode="/" horiz-adv-x="549" 
d="M478.163 648.699c24.9258 -12.7568 27.915 -24.9912 14.4824 -50.3818c-42.125 -79.6523 -84.3477 -159.247 -126.929 -238.654c-46.7295 -87.1514 -94.625 -173.683 -140.572 -261.233c-21.8525 -41.627 -40.3633 -84.999 -64.5723 -136.481
c-38.6357 16.6035 -74.3535 31.96 -112.574 48.3848c15.6416 33.126 28.3984 62.6162 43.1768 91.0635c87.0693 167.61 174.555 335.009 262.089 502.374c8.90137 17.0195 20.166 32.8486 28.3984 50.1533c9.68359 20.3369 23.1328 24.502 43.1113 15.8047
c17.5332 -7.62891 36.4434 -12.3564 53.3896 -21.0293z" />
    <glyph glyph-name="zero" unicode="0" horiz-adv-x="584" 
d="M488.948 564.87c3.04004 -8.93359 5.9082 -17.3789 10.1553 -24.9102c26.7031 -47.415 40.0957 -101.302 34.9854 -140.777l-0.1875 -5.47754c-3.3418 -97.6572 -5.98242 -174.799 -38.9941 -248.55c-29.7754 -66.5205 -81.168 -112.631 -148.634 -133.359
c-15.0391 -4.61328 -31.9199 -7.03418 -49.6162 -7.03418c-56.2666 0 -120.741 24.4531 -160.461 80.3779c-82.5703 116.283 -107.325 245.844 -73.5801 385.071c12.3818 51.0908 37.2754 101.139 74.0039 148.773c29.2783 37.9756 67.7754 64.9229 111.326 77.9482
c96.7041 28.9121 183.301 -11.5088 231.628 -108.147c3.89648 -7.78418 6.67578 -15.9844 9.37402 -23.915zM417.251 385.726c5.68164 75.7559 -36.1914 131.812 -73.3027 172.184c-14.7861 16.0742 -31.251 24.0459 -50.3486 24.0459
c-12.4062 0 -25.9209 -3.36621 -40.8047 -10.042c-34.8291 -15.626 -50.5684 -46.7549 -61.377 -75.1367c-28.5771 -75.0713 -34.8369 -148.121 -18.5996 -217.128c10.1729 -43.2334 25.6924 -83.2881 44.8877 -115.819c16.7178 -28.3408 41.8633 -44.6514 68.9814 -44.7568
h0.260742c27.9014 0 53.9688 16.791 71.5664 46.1104c35.0332 58.3857 53.6992 128.42 58.7285 220.372z" />
    <glyph glyph-name="one" unicode="1" horiz-adv-x="360" 
d="M308.947 633.369l0.138672 -6.27637c3.39941 -144.478 2.95117 -291.677 2.51074 -434.035c-0.204102 -65.4287 -0.408203 -130.857 -0.25293 -196.237l0.0078125 -5.77051l-5.43652 -1.92383c-18.2666 -6.47168 -38.2939 -12.1367 -58.6475 -12.1367
c-15.7148 0 -31.6338 3.39062 -47.0879 12.3896l-3.96973 2.31445l-7.31152 456.345l-62.4619 -59.5518l-78.4375 74.0439l5.91797 5.93359c8.41211 8.43652 16.6367 16.7344 24.7471 24.9102c18.7471 18.8945 36.4512 36.7451 54.6523 54.5801
c7.13184 6.99316 14.6719 13.7178 21.959 20.2227c12.1533 10.8408 24.7227 22.0566 35.1641 34.3486c28.5205 33.5742 64.2627 43.8447 112.402 32.3105z" />
    <glyph glyph-name="two" unicode="2" horiz-adv-x="524" 
d="M242.457 662.399c94.4219 7.6543 203.526 -41.7402 229.292 -151.168c9.03125 -38.3994 -0.260742 -74.2148 -10.5479 -104.187c-30.6885 -89.4336 -74.9404 -161.407 -135.291 -220.054c-22.1055 -21.4941 -42.7852 -43.6162 -64.6865 -67.042
c-5.55859 -5.94238 -11.1416 -11.917 -16.7578 -17.8838l36.9238 0.0244141c41.3506 0.0410156 81.0703 0.0820312 120.79 -0.105469c24.0215 -0.114258 39.8018 -2.17676 49.3877 -12.3408c9.29199 -9.87109 10.417 -25.3662 9.22656 -47.1865
c-1.97266 -36.125 -10.5801 -44.2188 -48.4824 -45.6123c-19.082 -0.708984 -38.1641 -1.50781 -57.2461 -2.31445c-36.0117 -1.50781 -73.2373 -3.07324 -109.917 -3.9209c-21.2822 -0.480469 -42.7598 -0.635742 -64.0996 -0.635742
c-17.9727 0 -35.8564 0.0976562 -53.4629 0.211914l-22.9941 0.130859c-1.98926 -0.0166016 -4.01074 -0.0332031 -6.06445 -0.0654297c-16.5303 -0.204102 -39.1982 -0.660156 -46.6484 24.1191c-8.27344 27.5176 -3.33398 50.1289 15.0791 69.1211
c40.8447 42.1084 88.7646 92.4004 134.443 146.222c45.8662 54.0166 89.0176 108.856 128.273 163.012c28.5938 39.459 28.5127 77.3779 -0.244141 112.713c-22.8389 28.0557 -51.9141 43.4775 -79.9375 41.9697c-23.2139 -1.1416 -43.4531 -13.8086 -58.5166 -36.6074
c-12.0557 -18.2422 -24.2412 -36.4023 -36.8594 -55.207l-22.0322 -32.8809l-6.39062 3.10547c-4.98047 2.4209 -9.96094 4.76855 -14.917 7.10742c-10.8408 5.12695 -22.0488 10.417 -32.7998 16.2285c-31.0879 16.7988 -33.623 23.3848 -22.5703 58.6865
c28.8301 92.1641 95.2607 147.053 187.05 154.56z" />
    <glyph glyph-name="three" unicode="3" horiz-adv-x="491" 
d="M383.799 357.332c-3.69238 -5.41211 -7.45703 -10.9316 -11.2471 -16.6699c73.9141 -79.7168 88.5205 -154.479 47.4805 -241.638c-33.1582 -70.4492 -94.2178 -104.765 -186.504 -104.765c-2.51074 0 -5.03711 0.0244141 -7.59668 0.0732422
c-81.168 1.60547 -138.307 35.6602 -174.668 104.104l-3.26074 6.1377l68.2402 51.5557l4.95605 -4.01074c5.68164 -4.58887 11.1182 -9.12891 16.4326 -13.5713c11.0283 -9.21094 21.4531 -17.9248 32.4082 -25.668c25.668 -18.1445 54.1641 -24.625 82.3418 -18.7646
c30.998 6.45605 59.1113 27.209 77.1328 56.9443c23.9229 39.4834 5.96582 98.293 -39.2158 128.419c-16.0166 10.6855 -34.1768 18.7549 -49.8184 25.2354c-2.58398 1.06738 -5.32227 1.94727 -8.05273 2.81934c-11.6807 3.75781 -27.6729 8.90137 -29.1074 29.2705
c-2.0293 28.749 23.7607 36.7451 36.1582 40.584c32.8486 10.1807 56.7637 31.6582 75.2588 67.6045c14.5576 28.2842 25.9531 68.1104 -2.39648 97.2012c-24.5596 25.2197 -73.7266 31.4551 -105.223 13.3271c-17.6553 -10.1562 -33.0771 -27.0293 -46.6816 -41.9131
c-20.2471 -22.1299 -34.8213 -30.5088 -58.2637 -14.9971c-37.4863 24.8447 -46.8848 38.1064 -32.6533 72.6592c25.8223 62.6895 101.717 121.532 207.379 102.598c51.417 -9.21875 91.8057 -33.3457 120.008 -71.7041c45.2793 -61.5811 50.2598 -128.803 14.7861 -199.798
c-7.77637 -15.5684 -17.5498 -29.8896 -27.8936 -45.0342z" />
    <glyph glyph-name="four" unicode="4" horiz-adv-x="505" 
d="M445.161 284.715c8.10254 -7.40137 9.99316 -19.2773 10.6289 -38.6445c0.292969 -8.94141 0.227539 -17.6465 0.146484 -27.7207c-0.0322266 -4.80078 -0.0732422 -9.84668 -0.0732422 -15.2676v-6.44727l-69.8545 -16.5303v-9.49609
c0 -28.6104 0 -57.8809 0.0410156 -87.1514c0.423828 -1.38574 0.643555 -2.33105 0.774414 -3.28516c5.26562 -39.7041 8.16699 -61.5811 -3.61914 -74.2559c-7.81641 -8.3877 -20.4014 -10.9307 -40.7871 -10.9307c-12.0312 0 -26.7764 0.879883 -44.8721 1.96387
l-7.47461 0.448242l-4.6377 183.472h-220.551l-2.20898 4.64648c-12.9932 27.2979 -23.9072 56.7637 -2.7793 90.5088c18.9512 30.2568 36.998 61.8828 54.4414 92.4736c12.585 22.0566 25.5938 44.8633 38.8799 67.0508c28.5283 47.6514 58.2715 95.6279 87.0283 142.016
l21.6572 34.96c10.417 16.832 22.8721 36.6553 36.2891 56.0713c22.8633 33.0928 34.3887 36.6875 82.1787 25.708l6.3252 -1.45898v-400.347c0.733398 -0.0566406 1.45898 -0.105469 2.16797 -0.162109c5.99902 -0.44043 11.1748 -0.81543 16.1553 -0.546875
c20.2227 1.16602 31.9766 0.383789 40.1436 -7.07422zM280.119 436.667l-91.5039 -149.311h91.5039v149.311z" />
    <glyph glyph-name="five" unicode="5" horiz-adv-x="529" 
d="M236.966 473.84c72.3164 3.77441 132.619 -19.7393 184.15 -71.4248c41.1631 -41.2773 63.6113 -108.955 58.5654 -176.617c-4.96387 -66.5205 -35.7666 -123.978 -86.7432 -161.773c-43.9834 -32.6123 -97.4541 -64.9395 -165.214 -64.9395
c-7.71875 0 -15.6172 0.423828 -23.7109 1.30371c-58.7529 6.43945 -108.254 32.458 -151.341 79.5469l-4.6709 5.09473l59.584 75.8779l5.83594 -2.67383c8.50977 -3.8877 16.8242 -7.77539 25.0244 -11.6143c17.8994 -8.37891 34.8125 -16.2773 52.1904 -23.5234
c61.8008 -25.7246 105.262 -11.583 140.906 45.8818c1.21484 1.96484 2.46973 3.9209 3.72461 5.86914c2.75488 4.28711 5.35547 8.33789 7.61328 12.5518c25.9854 48.4746 21.2168 89.7764 -15.4463 133.931c-27.208 32.7676 -64.5312 42.8828 -117.407 31.8711
c-8.98242 -1.86621 -17.7939 -8.35449 -27.999 -15.8613c-5.4043 -3.97754 -10.9873 -8.09375 -17.2314 -11.998l-4.19824 -2.625l-11.9824 7.03418c-6.89551 4.04297 -14.8594 8.69727 -22.7656 13.4658c-24.1602 14.582 -31.3252 34.1035 -22.5625 61.4424
c23.5156 73.376 45.5479 148.635 66.8545 221.424l4.58105 15.626c6.5127 22.2441 20.2637 32.3594 43.0381 31.8789c32.0332 -0.692383 64.083 -1.01855 96.125 -1.35254c37.8213 -0.391602 76.9297 -0.791016 115.411 -1.80176
c19.5625 -0.513672 34.291 -2.95898 42.5967 -13.1963c8.39551 -10.3516 7.6377 -25.9775 3.91309 -46.249c-1.43457 -7.81641 -3.45605 -15.3887 -6.00781 -24.9658c-1.32031 -4.96387 -2.7959 -10.5068 -4.41797 -16.9297l-1.55664 -6.1543h-200.002z" />
    <glyph glyph-name="six" unicode="6" horiz-adv-x="553" 
d="M262.64 442.441c79.3018 22.2607 135.888 -21.0986 171.589 -55.6592c52.126 -50.4473 76.6113 -116.186 68.9658 -185.086c-8.09375 -73.001 -52.4111 -142.342 -115.663 -180.953c-25.7979 -15.7393 -55.8184 -23.6377 -89.6533 -23.6377
c-17.1094 0 -35.2129 2.02148 -54.2373 6.06445c-56.9102 12.1201 -106.64 40.584 -147.818 84.6318c-23.3447 24.9668 -37.0547 58.0762 -41.9375 101.22c-6.61816 58.6309 -10.7998 111.572 5.22559 165.817c26.9717 91.3242 75.3398 168.62 143.776 229.761
c60.5703 54.123 137.305 67.8574 204.461 76.4971c14.4844 1.83398 26.1562 -0.823242 34.6738 -8.02051c8.95801 -7.54785 13.8486 -19.6279 14.5254 -35.8652c0.521484 -12.5527 -1.66309 -24.9668 -3.96973 -38.0977
c-1.05957 -6.00781 -2.16016 -12.2432 -3.04883 -18.8457l-0.961914 -7.05078h-7.11621c-94.6582 -0.0166016 -160.804 -36.835 -206.882 -115.574c0.244141 0.0322266 0.49707 0.0644531 0.741211 0.0966797c10.2373 1.2793 19.0732 2.3877 27.3301 4.70215z
M405.61 218.487c0.920898 63.0156 -60.7559 128.263 -122.19 129.29c-0.375 0.0078125 -0.75 0.0078125 -1.125 0.0078125c-28.7979 0 -65.3389 -18.5195 -93.4521 -47.4639c-25.8633 -26.6377 -39.9971 -57.2363 -38.7666 -83.9551l0.0078125 -0.448242
c-0.586914 -66.5449 55.8262 -116.111 134.133 -117.855c0.472656 -0.0166016 0.945312 -0.0166016 1.42578 -0.0166016c24.4531 0 53.332 13.8164 77.5898 37.1855c26.1406 25.1953 41.9863 56.3164 42.3779 83.2559z" />
    <glyph glyph-name="seven" unicode="7" horiz-adv-x="511" 
d="M457.248 659.806l1.25293 -5.22168c7.97949 -33.2559 4.89062 -62.249 -9.72461 -91.2744c-23.0996 -45.8662 -45.2539 -92.9385 -66.6826 -138.462c-7.98828 -16.9463 -15.9277 -33.835 -23.8994 -50.6016c2.14355 -2.2334 4.39355 -4.39355 6.60254 -6.52051
c8.51758 -8.2002 16.5625 -15.9521 18.5596 -26.3447c3.41504 -17.7852 -0.464844 -37.25 -5.16797 -55.6553c-3.11328 -12.2432 -22.2354 -18.0225 -26.0342 -19.0576c-12.2998 -3.33398 -24.543 -5.47754 -37.5029 -7.74316
c-3.8877 -0.68457 -7.82422 -1.37695 -11.7852 -2.10254c-10.2461 -21.3643 -20.459 -42.7363 -30.6719 -64.0918c-25.627 -53.6094 -52.1182 -109.045 -78.5439 -163.388c-13.1807 -27.0781 -21.1602 -38.5625 -35.832 -38.5625
c-9.27539 0 -21.2246 4.59766 -38.8477 12.7324c-6.08105 2.82031 -12.0723 5.82031 -19.498 9.54492c-3.89648 1.96484 -8.2002 4.11719 -13.1318 6.55469l-7.20508 3.57031l110.316 231.213c-0.106445 0.130859 -0.196289 0.25293 -0.293945 0.375
c-0.504883 0.643555 -0.912109 1.20605 -1.31934 1.6543c-2.64062 0.570312 -6.82227 -0.448242 -10.8652 -1.42676c-8.84375 -2.16797 -25.3086 -6.14551 -32.8076 12.5859c-9.85449 24.6572 -13.9219 45.2227 -12.3975 62.8457
c1.57324 18.3721 18.0469 30.0039 45.1738 31.9033c16.0332 1.125 31.96 3.13867 48.8086 5.27441c5.9502 0.742188 11.957 1.5 18.0781 2.24219l92.6533 194.875l-283.053 -17.0107l-0.864258 7.67871c-0.62793 5.48535 -1.33691 10.5225 -1.99707 15.2422
c-1.38574 9.91992 -2.5918 18.4863 -2.56738 27.4121c0.138672 52.8027 9.67578 62.918 60.0576 63.7168c84.0205 1.32812 169.427 1.62109 252.029 1.90625l71.8105 0.277344h0.146484c4.57227 0 8.82715 -0.920898 13.3262 -1.89941
c2.05371 -0.448242 4.23047 -0.913086 6.59473 -1.3291z" />
    <glyph glyph-name="eight" unicode="8" horiz-adv-x="535" 
d="M410.387 327.512c11.1504 -8.23242 21.6826 -16.0068 31.0967 -25.5273c34.3486 -34.7969 49.7949 -82.1787 43.502 -133.416c-5.5918 -45.5234 -27.8037 -91.0146 -60.9297 -124.825c-34.8779 -35.5879 -88.3076 -55.4033 -148.283 -55.4033
c-5.06152 0 -10.1719 0.146484 -15.3232 0.431641c-71.2236 3.94531 -138.16 35.3428 -174.693 81.9502c-39.5166 50.3975 -48.3604 111.262 -24.8936 171.352c14.8916 38.1387 34.0713 75.8613 72.6016 96.0674c-3.70898 5.63281 -7.25488 11.0127 -10.6787 16.2051
c-10.3438 15.6904 -19.5625 29.6855 -28.5283 43.8359c-37.4863 59.2012 -32.1963 120.179 15.7314 181.23c21.5186 27.4365 42.2793 48.3438 63.4805 63.9199c82.709 60.8066 165.85 31.1611 229.053 -1.45898c41.0566 -21.1924 75.707 -114.669 60.7822 -163.967
c-2.625 -8.67285 -5.07812 -17.4434 -7.53125 -26.2139c-11.5176 -41.1709 -23.4102 -83.6455 -53.6836 -118.019c2.7793 -2.09473 5.55078 -4.13281 8.29785 -6.16211zM276.426 288.038c-28.5938 0 -56.8857 -11.5664 -78.0625 -32.0088
c-19.2197 -18.5439 -29.873 -41.791 -30.0195 -65.4375c-0.326172 -50.9033 46.9746 -98.2285 99.2227 -99.3047l0.521484 -0.0322266c22.6025 -1.83398 50.21 9.5127 71.6875 29.8574c19.3262 18.3076 30.5098 40.8213 29.915 60.2129
c-1.8584 61.3281 -38.9541 105.181 -90.2002 106.664c-1.01855 0.0322266 -2.0459 0.0488281 -3.06445 0.0488281zM269.53 396.993c38.0166 -0.0078125 87.1025 48.5371 89.7598 89.292c0.978516 14.957 -6.67578 32.6289 -20.9971 48.4746
c-18.7881 20.8018 -44.8955 34.2344 -68.1426 35.082c-0.920898 0.0322266 -1.85059 0.0488281 -2.76367 0.0488281c-44.4805 0 -84.9834 -38.6113 -89.1973 -85.7158c-1.44238 -16.1143 6.12988 -34.8213 20.7695 -51.335
c18.9346 -21.3721 45.4502 -35.0898 69.2021 -35.8232v-0.0078125c0.456055 -0.0078125 0.904297 -0.015625 1.36914 -0.015625z" />
    <glyph glyph-name="nine" unicode="9" horiz-adv-x="570" 
d="M520.665 497.572c11.3623 -165.36 -54.1572 -307.638 -194.746 -422.894c-28.2676 -23.165 -62.958 -44.8301 -106.036 -66.2344c-19.041 -9.45508 -39.541 -14.1904 -61.3047 -14.1904c-19.1553 0 -39.2969 3.67578 -60.3184 11.0039l-5.46973 1.90723v5.78711
c0 5.20898 -0.106445 9.96875 -0.211914 14.4189c-0.211914 9.25098 -0.399414 17.2393 0.44043 25.3984c4.21387 40.7393 8.47656 44.7656 50.7314 47.9199c67.8408 5.05371 133.962 57.2852 160.534 125.632c-3.65137 0.774414 -7.29492 1.58105 -10.9219 2.3877
c-14.3047 3.19531 -27.8105 6.20312 -41.3408 6.61035c-109.11 3.28516 -158.049 82.6924 -185.379 142.13c-32.6934 71.1094 -22.2441 143.002 30.2158 207.925c54.6279 67.6211 126.691 96.8184 214.177 86.7598c51.4824 -5.90918 96.6475 -23.0264 142.139 -53.8535
c41.1953 -27.9092 63.9043 -68.5254 67.4912 -120.708zM406.492 399.547c18.5518 36.7285 16.9766 77.6895 -4.31348 112.38c-23.4746 38.2363 -66.1289 61.1084 -114.098 61.1982h-0.227539c-36.9482 0 -71.8916 -15.6992 -95.9043 -43.0869
c-22.6602 -25.8467 -33.1016 -59.7471 -28.6514 -93.0195c6.37402 -47.5371 60.7578 -103.771 109.819 -113.521c39.4346 -7.86621 111.815 33.3779 133.375 76.0488z" />
    <glyph glyph-name="colon" unicode=":" horiz-adv-x="231" 
d="M115.679 342.973c-35.832 0.49707 -67.54 27.4697 -67.6787 57.5391c-0.163086 36.0117 38.0576 69.8057 78.2344 69.1777c41.1221 -0.635742 56.0225 -17.0029 56.4053 -61.9482c0.350586 -40.5273 -25.3174 -65.3477 -66.9609 -64.7686zM126.234 205.571
c41.1221 -0.643555 56.0225 -17.0098 56.4053 -61.9551c0.350586 -40.5273 -25.3174 -65.3477 -66.9609 -64.7686c-35.832 0.49707 -67.54 27.4688 -67.6787 57.5459c-0.163086 36.0117 38.0576 69.8057 78.2344 69.1777z" />
    <glyph glyph-name="equal" unicode="=" horiz-adv-x="462" 
d="M88.1084 315.577c-22.4971 -0.855469 -32.4258 9.13672 -33.9824 30.8672c-1.36914 19.0732 -5.9502 38.0244 -6.12109 57.0566c-0.25293 27.999 9.20215 36.3135 37.9268 36.1914c1.26367 -0.0078125 157.805 -2.48535 183.383 -2.22461
c90.1016 0.913086 15.9512 1.41797 106.053 1.80957c28.7246 0.130859 38.1797 -8.19141 37.9268 -36.1904c-0.179688 -19.0322 -4.75195 -37.9834 -6.12109 -57.0566c-1.55664 -21.7305 -11.4844 -31.7236 -33.9893 -30.8682
c-19.1465 0.725586 -38.3994 -1.90723 -57.6035 -1.90723c-152.188 0.0322266 -208.325 3.04785 -227.472 2.32227zM375.366 214.356c28.7246 0.12207 38.1777 -8.19238 37.9336 -36.1914c-0.179688 -19.0322 -4.75195 -37.9834 -6.12109 -57.0566
c-1.55664 -21.7305 -11.4844 -31.7236 -33.9893 -30.8682c-19.1465 0.725586 -38.3994 -1.90723 -57.6035 -1.90723c-152.188 0.0322266 -208.325 3.04785 -227.472 2.32227c-22.5049 -0.855469 -32.4326 9.1377 -33.9893 30.8682
c-1.36914 19.0732 -5.9502 38.0244 -6.12109 57.0566c-0.25293 27.999 9.20215 36.3135 37.9268 36.1914c1.26367 -0.0078125 157.805 -2.48535 183.383 -2.22461c90.1016 0.913086 15.9512 1.41797 106.053 1.80957z" />
    <glyph glyph-name="question" unicode="?" horiz-adv-x="469" 
d="M359.224 729.137c56.0303 -40.2988 81.1025 -132.242 44.374 -198.95c-26.2461 -47.667 -52.4023 -95.9297 -84.3789 -139.701c-23.2471 -31.8213 -36.2969 -63.0156 -32.5391 -101.929c1.41797 -14.6475 0.350586 -29.5557 0.0976562 -44.3418
c-0.0976562 -5.88477 0.766602 -12.7891 -1.90723 -17.4512c-17.2637 -30.1592 -45.3438 -10.0664 -68.3701 -13.4492c-17.0361 -2.50195 -35.1152 0.832031 -36.2236 22.4404c-3.23633 63.1221 -12.8867 128.2 26.165 184.581
c19.1553 27.665 43.3965 51.9795 66.5859 76.6279c22.7002 24.1348 40.3633 49.5742 44.0068 84.1104c2.87695 27.2979 -3.21973 50.667 -24.7793 66.333c-22.1055 16.0576 -48.9229 16.1387 -70.7432 0.251953c-37.7803 -27.502 -73.2295 -58.1992 -114.686 -91.6025
c-5.73828 4.03516 -15.6826 10.3115 -24.8525 17.5742c-42.7686 33.876 -44.3906 41.3672 -9.18652 84.8125c32.5557 40.168 68.502 75.3965 117.596 98.1465c64.7441 29.9961 117.669 9.35742 168.841 -27.4531zM233.624 126.733
c41.1221 -0.643555 56.0225 -17.0098 56.4053 -61.9551c0.350586 -40.5273 -25.3174 -65.3477 -66.9609 -64.7686c-35.832 0.49707 -67.54 27.4688 -67.6787 57.5459c-0.163086 36.0117 38.0576 69.8057 78.2344 69.1777z" />
    <glyph glyph-name="at" unicode="@" horiz-adv-x="729" 
d="M565.646 97.7979c16.3262 10.5635 28.4639 6.08789 41.1875 -9.57031c31.708 -39.0273 32.1484 -41.9131 -6.52832 -72.8135c-37.0137 -29.5723 -78.5273 -46.9502 -126.35 -44.7979c-52.9004 2.37207 -106.641 1.41016 -158.399 10.7842
c-105.499 19.0977 -183.603 77.7041 -225.67 178.565c-20.3535 48.8086 -43.2988 96.8184 -41.8154 152.327c2.20898 82.3906 24.0049 157.494 79.9453 219.189c71.0771 78.3887 158.75 117.562 266.89 115.02c129.031 -3.03223 216.386 -70.1562 266.237 -179.771
c43.4531 -95.5225 17.0762 -276.239 -115.965 -337.119c-18.3809 -8.41211 -38.8809 -14.0605 -58.9492 -16.5381c-32.5146 -4.00195 -32.71 -2.44531 -51.2539 23.0996c-34.2998 -8.71387 -63.375 -18.2832 -93.2236 -23.2393
c-65.1348 -10.8242 -134.427 47.2686 -149.547 123.334c-16.0254 80.6465 11.0771 149.147 62.665 207.428c32.1152 36.2881 79.5791 45.0176 126.732 37.5186c27.1104 -4.31152 52.9414 -16.6768 81.3555 -26.083c22.3906 20.9482 48.5713 14.1016 77.418 -0.538086
c7.6377 -85.0156 -23.2217 -165.312 -30.623 -249.153c19.1064 -7.81641 29.5479 4.07617 37.8379 15.4141c68.8115 94.1768 75.292 191.688 3.71777 285.775c-11.1914 14.7129 -28.1455 27.168 -45.0508 35.0664c-92.376 43.1758 -186.553 40.9834 -269.449 -16.2773
c-102.035 -70.4736 -145.35 -220.037 -78.8203 -342.792c48.1807 -88.8955 182.738 -151.292 287.283 -125.437c41.6602 10.3027 83.5488 16.7832 120.375 40.6084zM437.822 304.54c7.41699 33.8428 -0.202148 65.1758 -28.8613 87.0039
c-26.1729 19.9375 -58.9893 18.6904 -82.8066 2.4375c-35.9053 -24.502 -56.9189 -62.2734 -58.1904 -97.4121c-0.195312 -54.9219 27.1592 -92.457 64.5889 -99.3125c37.8857 -6.93652 65.4688 10.3027 84.8271 54c7.71094 17.4023 16.416 34.9023 20.4424 53.2832z" />
    <glyph glyph-name="A" unicode="A" horiz-adv-x="699" 
d="M635.721 67.0977c4.97168 -13.6201 9.3252 -27.46 14.4277 -42.5723c-24.8281 -10.9551 -47.0967 -22.2441 -70.4004 -30.7051c-28.0557 -10.1807 -42.8984 -4.4834 -56.5918 23.5234c-21.3555 43.6729 -40.5352 88.4062 -60.4648 132.772
c-6.57812 14.6475 -12.6016 29.5479 -20.1982 47.4229c-65.7461 -5.13477 -131.085 -10.2373 -193.285 -15.0957c-38.7256 -67.7842 -74.4434 -130.311 -110.341 -193.139c-36.8916 0.725586 -59.0215 26.9961 -83.2949 47.1621
c-7.23047 6.00684 -9.39062 25.0234 -6.00781 35.5547c8.05371 25.0967 19.832 49.1748 31.8057 72.8047c75.3887 148.781 151.234 297.342 226.966 445.951c8.02051 15.7393 17.9482 30.7373 24.0859 47.1621c9.67578 25.8711 29.2305 29.9062 53.0889 29.9473
c25.0234 0.0488281 36.4834 -13.4248 44.3242 -35.335c40.7715 -113.862 82.3252 -227.438 123.74 -341.064c27.2734 -74.835 54.8398 -149.563 82.1455 -224.39zM284.004 286.052c44.9287 0 84.0371 -0.000976562 128.338 0.00683594
c-9.62598 25.79 -18.5352 48.5234 -26.5889 71.5586c-8.41211 24.0781 -16.001 48.458 -23.9482 72.707c-2.85254 0.170898 -5.69727 0.350586 -8.5498 0.530273c-22.3584 -46.7461 -44.7168 -93.4922 -69.251 -144.803z" />
    <glyph glyph-name="A" unicode="&#xc5;" horiz-adv-x="699" 
d="M635.721 67.0977c4.97168 -13.6201 9.3252 -27.46 14.4277 -42.5723c-24.8281 -10.9551 -47.0967 -22.2441 -70.4004 -30.7051c-28.0557 -10.1807 -42.8984 -4.4834 -56.5918 23.5234c-21.3555 43.6729 -40.5352 88.4062 -60.4648 132.772
c-6.57812 14.6475 -12.6016 29.5479 -20.1982 47.4229c-65.7461 -5.13477 -131.085 -10.2373 -193.285 -15.0957c-38.7256 -67.7842 -74.4434 -130.311 -110.341 -193.139c-36.8916 0.725586 -59.0215 26.9961 -83.2949 47.1621
c-7.23047 6.00684 -9.39062 25.0234 -6.00781 35.5547c8.05371 25.0967 19.832 49.1748 31.8057 72.8047c75.3887 148.781 151.234 297.342 226.966 445.951c8.02051 15.7393 17.9482 30.7373 24.0859 47.1621c9.67578 25.8711 29.2305 29.9062 53.0889 29.9473
c25.0234 0.0488281 36.4834 -13.4248 44.3242 -35.335c40.7715 -113.862 82.3252 -227.438 123.74 -341.064c27.2734 -74.835 54.8398 -149.563 82.1455 -224.39zM284.004 286.052c44.9287 0 84.0371 -0.000976562 128.338 0.00683594
c-9.62598 25.79 -18.5352 48.5234 -26.5889 71.5586c-8.41211 24.0781 -16.001 48.458 -23.9482 72.707c-2.85254 0.170898 -5.69727 0.350586 -8.5498 0.530273c-22.3584 -46.7461 -44.7168 -93.4922 -69.251 -144.803z" />
    <glyph glyph-name="A" unicode="&#xc4;" horiz-adv-x="699" 
d="M635.721 67.0977c4.97168 -13.6201 9.3252 -27.46 14.4277 -42.5723c-24.8281 -10.9551 -47.0967 -22.2441 -70.4004 -30.7051c-28.0557 -10.1807 -42.8984 -4.4834 -56.5918 23.5234c-21.3555 43.6729 -40.5352 88.4062 -60.4648 132.772
c-6.57812 14.6475 -12.6016 29.5479 -20.1982 47.4229c-65.7461 -5.13477 -131.085 -10.2373 -193.285 -15.0957c-38.7256 -67.7842 -74.4434 -130.311 -110.341 -193.139c-36.8916 0.725586 -59.0215 26.9961 -83.2949 47.1621
c-7.23047 6.00684 -9.39062 25.0234 -6.00781 35.5547c8.05371 25.0967 19.832 49.1748 31.8057 72.8047c75.3887 148.781 151.234 297.342 226.966 445.951c8.02051 15.7393 17.9482 30.7373 24.0859 47.1621c9.67578 25.8711 29.2305 29.9062 53.0889 29.9473
c25.0234 0.0488281 36.4834 -13.4248 44.3242 -35.335c40.7715 -113.862 82.3252 -227.438 123.74 -341.064c27.2734 -74.835 54.8398 -149.563 82.1455 -224.39zM284.004 286.052c44.9287 0 84.0371 -0.000976562 128.338 0.00683594
c-9.62598 25.79 -18.5352 48.5234 -26.5889 71.5586c-8.41211 24.0781 -16.001 48.458 -23.9482 72.707c-2.85254 0.170898 -5.69727 0.350586 -8.5498 0.530273c-22.3584 -46.7461 -44.7168 -93.4922 -69.251 -144.803z" />
    <glyph glyph-name="A" unicode="&#xc3;" horiz-adv-x="699" 
d="M635.721 67.0977c4.97168 -13.6201 9.3252 -27.46 14.4277 -42.5723c-24.8281 -10.9551 -47.0967 -22.2441 -70.4004 -30.7051c-28.0557 -10.1807 -42.8984 -4.4834 -56.5918 23.5234c-21.3555 43.6729 -40.5352 88.4062 -60.4648 132.772
c-6.57812 14.6475 -12.6016 29.5479 -20.1982 47.4229c-65.7461 -5.13477 -131.085 -10.2373 -193.285 -15.0957c-38.7256 -67.7842 -74.4434 -130.311 -110.341 -193.139c-36.8916 0.725586 -59.0215 26.9961 -83.2949 47.1621
c-7.23047 6.00684 -9.39062 25.0234 -6.00781 35.5547c8.05371 25.0967 19.832 49.1748 31.8057 72.8047c75.3887 148.781 151.234 297.342 226.966 445.951c8.02051 15.7393 17.9482 30.7373 24.0859 47.1621c9.67578 25.8711 29.2305 29.9062 53.0889 29.9473
c25.0234 0.0488281 36.4834 -13.4248 44.3242 -35.335c40.7715 -113.862 82.3252 -227.438 123.74 -341.064c27.2734 -74.835 54.8398 -149.563 82.1455 -224.39zM284.004 286.052c44.9287 0 84.0371 -0.000976562 128.338 0.00683594
c-9.62598 25.79 -18.5352 48.5234 -26.5889 71.5586c-8.41211 24.0781 -16.001 48.458 -23.9482 72.707c-2.85254 0.170898 -5.69727 0.350586 -8.5498 0.530273c-22.3584 -46.7461 -44.7168 -93.4922 -69.251 -144.803z" />
    <glyph glyph-name="A" unicode="&#xc2;" horiz-adv-x="699" 
d="M635.721 67.0977c4.97168 -13.6201 9.3252 -27.46 14.4277 -42.5723c-24.8281 -10.9551 -47.0967 -22.2441 -70.4004 -30.7051c-28.0557 -10.1807 -42.8984 -4.4834 -56.5918 23.5234c-21.3555 43.6729 -40.5352 88.4062 -60.4648 132.772
c-6.57812 14.6475 -12.6016 29.5479 -20.1982 47.4229c-65.7461 -5.13477 -131.085 -10.2373 -193.285 -15.0957c-38.7256 -67.7842 -74.4434 -130.311 -110.341 -193.139c-36.8916 0.725586 -59.0215 26.9961 -83.2949 47.1621
c-7.23047 6.00684 -9.39062 25.0234 -6.00781 35.5547c8.05371 25.0967 19.832 49.1748 31.8057 72.8047c75.3887 148.781 151.234 297.342 226.966 445.951c8.02051 15.7393 17.9482 30.7373 24.0859 47.1621c9.67578 25.8711 29.2305 29.9062 53.0889 29.9473
c25.0234 0.0488281 36.4834 -13.4248 44.3242 -35.335c40.7715 -113.862 82.3252 -227.438 123.74 -341.064c27.2734 -74.835 54.8398 -149.563 82.1455 -224.39zM284.004 286.052c44.9287 0 84.0371 -0.000976562 128.338 0.00683594
c-9.62598 25.79 -18.5352 48.5234 -26.5889 71.5586c-8.41211 24.0781 -16.001 48.458 -23.9482 72.707c-2.85254 0.170898 -5.69727 0.350586 -8.5498 0.530273c-22.3584 -46.7461 -44.7168 -93.4922 -69.251 -144.803z" />
    <glyph glyph-name="A" unicode="&#xc1;" horiz-adv-x="699" 
d="M635.721 67.0977c4.97168 -13.6201 9.3252 -27.46 14.4277 -42.5723c-24.8281 -10.9551 -47.0967 -22.2441 -70.4004 -30.7051c-28.0557 -10.1807 -42.8984 -4.4834 -56.5918 23.5234c-21.3555 43.6729 -40.5352 88.4062 -60.4648 132.772
c-6.57812 14.6475 -12.6016 29.5479 -20.1982 47.4229c-65.7461 -5.13477 -131.085 -10.2373 -193.285 -15.0957c-38.7256 -67.7842 -74.4434 -130.311 -110.341 -193.139c-36.8916 0.725586 -59.0215 26.9961 -83.2949 47.1621
c-7.23047 6.00684 -9.39062 25.0234 -6.00781 35.5547c8.05371 25.0967 19.832 49.1748 31.8057 72.8047c75.3887 148.781 151.234 297.342 226.966 445.951c8.02051 15.7393 17.9482 30.7373 24.0859 47.1621c9.67578 25.8711 29.2305 29.9062 53.0889 29.9473
c25.0234 0.0488281 36.4834 -13.4248 44.3242 -35.335c40.7715 -113.862 82.3252 -227.438 123.74 -341.064c27.2734 -74.835 54.8398 -149.563 82.1455 -224.39zM284.004 286.052c44.9287 0 84.0371 -0.000976562 128.338 0.00683594
c-9.62598 25.79 -18.5352 48.5234 -26.5889 71.5586c-8.41211 24.0781 -16.001 48.458 -23.9482 72.707c-2.85254 0.170898 -5.69727 0.350586 -8.5498 0.530273c-22.3584 -46.7461 -44.7168 -93.4922 -69.251 -144.803z" />
    <glyph glyph-name="A" unicode="&#xc0;" horiz-adv-x="699" 
d="M635.721 67.0977c4.97168 -13.6201 9.3252 -27.46 14.4277 -42.5723c-24.8281 -10.9551 -47.0967 -22.2441 -70.4004 -30.7051c-28.0557 -10.1807 -42.8984 -4.4834 -56.5918 23.5234c-21.3555 43.6729 -40.5352 88.4062 -60.4648 132.772
c-6.57812 14.6475 -12.6016 29.5479 -20.1982 47.4229c-65.7461 -5.13477 -131.085 -10.2373 -193.285 -15.0957c-38.7256 -67.7842 -74.4434 -130.311 -110.341 -193.139c-36.8916 0.725586 -59.0215 26.9961 -83.2949 47.1621
c-7.23047 6.00684 -9.39062 25.0234 -6.00781 35.5547c8.05371 25.0967 19.832 49.1748 31.8057 72.8047c75.3887 148.781 151.234 297.342 226.966 445.951c8.02051 15.7393 17.9482 30.7373 24.0859 47.1621c9.67578 25.8711 29.2305 29.9062 53.0889 29.9473
c25.0234 0.0488281 36.4834 -13.4248 44.3242 -35.335c40.7715 -113.862 82.3252 -227.438 123.74 -341.064c27.2734 -74.835 54.8398 -149.563 82.1455 -224.39zM284.004 286.052c44.9287 0 84.0371 -0.000976562 128.338 0.00683594
c-9.62598 25.79 -18.5352 48.5234 -26.5889 71.5586c-8.41211 24.0781 -16.001 48.458 -23.9482 72.707c-2.85254 0.170898 -5.69727 0.350586 -8.5498 0.530273c-22.3584 -46.7461 -44.7168 -93.4922 -69.251 -144.803z" />
    <glyph glyph-name="B" unicode="B" horiz-adv-x="549" 
d="M398.132 392.031c95.5869 -51.2539 130.19 -154.301 79.7354 -252.48c-11.0205 -21.4531 -28.5449 -42.4336 -48.3027 -56.0293c-74.0605 -50.96 -156.524 -74.1416 -247.14 -64.5068c-15.585 1.66309 -31.5117 -0.178711 -47.2354 0.620117
c-23.2227 1.18164 -46.3965 3.27637 -72.9609 5.22461c-18.3076 226.9 -14.8271 450.41 -11.7949 680.669c13.4004 2.83691 31.4141 10.0176 49.3379 9.78906c48.6211 -0.619141 97.4219 -2.29785 145.725 -7.49023c46.3711 -4.98047 91.6094 -22.4648 123.333 -55.1836
c39.8828 -41.1299 60.0645 -95.5459 54.2041 -154.192c-3.45605 -34.5684 -15.6504 -68.2646 -24.9014 -106.42zM149.527 622.583c-12.6426 -58.4756 -13.0811 -171.415 -2.24805 -206.277c29.5879 0 59.4863 -3.05664 88.5039 0.68457
c49.4521 6.37402 84.9258 45.8086 87.3789 91.332c2.93457 54.4893 -24.7549 93.6143 -79.6768 105.286c-30.8848 6.56152 -63.2285 6.26855 -93.958 8.97461zM365.263 172.402c17.4512 21.2168 22.001 54.1553 8.52734 74.2314
c-16.5957 24.7305 -35.5059 48.2793 -67.0264 54.5391c-51.7188 10.2705 -103.649 19.4482 -163.372 30.5498c4.13281 -78.0547 7.74414 -146.295 11.4043 -215.562c47.3408 5.35547 91.0137 10.7188 134.793 15.0879c31.2676 3.11328 56.0791 17.3291 75.6738 41.1543z" />
    <glyph glyph-name="C" unicode="C" horiz-adv-x="696" 
d="M325.05 594.283c-97.1523 -47.7734 -144.811 -130.894 -163.827 -233.295c-6.41504 -34.5605 0.146484 -69.3252 20.7607 -97.3896c48.7754 -66.3984 110.821 -110.634 196.276 -122.893c73.9219 -10.6045 131.688 17.1006 188.974 60.6357
c27.6729 -20.9238 52.7617 -42.1084 62.543 -79.334c-29.8086 -28.8467 -61.0273 -54.8242 -101.75 -67.4912c-50.6094 -15.7393 -100.894 -30.1914 -154.698 -33.9902c-84.2324 -5.9502 -149.922 30.4033 -205.896 85.6426
c-50.8711 50.21 -87.2412 111.881 -108.222 180.741c-14.3945 47.2188 -15.9102 95.6113 1.23145 143.263c17.9238 49.8271 33.126 100.804 54.1152 149.294c19.2119 44.3984 52.8916 76.6191 98.3584 97.2246c36.0928 16.3506 69.4629 37.7715 109.664 45.2461
c41.5459 7.72754 81.0049 9.02344 121.279 -7.57227c36.5986 -15.0791 76.6123 -22.3174 112.313 -39.0107c28.667 -13.4004 53.7725 -34.9521 79.2529 -54.458c18.25 -13.9707 14.1416 -29.792 -0.155273 -45.4912c-12.9189 -14.1826 -24.4121 -29.6611 -35.2363 -42.9717
c-53.1123 24.9668 -94.707 46.9746 -138.177 64.2793c-45.0186 17.9238 -91.7402 19.7334 -136.808 -2.42969z" />
    <glyph glyph-name="C" unicode="&#xc7;" horiz-adv-x="696" 
d="M325.05 594.283c-97.1523 -47.7734 -144.811 -130.894 -163.827 -233.295c-6.41504 -34.5605 0.146484 -69.3252 20.7607 -97.3896c48.7754 -66.3984 110.821 -110.634 196.276 -122.893c73.9219 -10.6045 131.688 17.1006 188.974 60.6357
c27.6729 -20.9238 52.7617 -42.1084 62.543 -79.334c-29.8086 -28.8467 -61.0273 -54.8242 -101.75 -67.4912c-50.6094 -15.7393 -100.894 -30.1914 -154.698 -33.9902c-84.2324 -5.9502 -149.922 30.4033 -205.896 85.6426
c-50.8711 50.21 -87.2412 111.881 -108.222 180.741c-14.3945 47.2188 -15.9102 95.6113 1.23145 143.263c17.9238 49.8271 33.126 100.804 54.1152 149.294c19.2119 44.3984 52.8916 76.6191 98.3584 97.2246c36.0928 16.3506 69.4629 37.7715 109.664 45.2461
c41.5459 7.72754 81.0049 9.02344 121.279 -7.57227c36.5986 -15.0791 76.6123 -22.3174 112.313 -39.0107c28.667 -13.4004 53.7725 -34.9521 79.2529 -54.458c18.25 -13.9707 14.1416 -29.792 -0.155273 -45.4912c-12.9189 -14.1826 -24.4121 -29.6611 -35.2363 -42.9717
c-53.1123 24.9668 -94.707 46.9746 -138.177 64.2793c-45.0186 17.9238 -91.7402 19.7334 -136.808 -2.42969z" />
    <glyph glyph-name="D" unicode="D" 
d="M560.294 394.33c17.8262 -81.6982 8.125 -158.807 -28.8076 -229.19c-56.5762 -107.757 -140.679 -168.286 -250.001 -179.909c-15.7637 -1.67871 -31.8135 -3.84668 -47.333 -5.94922c-26.1162 -3.5293 -53.1123 -7.18066 -79.9541 -8.65625
c-2.73828 -0.155273 -5.47656 -0.220703 -8.21484 -0.220703c-15.585 0 -31.2021 2.24121 -47.6016 4.59668c-8.81152 1.26367 -17.875 2.56738 -27.3301 3.57031l-6.48828 0.68457l-0.75 6.48828c-0.87207 7.48242 -1.8584 14.6387 -2.82031 21.5586
c-2.0293 14.623 -3.94434 28.4395 -4.24609 42.4434c-0.619141 28.8877 -0.545898 58.2559 -0.480469 86.6621c0.12207 54.376 0.244141 110.602 -4.40234 165.319c-8.18359 96.3857 -2.00488 191.354 5.90137 279.621c1.20605 13.376 1.71973 24.4941 2.13574 33.4277
c2.2334 47.9932 7.67871 49.4844 65.7715 50.7803c6.26855 0.138672 13.2617 0.293945 21.0293 0.530273c78.5273 2.31445 155.93 -11.1182 224.056 -38.9463c99.6465 -40.6982 165.189 -121.206 189.536 -232.811zM408.162 151.82
c44.5947 75.3398 60.1895 144.811 47.6367 212.366c-7.37695 39.7686 -21.6416 89.791 -66.8965 123.903c-58.4922 44.0889 -125.583 53.1367 -196.619 62.7139l-10.458 1.42676c-10.2461 -79.8311 -17.8105 -409.858 -10.752 -462.791
c4.39355 0.0244141 8.80371 0.0654297 13.2461 0.0976562c6.75684 0.0566406 13.6279 0.113281 20.5479 0.113281c8.33008 0 16.7334 -0.0810547 25.1123 -0.349609c40.5186 -1.2959 81.5186 7.51562 129.357 27.7305c24.6328 10.417 41.5215 22.4482 48.8252 34.7891z" />
    <glyph glyph-name="E" unicode="E" horiz-adv-x="338" 
d="M289.603 624.61c-0.44043 -24.7959 -2.76074 -49.5605 -4.55371 -79.6543h-125.421c-5.61621 -47.3164 5.19238 -91.5684 7.43359 -141.322h98.8145c2.73047 -14.3535 5.82812 -23.9639 6.20312 -33.6719c2.2168 -57.7666 1.98047 -57.5625 -57.0576 -65.917
c-13.0254 -1.8418 -25.7578 -5.7627 -38.2861 -8.64844c-12.9355 -36.5244 -15.9189 -108.27 -7.00195 -184.759h102.441c14.7041 -36.1006 7.87402 -68.2812 7.56445 -99.4834c-30.1348 -16.5303 -148.365 -23.4014 -222.874 -12.3896
c-2.60059 27.2324 -7.52344 55.9238 -7.70312 84.6562c-0.969727 150.77 -0.75 301.556 -0.920898 452.334c-0.0322266 28.1133 -0.635742 56.251 0.195312 84.3398c1.02734 34.6992 5.2334 38.6523 38.0576 40.0215c54.4326 2.26562 108.857 5.42871 163.314 6.1709
c36.3701 0.49707 40.4297 -4.73633 39.7939 -41.6768z" />
    <glyph glyph-name="E" unicode="&#xcb;" horiz-adv-x="338" 
d="M289.603 624.61c-0.44043 -24.7959 -2.76074 -49.5605 -4.55371 -79.6543h-125.421c-5.61621 -47.3164 5.19238 -91.5684 7.43359 -141.322h98.8145c2.73047 -14.3535 5.82812 -23.9639 6.20312 -33.6719c2.2168 -57.7666 1.98047 -57.5625 -57.0576 -65.917
c-13.0254 -1.8418 -25.7578 -5.7627 -38.2861 -8.64844c-12.9355 -36.5244 -15.9189 -108.27 -7.00195 -184.759h102.441c14.7041 -36.1006 7.87402 -68.2812 7.56445 -99.4834c-30.1348 -16.5303 -148.365 -23.4014 -222.874 -12.3896
c-2.60059 27.2324 -7.52344 55.9238 -7.70312 84.6562c-0.969727 150.77 -0.75 301.556 -0.920898 452.334c-0.0322266 28.1133 -0.635742 56.251 0.195312 84.3398c1.02734 34.6992 5.2334 38.6523 38.0576 40.0215c54.4326 2.26562 108.857 5.42871 163.314 6.1709
c36.3701 0.49707 40.4297 -4.73633 39.7939 -41.6768z" />
    <glyph glyph-name="E" unicode="&#xca;" horiz-adv-x="338" 
d="M289.603 624.61c-0.44043 -24.7959 -2.76074 -49.5605 -4.55371 -79.6543h-125.421c-5.61621 -47.3164 5.19238 -91.5684 7.43359 -141.322h98.8145c2.73047 -14.3535 5.82812 -23.9639 6.20312 -33.6719c2.2168 -57.7666 1.98047 -57.5625 -57.0576 -65.917
c-13.0254 -1.8418 -25.7578 -5.7627 -38.2861 -8.64844c-12.9355 -36.5244 -15.9189 -108.27 -7.00195 -184.759h102.441c14.7041 -36.1006 7.87402 -68.2812 7.56445 -99.4834c-30.1348 -16.5303 -148.365 -23.4014 -222.874 -12.3896
c-2.60059 27.2324 -7.52344 55.9238 -7.70312 84.6562c-0.969727 150.77 -0.75 301.556 -0.920898 452.334c-0.0322266 28.1133 -0.635742 56.251 0.195312 84.3398c1.02734 34.6992 5.2334 38.6523 38.0576 40.0215c54.4326 2.26562 108.857 5.42871 163.314 6.1709
c36.3701 0.49707 40.4297 -4.73633 39.7939 -41.6768z" />
    <glyph glyph-name="E" unicode="&#xc9;" horiz-adv-x="338" 
d="M289.603 624.61c-0.44043 -24.7959 -2.76074 -49.5605 -4.55371 -79.6543h-125.421c-5.61621 -47.3164 5.19238 -91.5684 7.43359 -141.322h98.8145c2.73047 -14.3535 5.82812 -23.9639 6.20312 -33.6719c2.2168 -57.7666 1.98047 -57.5625 -57.0576 -65.917
c-13.0254 -1.8418 -25.7578 -5.7627 -38.2861 -8.64844c-12.9355 -36.5244 -15.9189 -108.27 -7.00195 -184.759h102.441c14.7041 -36.1006 7.87402 -68.2812 7.56445 -99.4834c-30.1348 -16.5303 -148.365 -23.4014 -222.874 -12.3896
c-2.60059 27.2324 -7.52344 55.9238 -7.70312 84.6562c-0.969727 150.77 -0.75 301.556 -0.920898 452.334c-0.0322266 28.1133 -0.635742 56.251 0.195312 84.3398c1.02734 34.6992 5.2334 38.6523 38.0576 40.0215c54.4326 2.26562 108.857 5.42871 163.314 6.1709
c36.3701 0.49707 40.4297 -4.73633 39.7939 -41.6768z" />
    <glyph glyph-name="E" unicode="&#xc8;" horiz-adv-x="338" 
d="M289.603 624.61c-0.44043 -24.7959 -2.76074 -49.5605 -4.55371 -79.6543h-125.421c-5.61621 -47.3164 5.19238 -91.5684 7.43359 -141.322h98.8145c2.73047 -14.3535 5.82812 -23.9639 6.20312 -33.6719c2.2168 -57.7666 1.98047 -57.5625 -57.0576 -65.917
c-13.0254 -1.8418 -25.7578 -5.7627 -38.2861 -8.64844c-12.9355 -36.5244 -15.9189 -108.27 -7.00195 -184.759h102.441c14.7041 -36.1006 7.87402 -68.2812 7.56445 -99.4834c-30.1348 -16.5303 -148.365 -23.4014 -222.874 -12.3896
c-2.60059 27.2324 -7.52344 55.9238 -7.70312 84.6562c-0.969727 150.77 -0.75 301.556 -0.920898 452.334c-0.0322266 28.1133 -0.635742 56.251 0.195312 84.3398c1.02734 34.6992 5.2334 38.6523 38.0576 40.0215c54.4326 2.26562 108.857 5.42871 163.314 6.1709
c36.3701 0.49707 40.4297 -4.73633 39.7939 -41.6768z" />
    <glyph glyph-name="F" unicode="F" horiz-adv-x="353" 
d="M303.873 566.27c-43.584 0 -84.0605 -0.00195312 -127.636 0.0146484v-125.379c39.1416 -2.05371 77.9326 -4.08301 119.674 -6.26758c0 -24.8604 0.114258 -43.877 -0.0244141 -62.8936c-0.367188 -50.7158 -19.9297 -67.3027 -71.7539 -60.6592
c-11.2646 1.44238 -22.4238 3.73242 -40.4053 6.78125v-309.324c-37.6826 -3.98633 -69.5283 -9.78125 -101.407 -10.001c-28.8955 -0.195312 -32.4736 10.2705 -32.0664 39.7041c1.04297 75.1445 -0.408203 150.33 -0.856445 225.499
c-0.489258 81.25 -2.0459 162.516 -1.0918 243.749c0.68457 58.7852 4.70312 117.529 7.47461 181.906c24.2246 0 45.9307 0.25293 67.6289 -0.0488281c45.833 -0.635742 91.6748 -1.2959 137.508 -2.42871c34.0059 -0.839844 39.8994 -4.93945 42.5244 -36.957
c2.14355 -26.1406 0.431641 -52.5986 0.431641 -83.6953z" />
    <glyph glyph-name="G" unicode="G" horiz-adv-x="765" 
d="M715.546 327.206c3.89648 -119.355 -1.55762 -238.619 -29.2139 -356.401h-65.127c-3.9209 27.9336 -7.50781 53.4297 -11.9014 84.7139c-28.2021 -14.167 -51.3672 -25.6846 -74.4268 -37.3896c-65.9824 -33.4922 -134.729 -50.3896 -208.821 -34.5195
c-11.4033 2.4375 -23.4834 4.33691 -33.6475 9.59473c-61.54 31.8213 -124.263 63.2842 -172.362 114.057c-55.6143 58.7119 -77.8418 131.843 -70.7744 212.041c5.46094 61.9727 19.2607 122.486 50.667 177.408c44.4229 77.6875 110.487 130.678 193.896 159.769
c112.811 39.3369 220.616 32.0576 316.489 -47.2031c29.3027 -24.2246 57.6357 -49.6152 87.0283 -74.998c-25.5127 -25.04 -48.1396 -47.252 -68.0938 -66.8311c-19.0322 16.6445 -37.1768 33.4688 -56.3232 49.0615c-52.2812 42.5811 -107.888 76.3916 -179.494 72.6094
c-63.334 -3.3418 -112.501 -37.0547 -155.114 -77.3701c-53.707 -50.8213 -78.4785 -117.342 -74.2402 -192.201c1.1416 -20.1084 6.14648 -40.8369 13.6777 -59.5518c10.417 -25.8877 25.0322 -50.0801 37.6504 -75.0957
c33.8428 -67.1074 95.3506 -87.5664 163.388 -96.9805c4.35254 -0.603516 8.9502 0.456055 13.2949 -0.196289c77.7041 -11.7295 133.237 23.7764 178.247 82.7246c11.6396 15.2422 26.4746 28.2021 36.9404 44.1211c5.72168 8.69727 9.01465 22.4072 6.34961 31.8789
c-1.54102 5.47754 -16.873 8.83594 -26.377 9.94434c-18.8291 2.20898 -37.9189 2.19238 -59.3809 3.21094v72.9111c62.502 8.56641 122.322 4.32812 187.669 -5.30664z" />
    <glyph glyph-name="H" unicode="H" horiz-adv-x="610" 
d="M48.1514 622.734c-0.0166016 22.0811 -0.000976562 44.1641 -0.000976562 73.915c31.8213 0 59.6816 2.4209 86.8818 -0.774414c21.2334 -2.49414 30.9414 -18.8945 31.4141 -41.375c0.9375 -44.2275 2.69824 -88.4717 5.68945 -132.602
c2.27441 -33.5498 6.97754 -66.9287 10.7188 -101.473c80.1816 -15.0391 153.843 19.3418 233.047 13.1221c1.08398 16.4648 2.4043 29.4004 2.70605 42.3604c1.2959 56.1445 1.98828 112.306 3.5127 168.45c1.1416 42.0107 15.96 56.8135 57.2939 53.6836
c24.502 -1.8584 48.6289 -8.68066 77.2393 -14.085c0 -54.873 2.58398 -106.493 -0.480469 -157.771c-9.43066 -157.723 -4.75977 -315.152 5.0625 -472.59c2.09473 -33.5088 -8.00488 -44.5693 -42.875 -45.5557c-10.3438 -0.292969 -20.8096 -0.806641 -31.0469 0.334961
c-28.1699 3.12988 -45.0342 18.2578 -48.3271 46.623c-4.91504 42.4424 -9.11328 85.0723 -11.0205 127.743c-1.8418 41.1299 -0.399414 82.415 -0.399414 124.89c-83.2305 16.4404 -162.312 19.334 -239.559 2.65723v-296.665
c-39.2881 -7.45801 -76.71 -8.82715 -114.449 -5.3877c-18.209 1.66309 -25.6514 13.1973 -24.5596 30.4365c1.39355 22.0156 5.37988 44.0234 5.0459 65.9824c-1.1416 75.291 -4.64648 150.55 -5.45312 225.841c-1.04297 97.3965 -0.375 194.826 -0.44043 292.239z" />
    <glyph glyph-name="I" unicode="I" horiz-adv-x="254" 
d="M204.799 92.4561c0.5625 -14.541 1.52539 -29.9062 -2.44434 -43.502c-2.9834 -10.1807 -12.9688 -25.1211 -20.9404 -25.8545c-34.6338 -3.1875 -69.7891 -3.75781 -104.513 -1.54883c-18.2588 1.16602 -20.2393 19.6523 -19.9707 34.6504
c1.44238 79.6846 0.912109 159.532 6.18555 238.988c3.9209 59.1113 5.25 117.538 -1.0918 176.486c-3.09766 28.7979 -0.538086 58.1904 -0.538086 90.501c32.6689 2.73047 63.1211 5.29785 93.5732 7.82422c23.1816 1.92383 30.7051 -9.87891 31.3574 -31.8213
c2.17676 -73.4736 5.57617 -146.923 8.68164 -220.372c3.17871 -75.1201 6.76562 -150.224 9.7002 -225.352zM126.827 668.098c-41.9775 1.2793 -79.8711 34.4385 -78.8037 68.958c1.39355 44.9531 43.3467 89.3359 83.1562 87.958
c34.9111 -1.20605 73.0742 -47.5771 72.6426 -88.2754c-0.407227 -38.416 -35.7178 -69.8955 -76.9951 -68.6406z" />
    <glyph glyph-name="I" unicode="&#xcf;" horiz-adv-x="254" 
d="M204.799 92.4561c0.5625 -14.541 1.52539 -29.9062 -2.44434 -43.502c-2.9834 -10.1807 -12.9688 -25.1211 -20.9404 -25.8545c-34.6338 -3.1875 -69.7891 -3.75781 -104.513 -1.54883c-18.2588 1.16602 -20.2393 19.6523 -19.9707 34.6504
c1.44238 79.6846 0.912109 159.532 6.18555 238.988c3.9209 59.1113 5.25 117.538 -1.0918 176.486c-3.09766 28.7979 -0.538086 58.1904 -0.538086 90.501c32.6689 2.73047 63.1211 5.29785 93.5732 7.82422c23.1816 1.92383 30.7051 -9.87891 31.3574 -31.8213
c2.17676 -73.4736 5.57617 -146.923 8.68164 -220.372c3.17871 -75.1201 6.76562 -150.224 9.7002 -225.352zM126.827 668.098c-41.9775 1.2793 -79.8711 34.4385 -78.8037 68.958c1.39355 44.9531 43.3467 89.3359 83.1562 87.958
c34.9111 -1.20605 73.0742 -47.5771 72.6426 -88.2754c-0.407227 -38.416 -35.7178 -69.8955 -76.9951 -68.6406z" />
    <glyph glyph-name="I" unicode="&#xce;" horiz-adv-x="254" 
d="M204.799 92.4561c0.5625 -14.541 1.52539 -29.9062 -2.44434 -43.502c-2.9834 -10.1807 -12.9688 -25.1211 -20.9404 -25.8545c-34.6338 -3.1875 -69.7891 -3.75781 -104.513 -1.54883c-18.2588 1.16602 -20.2393 19.6523 -19.9707 34.6504
c1.44238 79.6846 0.912109 159.532 6.18555 238.988c3.9209 59.1113 5.25 117.538 -1.0918 176.486c-3.09766 28.7979 -0.538086 58.1904 -0.538086 90.501c32.6689 2.73047 63.1211 5.29785 93.5732 7.82422c23.1816 1.92383 30.7051 -9.87891 31.3574 -31.8213
c2.17676 -73.4736 5.57617 -146.923 8.68164 -220.372c3.17871 -75.1201 6.76562 -150.224 9.7002 -225.352zM126.827 668.098c-41.9775 1.2793 -79.8711 34.4385 -78.8037 68.958c1.39355 44.9531 43.3467 89.3359 83.1562 87.958
c34.9111 -1.20605 73.0742 -47.5771 72.6426 -88.2754c-0.407227 -38.416 -35.7178 -69.8955 -76.9951 -68.6406z" />
    <glyph glyph-name="I" unicode="&#xcd;" horiz-adv-x="254" 
d="M204.799 92.4561c0.5625 -14.541 1.52539 -29.9062 -2.44434 -43.502c-2.9834 -10.1807 -12.9688 -25.1211 -20.9404 -25.8545c-34.6338 -3.1875 -69.7891 -3.75781 -104.513 -1.54883c-18.2588 1.16602 -20.2393 19.6523 -19.9707 34.6504
c1.44238 79.6846 0.912109 159.532 6.18555 238.988c3.9209 59.1113 5.25 117.538 -1.0918 176.486c-3.09766 28.7979 -0.538086 58.1904 -0.538086 90.501c32.6689 2.73047 63.1211 5.29785 93.5732 7.82422c23.1816 1.92383 30.7051 -9.87891 31.3574 -31.8213
c2.17676 -73.4736 5.57617 -146.923 8.68164 -220.372c3.17871 -75.1201 6.76562 -150.224 9.7002 -225.352zM126.827 668.098c-41.9775 1.2793 -79.8711 34.4385 -78.8037 68.958c1.39355 44.9531 43.3467 89.3359 83.1562 87.958
c34.9111 -1.20605 73.0742 -47.5771 72.6426 -88.2754c-0.407227 -38.416 -35.7178 -69.8955 -76.9951 -68.6406z" />
    <glyph glyph-name="I" unicode="&#xcc;" horiz-adv-x="254" 
d="M204.799 92.4561c0.5625 -14.541 1.52539 -29.9062 -2.44434 -43.502c-2.9834 -10.1807 -12.9688 -25.1211 -20.9404 -25.8545c-34.6338 -3.1875 -69.7891 -3.75781 -104.513 -1.54883c-18.2588 1.16602 -20.2393 19.6523 -19.9707 34.6504
c1.44238 79.6846 0.912109 159.532 6.18555 238.988c3.9209 59.1113 5.25 117.538 -1.0918 176.486c-3.09766 28.7979 -0.538086 58.1904 -0.538086 90.501c32.6689 2.73047 63.1211 5.29785 93.5732 7.82422c23.1816 1.92383 30.7051 -9.87891 31.3574 -31.8213
c2.17676 -73.4736 5.57617 -146.923 8.68164 -220.372c3.17871 -75.1201 6.76562 -150.224 9.7002 -225.352zM126.827 668.098c-41.9775 1.2793 -79.8711 34.4385 -78.8037 68.958c1.39355 44.9531 43.3467 89.3359 83.1562 87.958
c34.9111 -1.20605 73.0742 -47.5771 72.6426 -88.2754c-0.407227 -38.416 -35.7178 -69.8955 -76.9951 -68.6406z" />
    <glyph glyph-name="J" unicode="J" horiz-adv-x="505" 
d="M442.054 502.07c0 -19.4404 -0.368164 -33.8652 0.0722656 -48.2764c1.66309 -55.998 6.47266 -112.094 4.5 -167.961c-1.6543 -46.6895 -4.52344 -95.1963 -18.4619 -139.22c-34.9023 -110.243 -129.756 -158.57 -245.362 -117.889
c-12.4707 4.39355 -24.4287 10.4502 -37.1201 13.9717c-32.6045 9.04785 -52.2891 31.9521 -66.6758 60.5049c-10.5557 20.9561 -20.0273 42.459 -31.0068 65.9014c15.2021 27.6973 44.5703 38.9697 71.6729 52.5576c15.0879 7.56445 23.4912 -3.29297 32.6367 -14.2969
c18.6904 -22.4805 36.8506 -46.29 59.29 -64.5645c44.1377 -35.9375 103.592 -10.6445 111.743 45.8418c1.88281 13.0576 1.17383 26.5391 1.19043 39.8252c0.0898438 76.8232 -0.0566406 153.646 0.138672 230.47c0.0322266 14.3945 1.25488 28.7812 1.92285 43.1348
h115.46zM382.868 597.44c-39.3047 0.579102 -70.5479 32.1318 -69.3906 70.083c1.13281 37.1201 29.833 72.21 58.5332 71.5664c38.9941 -0.87207 85.292 -46.0537 84.4121 -82.375c-0.864258 -35.873 -30.6885 -59.9023 -73.5547 -59.2744z" />
    <glyph glyph-name="K" unicode="K" horiz-adv-x="565" 
d="M262.666 388.282c86.2871 -92.5225 168.669 -180.854 253.88 -272.22c-18.2256 -20.2393 -31.626 -37.5029 -47.4551 -52.126c-25.4473 -23.5156 -38.2285 -22.2197 -62.7715 3.23633c-67.6699 70.1885 -135.209 140.499 -202.911 210.655
c-8.06152 8.35449 -16.832 16.0244 -32.1719 30.541c-12.6016 -101.285 2.52637 -196.848 -16.123 -295.851c-22.2031 0 -43.8926 -0.391602 -65.5664 0.0888672c-34.4785 0.757812 -41.5215 6.08008 -41.5459 41.7656c-0.0410156 57.3838 3.21973 114.768 4.32031 172.159
c1.6709 86.8652 2.83691 173.747 3.9375 260.621c0.81543 64.8174 0.236328 129.667 2.13574 194.443c1.1084 37.7314 3.95312 38.9375 42.1816 39.5566c19.0078 0.30957 38.0244 0.0566406 59.502 0.0566406c11.9736 -83.2061 18.4209 -162.898 3.22754 -254.622
c37.5273 30.6074 68.0693 52.8105 95.4082 78.4375c42.1084 39.4678 82.04 81.25 122.844 122.095c42.6621 42.6953 64.4092 40.5273 100.828 -10.335c1.62207 -2.26562 1.90723 -5.48535 3.92871 -11.6309c-74.0605 -85.0557 -149.303 -171.481 -223.648 -256.872z" />
    <glyph glyph-name="L" unicode="L" horiz-adv-x="317" 
d="M263.227 97.7539c9.80566 -39.2148 3.8125 -77.1777 4.13867 -113.809c-31.3896 -31.1123 -65.9258 -5.77051 -98.0977 -8.64746c-33.5664 -3 -67.6055 -0.668945 -102.443 -0.668945c-3.26074 9.71582 -7.40918 16.3838 -7.46582 23.0918
c-0.660156 78.1445 0.481445 156.321 -1.2793 234.433c-1.56543 69.3652 -6.83105 138.641 -9.18652 208.006c-1.39355 41.1299 -0.928711 82.3496 -0.154297 123.504c0.579102 31.0225 3.48047 61.9961 4.43457 93.0273c0.725586 23.5889 13.042 36.1904 35.4492 37.0137
c78.6416 2.87695 87.6973 3.04785 87.6484 -75.1289c-0.0898438 -155.27 -0.0244141 -310.539 -0.0244141 -465.809v-50.7656c32.6123 -1.59766 58.8184 -2.86914 86.9805 -4.24707z" />
    <glyph glyph-name="M" unicode="M" horiz-adv-x="871" 
d="M819.844 77.1484c5.62402 -32.8652 1.49023 -40.2295 -27.6494 -49.2686c-12.7725 -3.95312 -26.2139 -6.39062 -40.4375 -8.9668c-5.17578 -0.9375 -10.4658 -1.89941 -15.8701 -2.95117c-50.667 124.458 -86.7275 241.189 -107.228 347.03l-4.16504 21.4863
l-7.57227 -20.5322c-2.77148 -7.50684 -5.18457 -13.8076 -7.30371 -19.3418c-4.01074 -10.458 -6.9043 -18.0137 -9.30078 -26.0176c-13.5879 -45.1406 -29.2139 -92.9385 -44.3262 -139.155c-17.5654 -53.6992 -35.7178 -109.225 -51.0332 -161.709
c-3.82324 -13.0986 -9.62695 -18.0625 -22.1963 -18.9756c-45.8662 -3.30957 -72.8545 4.69434 -93.2236 57.7822c-23.2627 60.6357 -49.6562 116.226 -77.6064 175.076c-16.3594 34.4463 -33.2725 70.0742 -50.0312 107.789l-6.23535 14.0195l-5.11914 -14.4678
c-32.8896 -92.9385 -55.1992 -174.474 -78.8047 -260.802c-6.91992 -25.3174 -13.9375 -50.9609 -21.3301 -77.2891c-30.2158 -9.81348 -55.2803 2.20898 -81.7471 14.8916c-4.24707 2.0293 -8.46973 4.05859 -12.7002 5.97363
c-3.75781 1.70312 -9.46387 17.7363 -7.57324 27.0039c12.6504 62.1924 26.1895 120.888 39.2637 177.644c11.8838 51.5713 24.1836 104.912 35.9209 161.244c9.96875 47.8057 19.4072 96.541 28.5449 143.662c6.43945 33.1748 12.8623 66.3418 19.5137 99.4678
c5.11035 25.4639 9.87891 41.3828 19.1221 47.4551c3.94531 2.5918 9.24316 3.70801 16.0244 3.70801c9.04785 0 20.7441 -1.98926 35.3594 -5.11133c20.8994 -4.45898 31.6836 -12.7324 41.2119 -31.5859c34.6748 -68.5908 61.043 -141.877 86.5479 -212.742
c11.7617 -32.6611 23.915 -66.4395 36.7363 -99.3779c4.24707 -10.8984 9.04785 -21.8369 14.6064 -34.5039c2.9502 -6.73242 6.17773 -14.0928 9.74805 -22.415l5.79492 -13.4814l5.49414 13.6045c3.92871 9.72461 7.52344 18.7148 10.9141 27.208
c6.83008 17.085 12.8535 32.1396 19.1543 47.0801c18.625 44.1621 38.4893 90.7695 60.7334 142.464c5.98242 13.8975 11.9326 27.8271 17.875 41.749c17.4922 40.9668 35.5713 83.3193 54.4814 124.417c15.5195 33.7295 15.5029 33.7373 45.3604 29.6045
c3.33398 -0.456055 6.7002 -0.838867 10.0664 -1.21387c25.2764 -2.85254 45.2461 -5.10254 50.8867 -37.3643c8.22461 -46.9824 19.2041 -94.2012 29.8252 -139.871c4.23047 -18.2012 8.46875 -36.4102 12.5439 -54.6445
c3.1875 -14.2402 6.57812 -28.4473 9.96875 -42.6543c6.75684 -28.3408 13.7422 -57.6436 18.8691 -86.6855c3.82324 -21.7227 6.12207 -44.2109 8.34766 -65.958c1.75293 -17.1738 3.57031 -34.9268 6.12988 -52.3369c4.31152 -29.2217 9.59375 -58.7451 14.7129 -87.2979
c2.60059 -14.541 5.20117 -29.082 7.69531 -43.6396z" />
    <glyph glyph-name="N" unicode="N" horiz-adv-x="739" 
d="M689.712 452.277c0.954102 -49.8848 1.21094 -99.8408 -0.133789 -149.709c-1.71191 -63.1953 -8.72168 -126.431 -7.00977 -189.479c1.15723 -42.5244 -16.0088 -66.5459 -51.8896 -82.3594c-9.34961 -4.11621 -18.4385 -8.81934 -30.2822 -14.5166
c-80.2881 64.2139 -139.938 148.022 -212.058 219.531c-70.7588 70.1562 -137.304 144.575 -211.267 223.029c-6.33301 -153.843 17.835 -299.38 -1.71973 -446.188c-35.001 -15.6504 -70.3682 -6.00781 -104.595 -1.85938
c-7.40918 0.904297 -16.9131 19.4561 -18.0381 30.623c-3.11328 30.8193 -2.99902 62.0381 -2.90137 93.0938c0.431641 142.04 1.30371 284.08 2.00488 426.12c0.0244141 4.43457 0.855469 9.08887 -0.171875 13.2871c-14.541 59.5518 15.5771 92.0586 70.1318 112.746
c142.749 -145.806 283.941 -290.014 432.355 -441.606c0.0898438 45.2627 0.68457 82.6104 0.12207 119.934c-1.3125 86.7676 -3.66797 173.52 -4.62207 260.287c-0.464844 42.2139 4.14844 45.9473 45.1152 46.3955c7.40137 0.0810547 14.8516 0.415039 22.1953 -0.277344
c60.5537 -5.71387 68.2725 -16.4492 67.6367 -77.582c-0.489258 -47.1289 4.22168 -94.291 5.12598 -141.47z" />
    <glyph glyph-name="N" unicode="&#xd1;" horiz-adv-x="739" 
d="M689.712 452.277c0.954102 -49.8848 1.21094 -99.8408 -0.133789 -149.709c-1.71191 -63.1953 -8.72168 -126.431 -7.00977 -189.479c1.15723 -42.5244 -16.0088 -66.5459 -51.8896 -82.3594c-9.34961 -4.11621 -18.4385 -8.81934 -30.2822 -14.5166
c-80.2881 64.2139 -139.938 148.022 -212.058 219.531c-70.7588 70.1562 -137.304 144.575 -211.267 223.029c-6.33301 -153.843 17.835 -299.38 -1.71973 -446.188c-35.001 -15.6504 -70.3682 -6.00781 -104.595 -1.85938
c-7.40918 0.904297 -16.9131 19.4561 -18.0381 30.623c-3.11328 30.8193 -2.99902 62.0381 -2.90137 93.0938c0.431641 142.04 1.30371 284.08 2.00488 426.12c0.0244141 4.43457 0.855469 9.08887 -0.171875 13.2871c-14.541 59.5518 15.5771 92.0586 70.1318 112.746
c142.749 -145.806 283.941 -290.014 432.355 -441.606c0.0898438 45.2627 0.68457 82.6104 0.12207 119.934c-1.3125 86.7676 -3.66797 173.52 -4.62207 260.287c-0.464844 42.2139 4.14844 45.9473 45.1152 46.3955c7.40137 0.0810547 14.8516 0.415039 22.1953 -0.277344
c60.5537 -5.71387 68.2725 -16.4492 67.6367 -77.582c-0.489258 -47.1289 4.22168 -94.291 5.12598 -141.47z" />
    <glyph glyph-name="O" unicode="O" horiz-adv-x="806" 
d="M744.434 433.084c5.19238 -49.6641 13.0342 -99.4346 12.9609 -149.164c-0.0976562 -53.4629 -30.8594 -96.2637 -59.4365 -139.937c-44.9453 -68.6973 -105.825 -114.335 -183.61 -136.065c-52.4434 -14.6553 -105.865 -15.1445 -160.926 -6.61035
c-62.5508 9.7002 -119.6 28.1621 -171.294 64.499c-36.0684 25.3496 -63.4805 57.8311 -79.6768 98.334c-17.9893 44.9775 -33.3047 91.0469 -48.873 136.953c-3.7168 10.9385 -3.81445 23.0996 -5.5752 34.6982c3.26074 101.212 28.2188 193.547 108.678 261.421
c24.249 20.459 53.6172 36.4922 83.042 48.8164c54.041 22.627 108.417 48.4414 169.158 44.7324c153.101 -9.35742 265.977 -78.8447 326.481 -223.762c4.47461 -10.7266 7.86523 -22.3984 9.07129 -33.916zM628.935 353.668
c4.4668 95.3105 -54.4072 150.559 -126.21 193.188c-37.7637 22.4316 -84.3467 29.3027 -128.811 21.9014c-119.764 -19.9297 -174.954 -95.5225 -206.434 -203.687c-12.8135 -44.0322 10.7266 -80.4434 23.7842 -118.965
c27.2568 -80.4424 89.6123 -117.317 168.498 -129.992c64.7275 -10.4004 120.978 19.3916 177.432 44.6113c42.1572 18.8369 65.1191 55.7773 77.7451 97.1436c9.31641 30.5176 9.65918 63.7656 13.9951 95.7988z" />
    <glyph glyph-name="O" unicode="&#xd8;" horiz-adv-x="806" 
d="M744.434 433.084c5.19238 -49.6641 13.0342 -99.4346 12.9609 -149.164c-0.0976562 -53.4629 -30.8594 -96.2637 -59.4365 -139.937c-44.9453 -68.6973 -105.825 -114.335 -183.61 -136.065c-52.4434 -14.6553 -105.865 -15.1445 -160.926 -6.61035
c-62.5508 9.7002 -119.6 28.1621 -171.294 64.499c-36.0684 25.3496 -63.4805 57.8311 -79.6768 98.334c-17.9893 44.9775 -33.3047 91.0469 -48.873 136.953c-3.7168 10.9385 -3.81445 23.0996 -5.5752 34.6982c3.26074 101.212 28.2188 193.547 108.678 261.421
c24.249 20.459 53.6172 36.4922 83.042 48.8164c54.041 22.627 108.417 48.4414 169.158 44.7324c153.101 -9.35742 265.977 -78.8447 326.481 -223.762c4.47461 -10.7266 7.86523 -22.3984 9.07129 -33.916zM628.935 353.668
c4.4668 95.3105 -54.4072 150.559 -126.21 193.188c-37.7637 22.4316 -84.3467 29.3027 -128.811 21.9014c-119.764 -19.9297 -174.954 -95.5225 -206.434 -203.687c-12.8135 -44.0322 10.7266 -80.4434 23.7842 -118.965
c27.2568 -80.4424 89.6123 -117.317 168.498 -129.992c64.7275 -10.4004 120.978 19.3916 177.432 44.6113c42.1572 18.8369 65.1191 55.7773 77.7451 97.1436c9.31641 30.5176 9.65918 63.7656 13.9951 95.7988z" />
    <glyph glyph-name="O" unicode="&#xd6;" horiz-adv-x="806" 
d="M744.434 433.084c5.19238 -49.6641 13.0342 -99.4346 12.9609 -149.164c-0.0976562 -53.4629 -30.8594 -96.2637 -59.4365 -139.937c-44.9453 -68.6973 -105.825 -114.335 -183.61 -136.065c-52.4434 -14.6553 -105.865 -15.1445 -160.926 -6.61035
c-62.5508 9.7002 -119.6 28.1621 -171.294 64.499c-36.0684 25.3496 -63.4805 57.8311 -79.6768 98.334c-17.9893 44.9775 -33.3047 91.0469 -48.873 136.953c-3.7168 10.9385 -3.81445 23.0996 -5.5752 34.6982c3.26074 101.212 28.2188 193.547 108.678 261.421
c24.249 20.459 53.6172 36.4922 83.042 48.8164c54.041 22.627 108.417 48.4414 169.158 44.7324c153.101 -9.35742 265.977 -78.8447 326.481 -223.762c4.47461 -10.7266 7.86523 -22.3984 9.07129 -33.916zM628.935 353.668
c4.4668 95.3105 -54.4072 150.559 -126.21 193.188c-37.7637 22.4316 -84.3467 29.3027 -128.811 21.9014c-119.764 -19.9297 -174.954 -95.5225 -206.434 -203.687c-12.8135 -44.0322 10.7266 -80.4434 23.7842 -118.965
c27.2568 -80.4424 89.6123 -117.317 168.498 -129.992c64.7275 -10.4004 120.978 19.3916 177.432 44.6113c42.1572 18.8369 65.1191 55.7773 77.7451 97.1436c9.31641 30.5176 9.65918 63.7656 13.9951 95.7988z" />
    <glyph glyph-name="O" unicode="&#xd5;" horiz-adv-x="806" 
d="M744.434 433.084c5.19238 -49.6641 13.0342 -99.4346 12.9609 -149.164c-0.0976562 -53.4629 -30.8594 -96.2637 -59.4365 -139.937c-44.9453 -68.6973 -105.825 -114.335 -183.61 -136.065c-52.4434 -14.6553 -105.865 -15.1445 -160.926 -6.61035
c-62.5508 9.7002 -119.6 28.1621 -171.294 64.499c-36.0684 25.3496 -63.4805 57.8311 -79.6768 98.334c-17.9893 44.9775 -33.3047 91.0469 -48.873 136.953c-3.7168 10.9385 -3.81445 23.0996 -5.5752 34.6982c3.26074 101.212 28.2188 193.547 108.678 261.421
c24.249 20.459 53.6172 36.4922 83.042 48.8164c54.041 22.627 108.417 48.4414 169.158 44.7324c153.101 -9.35742 265.977 -78.8447 326.481 -223.762c4.47461 -10.7266 7.86523 -22.3984 9.07129 -33.916zM628.935 353.668
c4.4668 95.3105 -54.4072 150.559 -126.21 193.188c-37.7637 22.4316 -84.3467 29.3027 -128.811 21.9014c-119.764 -19.9297 -174.954 -95.5225 -206.434 -203.687c-12.8135 -44.0322 10.7266 -80.4434 23.7842 -118.965
c27.2568 -80.4424 89.6123 -117.317 168.498 -129.992c64.7275 -10.4004 120.978 19.3916 177.432 44.6113c42.1572 18.8369 65.1191 55.7773 77.7451 97.1436c9.31641 30.5176 9.65918 63.7656 13.9951 95.7988z" />
    <glyph glyph-name="O" unicode="&#xd4;" horiz-adv-x="806" 
d="M744.434 433.084c5.19238 -49.6641 13.0342 -99.4346 12.9609 -149.164c-0.0976562 -53.4629 -30.8594 -96.2637 -59.4365 -139.937c-44.9453 -68.6973 -105.825 -114.335 -183.61 -136.065c-52.4434 -14.6553 -105.865 -15.1445 -160.926 -6.61035
c-62.5508 9.7002 -119.6 28.1621 -171.294 64.499c-36.0684 25.3496 -63.4805 57.8311 -79.6768 98.334c-17.9893 44.9775 -33.3047 91.0469 -48.873 136.953c-3.7168 10.9385 -3.81445 23.0996 -5.5752 34.6982c3.26074 101.212 28.2188 193.547 108.678 261.421
c24.249 20.459 53.6172 36.4922 83.042 48.8164c54.041 22.627 108.417 48.4414 169.158 44.7324c153.101 -9.35742 265.977 -78.8447 326.481 -223.762c4.47461 -10.7266 7.86523 -22.3984 9.07129 -33.916zM628.935 353.668
c4.4668 95.3105 -54.4072 150.559 -126.21 193.188c-37.7637 22.4316 -84.3467 29.3027 -128.811 21.9014c-119.764 -19.9297 -174.954 -95.5225 -206.434 -203.687c-12.8135 -44.0322 10.7266 -80.4434 23.7842 -118.965
c27.2568 -80.4424 89.6123 -117.317 168.498 -129.992c64.7275 -10.4004 120.978 19.3916 177.432 44.6113c42.1572 18.8369 65.1191 55.7773 77.7451 97.1436c9.31641 30.5176 9.65918 63.7656 13.9951 95.7988z" />
    <glyph glyph-name="O" unicode="&#xd3;" horiz-adv-x="806" 
d="M744.434 433.084c5.19238 -49.6641 13.0342 -99.4346 12.9609 -149.164c-0.0976562 -53.4629 -30.8594 -96.2637 -59.4365 -139.937c-44.9453 -68.6973 -105.825 -114.335 -183.61 -136.065c-52.4434 -14.6553 -105.865 -15.1445 -160.926 -6.61035
c-62.5508 9.7002 -119.6 28.1621 -171.294 64.499c-36.0684 25.3496 -63.4805 57.8311 -79.6768 98.334c-17.9893 44.9775 -33.3047 91.0469 -48.873 136.953c-3.7168 10.9385 -3.81445 23.0996 -5.5752 34.6982c3.26074 101.212 28.2188 193.547 108.678 261.421
c24.249 20.459 53.6172 36.4922 83.042 48.8164c54.041 22.627 108.417 48.4414 169.158 44.7324c153.101 -9.35742 265.977 -78.8447 326.481 -223.762c4.47461 -10.7266 7.86523 -22.3984 9.07129 -33.916zM628.935 353.668
c4.4668 95.3105 -54.4072 150.559 -126.21 193.188c-37.7637 22.4316 -84.3467 29.3027 -128.811 21.9014c-119.764 -19.9297 -174.954 -95.5225 -206.434 -203.687c-12.8135 -44.0322 10.7266 -80.4434 23.7842 -118.965
c27.2568 -80.4424 89.6123 -117.317 168.498 -129.992c64.7275 -10.4004 120.978 19.3916 177.432 44.6113c42.1572 18.8369 65.1191 55.7773 77.7451 97.1436c9.31641 30.5176 9.65918 63.7656 13.9951 95.7988z" />
    <glyph glyph-name="O" unicode="&#xd2;" horiz-adv-x="806" 
d="M744.434 433.084c5.19238 -49.6641 13.0342 -99.4346 12.9609 -149.164c-0.0976562 -53.4629 -30.8594 -96.2637 -59.4365 -139.937c-44.9453 -68.6973 -105.825 -114.335 -183.61 -136.065c-52.4434 -14.6553 -105.865 -15.1445 -160.926 -6.61035
c-62.5508 9.7002 -119.6 28.1621 -171.294 64.499c-36.0684 25.3496 -63.4805 57.8311 -79.6768 98.334c-17.9893 44.9775 -33.3047 91.0469 -48.873 136.953c-3.7168 10.9385 -3.81445 23.0996 -5.5752 34.6982c3.26074 101.212 28.2188 193.547 108.678 261.421
c24.249 20.459 53.6172 36.4922 83.042 48.8164c54.041 22.627 108.417 48.4414 169.158 44.7324c153.101 -9.35742 265.977 -78.8447 326.481 -223.762c4.47461 -10.7266 7.86523 -22.3984 9.07129 -33.916zM628.935 353.668
c4.4668 95.3105 -54.4072 150.559 -126.21 193.188c-37.7637 22.4316 -84.3467 29.3027 -128.811 21.9014c-119.764 -19.9297 -174.954 -95.5225 -206.434 -203.687c-12.8135 -44.0322 10.7266 -80.4434 23.7842 -118.965
c27.2568 -80.4424 89.6123 -117.317 168.498 -129.992c64.7275 -10.4004 120.978 19.3916 177.432 44.6113c42.1572 18.8369 65.1191 55.7773 77.7451 97.1436c9.31641 30.5176 9.65918 63.7656 13.9951 95.7988z" />
    <glyph glyph-name="P" unicode="P" horiz-adv-x="497" 
d="M417.1 563.668c30.3379 -59.5029 42.1514 -124.359 18.6924 -188.802c-13.2939 -36.5 -43.249 -63.7168 -81.0947 -76.71c-47.3906 -16.2695 -95.6855 -30.1592 -146.906 -27.7549c-8.46094 0.399414 -17.0518 -1.89062 -28.374 -3.27637v-266.01h-116.886
c-5.39648 27.5664 -15.0312 52.9492 -14.5098 78.1279c2.47754 119.649 9.01465 239.209 11.4521 358.85c1.23926 60.4648 -3.36621 121.043 -4.8418 181.581c-0.350586 14.4434 1.25488 28.9355 1.94727 43.1758c79.0898 18.6582 154.03 8.27344 229.811 -4.6543
c60.8066 -10.376 104.056 -42.2549 130.71 -94.5273zM345.129 448.861c4.20605 34.3652 -9.60059 65.6973 -38.9854 83.5889c-40.3887 24.5918 -84.9668 37.6172 -135.43 25.0889c-0.81543 -8.51758 -2.28223 -15.5195 -2.02148 -22.4561
c2.12695 -57.0332 4.57227 -114.058 7.18066 -177.448c39.9316 6.8877 74.0273 9.42285 105.914 19.1719c33.9248 10.3682 58.8506 35.2939 63.3418 72.0547z" />
    <glyph glyph-name="Q" unicode="Q" horiz-adv-x="823" 
d="M680.893 150.238c-1.57324 -2.30664 -1.7207 -5.59668 -3.50586 -11.8408c16.4248 -21.2988 34.1367 -44.2686 55.1016 -71.4521c-23.6133 -20.9238 -45.0098 -39.8916 -71.9648 -63.7822c-18.8535 25.3008 -34.626 46.4688 -44.9375 60.3008
c-54.5059 -17.7939 -97.7637 -36.6396 -142.978 -45.7686c-131.297 -26.5156 -242.062 9.44727 -325.545 117.799c-16.1631 20.9893 -34.3887 40.8203 -47.6748 63.5127c-68.4121 116.861 -67.3115 236.364 -3.89648 353.82c17.6797 32.751 45.5889 62.7139 75.1855 85.7568
c78.543 61.1328 170.43 89.0986 269.433 81.4287c63.5459 -4.92285 120.595 -34.7881 177.579 -63.667c78.1934 -39.6309 116.251 -111.621 140.924 -185.682c32.6367 -98 16.1064 -195.747 -49.5586 -280.714c-9.91992 -12.8301 -18.9844 -26.3281 -28.1621 -39.7119z
M627.299 286.56c33.7451 53.7559 30.8262 108.979 8.60645 165.588c-38.4404 97.9678 -113.666 150.021 -201.037 155.498c-115.606 3.1543 -207.754 -65.9424 -236.869 -177.864c-2.9668 -11.4033 -3.23535 -23.6621 -7.26172 -34.5928
c-17.125 -46.4688 0.236328 -87.0117 21.7305 -126.227c10.5723 -19.2939 24.4453 -36.9326 38.0088 -54.4004c80.915 -104.228 195.348 -109.225 297.676 -43.3066c41.0078 26.418 54.2861 75.6992 79.1465 115.305z" />
    <glyph glyph-name="R" unicode="R" horiz-adv-x="570" 
d="M414.854 185.626c38.4727 -31.8867 77.2393 -63.1074 106.941 -106.047c-21.7305 -26.3682 -41.1465 -49.9326 -62.918 -76.3506c-95.2285 79.8721 -188.191 157.829 -287.528 241.141v-232.247c-42.5732 -23.7441 -73.001 -24.8037 -123.35 -4.31152
c4.81738 220.168 9.69141 442.699 14.6064 667.195c8.08594 2.5918 16.0332 6.60254 24.3311 7.53223c32.1885 3.60254 64.4502 6.68359 96.7451 9.1123c54.1885 4.0752 107.627 -6.74902 154.903 -29.3682c95.5791 -45.7354 148.414 -171.106 95.457 -280.225
c-17.8672 -36.8184 -48.5967 -66.6348 -91.2432 -78.918c-12.2344 -3.5293 -24.1025 -8.32227 -44.5781 -15.4951c42.2627 -37.1201 78.6494 -70.5391 116.633 -102.019zM177.193 360.97c39.8994 6.58594 73.498 9.25098 105.409 18.0293
c61.6709 16.9463 84.9336 58.7695 70.5635 120.375c-9.28418 39.8018 -33.2402 70.8086 -69.7646 85.5537c-33.3301 13.457 -69.8955 32.1963 -106.208 8.91699v-232.875z" />
    <glyph glyph-name="S" unicode="S" horiz-adv-x="535" 
d="M409.489 314.042c76.375 -55.5898 75.9238 -170.481 28.3867 -239.081c-53.4951 -77.1738 -145.309 -99.377 -225.58 -61.1973c-55.5498 26.418 -98.6201 69.4307 -150.926 99.5322c-14.5498 8.37109 -17.6553 24.4287 -7.18945 38.6445
c15.5361 21.0947 32.7998 40.9258 51.4004 63.8467c50.1943 -31.0225 93.7051 -58.6875 138.022 -85.0068c23.6709 -14.0605 48.6943 -19.9209 75.5439 -5.60742c26.418 14.085 36.8594 33.1582 28.1621 61.2305c-8.94141 28.8389 -24.502 53.333 -50.9111 70.3281
c-37.2256 23.9561 -74.3369 48.1729 -110.381 73.8564c-45.499 32.417 -89.8408 65.5264 -119.755 115.37c-23.6377 39.3857 -18.8369 75.8125 -0.733398 113.413c35.5879 73.9141 126.13 118.867 206.654 105.711c80.8174 -13.2051 150.859 -47.1465 214.503 -106.005
c-19.3262 -24.3145 -39.0518 -49.1348 -58.4346 -73.5225c-45.418 24.0293 -87.249 48.4014 -131.004 68.6162c-36.3213 16.7832 -58.0762 10.1895 -83.4014 -17.2881c-27.3545 -29.6777 -24.8926 -67.8486 7.14941 -92.1465
c16.375 -12.4141 33.7207 -23.9395 51.8408 -33.5986c49.8516 -26.5967 91.4707 -64.2061 136.652 -97.0957z" />
    <glyph glyph-name="T" unicode="T" horiz-adv-x="552" 
d="M350.159 20.4697c0.179688 -6.76562 -3.69434 -13.6406 -7.59082 -26.9189c-32.123 1.75293 -61.1738 3.7666 -90.2646 4.79395c-23.4668 0.823242 -34.1279 11.8682 -35.4814 35.5791c-2.26562 39.6797 -7.38477 79.1963 -9.72363 118.876
c-2.76367 46.8848 -9.34961 94.4541 -4.49121 140.695c8.94141 85.1133 -14.9658 171.14 9.43848 255.503c2.6084 9.02344 -0.716797 19.7666 -1.4668 32.6611h-148.927c-4.6543 34.3408 -8.77832 64.6953 -13.6523 100.617c14.4922 2.5918 28.1123 7.00195 41.79 7.15723
c116.796 1.33691 233.608 2.12793 350.413 2.6084c49.7217 0.204102 62.8613 -12.9023 63.334 -62.5342c0.138672 -14.5332 -2.31445 -29.0986 -4.11621 -49.7861c-27.3145 -3.26855 -54.4004 -7.74316 -81.6572 -9.42188
c-26.1807 -1.62207 -52.5332 -0.350586 -79.5947 -0.350586c3.1875 -72.2998 -4.97168 -138.438 4.77734 -206.214c10.3516 -71.9492 1.87402 -146.539 2.70508 -219.964c0.464844 -41.1143 3.44043 -82.1875 4.50781 -123.302z" />
    <glyph glyph-name="U" unicode="U" 
d="M562.705 576.374c3.86328 -97.4375 7.19043 -195.063 5.19336 -292.509c-1.01074 -49.542 -9.95215 -99.9072 -22.6348 -147.966c-13.4736 -51.0908 -42.5244 -94.7881 -95.5547 -114.358c-24.8037 -9.15332 -51.4336 -13.335 -77.1992 -19.9209
c-91.3242 -23.3447 -169.109 11.0283 -239.094 63.04c-24.0537 17.8838 -40.9023 50.6914 -51.6621 80.1162c-22.415 61.3125 -25.1943 126.717 -30.7861 191.615c-8.54199 99.166 4.06738 197.598 4.23047 296.389c0.0566406 33.9658 1.71973 36.5176 37.0059 42.3291
c22.7412 3.74121 46.3633 5.2002 69.3164 3.62695c20.043 -1.36914 30.7207 -14.5986 28.8867 -36.6309c-2.80371 -33.8027 -0.87207 -68.3555 -7.05859 -101.448c-20.7529 -110.969 -6.17871 -220.657 9.14551 -330.224c3.1709 -22.6924 15.3076 -44.4883 25.5127 -65.6406
c4.14844 -8.59082 12.9756 -17.7607 21.7139 -20.793c29.0586 -10.0908 58.5732 -21.0703 88.7891 -25.0645c38.6523 -5.11914 90.6475 42.1084 105.156 87.4932c16.2451 50.8301 9.74023 102.116 7.91406 153.826c-3.60254 101.863 -4.62109 203.833 -5.72949 305.77
c-0.155273 14.2646 5.24023 28.5781 8.76172 46.3799h95.457c17.4023 -37.21 21.0869 -77.0439 22.6357 -116.03z" />
    <glyph glyph-name="U" unicode="&#xdc;" 
d="M562.705 576.374c3.86328 -97.4375 7.19043 -195.063 5.19336 -292.509c-1.01074 -49.542 -9.95215 -99.9072 -22.6348 -147.966c-13.4736 -51.0908 -42.5244 -94.7881 -95.5547 -114.358c-24.8037 -9.15332 -51.4336 -13.335 -77.1992 -19.9209
c-91.3242 -23.3447 -169.109 11.0283 -239.094 63.04c-24.0537 17.8838 -40.9023 50.6914 -51.6621 80.1162c-22.415 61.3125 -25.1943 126.717 -30.7861 191.615c-8.54199 99.166 4.06738 197.598 4.23047 296.389c0.0566406 33.9658 1.71973 36.5176 37.0059 42.3291
c22.7412 3.74121 46.3633 5.2002 69.3164 3.62695c20.043 -1.36914 30.7207 -14.5986 28.8867 -36.6309c-2.80371 -33.8027 -0.87207 -68.3555 -7.05859 -101.448c-20.7529 -110.969 -6.17871 -220.657 9.14551 -330.224c3.1709 -22.6924 15.3076 -44.4883 25.5127 -65.6406
c4.14844 -8.59082 12.9756 -17.7607 21.7139 -20.793c29.0586 -10.0908 58.5732 -21.0703 88.7891 -25.0645c38.6523 -5.11914 90.6475 42.1084 105.156 87.4932c16.2451 50.8301 9.74023 102.116 7.91406 153.826c-3.60254 101.863 -4.62109 203.833 -5.72949 305.77
c-0.155273 14.2646 5.24023 28.5781 8.76172 46.3799h95.457c17.4023 -37.21 21.0869 -77.0439 22.6357 -116.03z" />
    <glyph glyph-name="U" unicode="&#xdb;" 
d="M562.705 576.374c3.86328 -97.4375 7.19043 -195.063 5.19336 -292.509c-1.01074 -49.542 -9.95215 -99.9072 -22.6348 -147.966c-13.4736 -51.0908 -42.5244 -94.7881 -95.5547 -114.358c-24.8037 -9.15332 -51.4336 -13.335 -77.1992 -19.9209
c-91.3242 -23.3447 -169.109 11.0283 -239.094 63.04c-24.0537 17.8838 -40.9023 50.6914 -51.6621 80.1162c-22.415 61.3125 -25.1943 126.717 -30.7861 191.615c-8.54199 99.166 4.06738 197.598 4.23047 296.389c0.0566406 33.9658 1.71973 36.5176 37.0059 42.3291
c22.7412 3.74121 46.3633 5.2002 69.3164 3.62695c20.043 -1.36914 30.7207 -14.5986 28.8867 -36.6309c-2.80371 -33.8027 -0.87207 -68.3555 -7.05859 -101.448c-20.7529 -110.969 -6.17871 -220.657 9.14551 -330.224c3.1709 -22.6924 15.3076 -44.4883 25.5127 -65.6406
c4.14844 -8.59082 12.9756 -17.7607 21.7139 -20.793c29.0586 -10.0908 58.5732 -21.0703 88.7891 -25.0645c38.6523 -5.11914 90.6475 42.1084 105.156 87.4932c16.2451 50.8301 9.74023 102.116 7.91406 153.826c-3.60254 101.863 -4.62109 203.833 -5.72949 305.77
c-0.155273 14.2646 5.24023 28.5781 8.76172 46.3799h95.457c17.4023 -37.21 21.0869 -77.0439 22.6357 -116.03z" />
    <glyph glyph-name="U" unicode="&#xda;" 
d="M562.705 576.374c3.86328 -97.4375 7.19043 -195.063 5.19336 -292.509c-1.01074 -49.542 -9.95215 -99.9072 -22.6348 -147.966c-13.4736 -51.0908 -42.5244 -94.7881 -95.5547 -114.358c-24.8037 -9.15332 -51.4336 -13.335 -77.1992 -19.9209
c-91.3242 -23.3447 -169.109 11.0283 -239.094 63.04c-24.0537 17.8838 -40.9023 50.6914 -51.6621 80.1162c-22.415 61.3125 -25.1943 126.717 -30.7861 191.615c-8.54199 99.166 4.06738 197.598 4.23047 296.389c0.0566406 33.9658 1.71973 36.5176 37.0059 42.3291
c22.7412 3.74121 46.3633 5.2002 69.3164 3.62695c20.043 -1.36914 30.7207 -14.5986 28.8867 -36.6309c-2.80371 -33.8027 -0.87207 -68.3555 -7.05859 -101.448c-20.7529 -110.969 -6.17871 -220.657 9.14551 -330.224c3.1709 -22.6924 15.3076 -44.4883 25.5127 -65.6406
c4.14844 -8.59082 12.9756 -17.7607 21.7139 -20.793c29.0586 -10.0908 58.5732 -21.0703 88.7891 -25.0645c38.6523 -5.11914 90.6475 42.1084 105.156 87.4932c16.2451 50.8301 9.74023 102.116 7.91406 153.826c-3.60254 101.863 -4.62109 203.833 -5.72949 305.77
c-0.155273 14.2646 5.24023 28.5781 8.76172 46.3799h95.457c17.4023 -37.21 21.0869 -77.0439 22.6357 -116.03z" />
    <glyph glyph-name="U" unicode="&#xd9;" 
d="M562.705 576.374c3.86328 -97.4375 7.19043 -195.063 5.19336 -292.509c-1.01074 -49.542 -9.95215 -99.9072 -22.6348 -147.966c-13.4736 -51.0908 -42.5244 -94.7881 -95.5547 -114.358c-24.8037 -9.15332 -51.4336 -13.335 -77.1992 -19.9209
c-91.3242 -23.3447 -169.109 11.0283 -239.094 63.04c-24.0537 17.8838 -40.9023 50.6914 -51.6621 80.1162c-22.415 61.3125 -25.1943 126.717 -30.7861 191.615c-8.54199 99.166 4.06738 197.598 4.23047 296.389c0.0566406 33.9658 1.71973 36.5176 37.0059 42.3291
c22.7412 3.74121 46.3633 5.2002 69.3164 3.62695c20.043 -1.36914 30.7207 -14.5986 28.8867 -36.6309c-2.80371 -33.8027 -0.87207 -68.3555 -7.05859 -101.448c-20.7529 -110.969 -6.17871 -220.657 9.14551 -330.224c3.1709 -22.6924 15.3076 -44.4883 25.5127 -65.6406
c4.14844 -8.59082 12.9756 -17.7607 21.7139 -20.793c29.0586 -10.0908 58.5732 -21.0703 88.7891 -25.0645c38.6523 -5.11914 90.6475 42.1084 105.156 87.4932c16.2451 50.8301 9.74023 102.116 7.91406 153.826c-3.60254 101.863 -4.62109 203.833 -5.72949 305.77
c-0.155273 14.2646 5.24023 28.5781 8.76172 46.3799h95.457c17.4023 -37.21 21.0869 -77.0439 22.6357 -116.03z" />
    <glyph glyph-name="V" unicode="V" horiz-adv-x="647" 
d="M579.448 670.153c5.31445 -2.07031 10.1797 -5.29102 19.1621 -10.0752c-79.8477 -224.985 -159.41 -449.18 -238.476 -671.972c-56.7148 -5.68164 -59.7148 0.129883 -82.2686 46.7539c-41.2275 85.2432 -74.9404 173.111 -105.768 262.414
c-35.1387 101.79 -71.7939 203.051 -107.813 304.531c-4.38574 12.3408 -8.94238 24.624 -16.2861 44.8301c26.915 13.751 49.5098 27.1104 73.5312 37.0225c20.916 8.62402 28.7656 -7.78418 34.4717 -23.9561c19.1387 -54.2041 37.2588 -108.783 57.2939 -162.653
c34.21 -91.9922 69.5615 -183.553 113.602 -276.222c24.0703 59.8291 48.2949 119.584 72.1777 179.486c34.4141 86.3281 68.0615 172.974 103.151 259.024c11.4111 27.9824 17.9805 29.5879 48.0576 20.8662c9.8623 -2.86133 19.5869 -6.31738 29.1641 -10.0508z" />
    <glyph glyph-name="W" unicode="W" horiz-adv-x="1048" 
d="M998.307 635.997c1.36133 -2.38867 2.16406 -11.2715 0.664062 -17.1807c-3.45605 -13.4814 -10.2129 -29.7676 -16.7422 -45.5234c-5.08594 -12.2588 -9.88672 -23.8252 -13.2695 -34.25l-25.374 -78.1191c-32.4658 -99.9648 -66.0234 -203.328 -99.5566 -304.816
c-10.6455 -32.2051 -22.1543 -63.8232 -34.3398 -97.291c-5.2002 -14.2646 -10.4824 -28.7656 -15.7969 -43.6172l-20.4756 -0.0078125c-18.5439 -0.0244141 -36.7451 -0.0322266 -54.9219 0.0332031c-17.3213 0.0566406 -26.124 7.69434 -30.3955 26.3438
c-19.4648 84.9014 -47.8467 158.057 -86.752 223.64c-7.2793 12.2676 -11.8271 26.0508 -16.6523 40.6416c-2.66504 8.02832 -5.41211 16.3428 -8.63965 24.3311c-5.2002 12.8701 -10.9795 25.6914 -16.5625 38.0977c-2.49414 5.53418 -4.98047 11.0684 -7.43359 16.627
l-1.71973 3.8877l-17.3945 -1.03516l-1.38574 -3.7334c-3.92871 -10.6211 -8.04492 -21.1846 -12.1533 -31.748c-8.92578 -22.9287 -18.1445 -46.6484 -25.3994 -70.6455c-18.0381 -59.6816 -35.5137 -120.603 -52.4111 -179.519
c-7.97949 -27.8359 -15.9678 -55.6719 -24.0371 -83.4834c-5.53418 -19.1064 -18.3555 -28.0234 -40.3223 -28.0234h-0.512695c-11.7373 0.0732422 -23.4746 0.0976562 -35.5303 0.0976562c-8.86035 0 -17.8994 -0.0166016 -27.2402 -0.0244141l-26.9307 -0.0244141
l-12.6094 33.248c-10.2217 26.9307 -20.5 53.9922 -30.6562 81.1025c-13.5879 36.2881 -27.1182 72.6006 -40.6406 108.913c-30.208 81.1025 -61.4512 164.969 -92.9551 247.172c-9.70801 25.3252 -21.3965 50.2588 -32.71 74.3691
c-6.09668 13.0088 -12.2021 26.0176 -18.0303 39.1406c-18.4375 41.5137 -16.9619 46.127 22.4814 70.5479l1.34473 0.831055c11.7861 7.30371 23.9805 14.8594 36.5254 20.6875c18.9512 8.80273 34.2266 10.832 46.6729 6.18555
c11.7217 -4.36914 21.0957 -14.6885 28.668 -31.5527c17.9482 -39.9648 33.6475 -81.8613 48.8252 -122.38c3.66797 -9.79785 7.33594 -19.5869 11.0361 -29.3604c5.27344 -13.9141 10.0576 -28.3496 14.6797 -42.3125c4.44238 -13.4414 9.04785 -27.3311 14.1182 -40.8613
c11.8271 -31.5605 24.29 -63.4062 37.4707 -97.127c5.88477 -15.0469 11.9814 -30.6318 18.3477 -47.0234l6.59375 -16.9541l4.98828 17.4922c2.52637 8.86816 4.71094 17.0107 6.75684 24.624c3.97754 14.8428 7.41699 27.6562 11.8594 39.9805
c20.1416 55.9238 40.5029 111.774 60.8643 167.625c17.0361 46.7383 34.0723 93.4678 50.9775 140.247c7.49902 20.7529 17.6064 30.4932 30.2324 28.9521c4.49902 -0.554688 9.20996 -0.856445 13.9941 -1.1582c20.8096 -1.3125 40.4697 -2.55957 49.46 -25.2354
c4.87402 -12.292 9.55273 -24.665 14.2393 -37.0381c5.61621 -14.8516 11.4277 -30.208 17.4922 -45.1982c26.1162 -64.5156 52.3955 -128.958 79.8076 -196.204l40.4697 -99.2959l164.708 406.387c37.7227 7.66992 67.7432 -9.04785 96.7939 -25.2197
c3.19531 -1.78516 6.34961 -3.5459 9.47949 -5.24121z" />
    <glyph glyph-name="X" unicode="X" horiz-adv-x="777" 
d="M716.421 119.723c16.3916 -16.2373 16.4014 -31.2812 1.72168 -50.1914c-52.0361 -67.0508 -69.7725 -68.7793 -131.207 -10.4102c-64.1816 60.9775 -128.771 121.523 -196.172 185.069c-68.9902 -83.0752 -136.636 -164.545 -204.762 -246.577
c-39.5166 12.3896 -69.4473 34.3564 -96.3291 64.002c72.5928 92.4902 143.963 183.439 213.394 271.911c-87.1514 98.8311 -170.96 193.881 -255.062 289.248c16.8242 33.8838 43.8691 52.0195 70.2295 70.1719c18.4541 12.707 32.7676 2.08594 46.1357 -11.958
c49.8359 -52.3545 100.233 -104.179 150.306 -156.305c23.4746 -24.4365 46.7051 -49.1182 74.5977 -78.4785c27.1836 34.3564 52.167 64.2627 75.2666 95.5547c28.0312 37.959 53.9678 77.4668 81.7705 115.605c21.4531 29.4336 36.9316 31.8867 66.2344 10.1807
c22.8799 -16.9463 55.0762 -26.6055 55.0273 -62.6572c-64.9883 -82.1221 -129.634 -163.82 -195.959 -247.638c74.4189 -71.876 145.545 -140.532 216.605 -209.262c9.56152 -9.25098 18.748 -18.9014 28.2031 -28.2666z" />
    <glyph glyph-name="Y" unicode="Y" horiz-adv-x="613" 
d="M499.776 661.235c76.2939 -22.668 79.3906 -30.9229 38.8877 -97.3623c-49.208 -80.6875 -96.8018 -162.386 -147.559 -242.087c-19.8965 -31.2432 -16.1875 -65.249 -20.0352 -98.0488c-8.41211 -71.6396 -12.6748 -143.769 -18.7959 -215.686
c-0.480469 -5.66504 -2.29004 -11.208 -3.27637 -15.8545c-4.08398 -2.10254 -6.55371 -4.2627 -9.27637 -4.6543c-69.0146 -9.8877 -78.7549 -2.17676 -77.7607 65.9092c0.839844 57.5059 3.17871 114.995 5.50977 172.46c1.11621 27.4121 -5.75488 49.9902 -22.041 73.832
c-40.7148 59.584 -76.5303 122.519 -114.425 184.034c-24.7383 40.1523 -49.8438 80.0762 -74.3457 120.367c-3.67578 6.04785 -4.98828 13.5391 -8.65625 23.9639c19.6523 15.5605 38.4404 31.7646 58.6143 46.0205c17.2969 12.2188 26.8828 -1.51562 34.9854 -14.1582
c25.4717 -39.7529 50.0312 -80.1084 75.8623 -119.625c29.8496 -45.6699 60.6846 -90.6885 92.8486 -138.601c71.7861 79.9863 117.774 175.117 180.48 257.622c3.50488 0.791016 6.61035 2.56836 8.98242 1.86719z" />
    <glyph glyph-name="Y" unicode="&#x178;" horiz-adv-x="613" 
d="M499.776 661.235c76.2939 -22.668 79.3906 -30.9229 38.8877 -97.3623c-49.208 -80.6875 -96.8018 -162.386 -147.559 -242.087c-19.8965 -31.2432 -16.1875 -65.249 -20.0352 -98.0488c-8.41211 -71.6396 -12.6748 -143.769 -18.7959 -215.686
c-0.480469 -5.66504 -2.29004 -11.208 -3.27637 -15.8545c-4.08398 -2.10254 -6.55371 -4.2627 -9.27637 -4.6543c-69.0146 -9.8877 -78.7549 -2.17676 -77.7607 65.9092c0.839844 57.5059 3.17871 114.995 5.50977 172.46c1.11621 27.4121 -5.75488 49.9902 -22.041 73.832
c-40.7148 59.584 -76.5303 122.519 -114.425 184.034c-24.7383 40.1523 -49.8438 80.0762 -74.3457 120.367c-3.67578 6.04785 -4.98828 13.5391 -8.65625 23.9639c19.6523 15.5605 38.4404 31.7646 58.6143 46.0205c17.2969 12.2188 26.8828 -1.51562 34.9854 -14.1582
c25.4717 -39.7529 50.0312 -80.1084 75.8623 -119.625c29.8496 -45.6699 60.6846 -90.6885 92.8486 -138.601c71.7861 79.9863 117.774 175.117 180.48 257.622c3.50488 0.791016 6.61035 2.56836 8.98242 1.86719z" />
    <glyph glyph-name="Y" unicode="&#xdd;" horiz-adv-x="613" 
d="M499.776 661.235c76.2939 -22.668 79.3906 -30.9229 38.8877 -97.3623c-49.208 -80.6875 -96.8018 -162.386 -147.559 -242.087c-19.8965 -31.2432 -16.1875 -65.249 -20.0352 -98.0488c-8.41211 -71.6396 -12.6748 -143.769 -18.7959 -215.686
c-0.480469 -5.66504 -2.29004 -11.208 -3.27637 -15.8545c-4.08398 -2.10254 -6.55371 -4.2627 -9.27637 -4.6543c-69.0146 -9.8877 -78.7549 -2.17676 -77.7607 65.9092c0.839844 57.5059 3.17871 114.995 5.50977 172.46c1.11621 27.4121 -5.75488 49.9902 -22.041 73.832
c-40.7148 59.584 -76.5303 122.519 -114.425 184.034c-24.7383 40.1523 -49.8438 80.0762 -74.3457 120.367c-3.67578 6.04785 -4.98828 13.5391 -8.65625 23.9639c19.6523 15.5605 38.4404 31.7646 58.6143 46.0205c17.2969 12.2188 26.8828 -1.51562 34.9854 -14.1582
c25.4717 -39.7529 50.0312 -80.1084 75.8623 -119.625c29.8496 -45.6699 60.6846 -90.6885 92.8486 -138.601c71.7861 79.9863 117.774 175.117 180.48 257.622c3.50488 0.791016 6.61035 2.56836 8.98242 1.86719z" />
    <glyph glyph-name="Z" unicode="Z" horiz-adv-x="593" 
d="M526.067 92.3662c23.793 -30.9736 10.9414 -61.0996 16.0273 -94.2178c-20.3047 -4.50781 -38.3516 -12.2188 -56.2598 -11.8926c-116.079 2.13574 -232.134 6.05664 -348.196 9.29297c-14.541 0.407227 -29.1396 -0.448242 -43.6406 0.464844
c-43.7139 2.76367 -57.8232 32.1729 -35.6035 68.502c52.3623 85.627 103.673 171.897 154.674 258.339c42.0508 71.2646 83.9717 142.521 138.266 205.537c4.54785 5.27344 7.28613 12.1045 16.4727 27.7627h-258.046c-4.54785 32.4248 -8.53418 60.8799 -12.9932 92.6523
c17.9893 3.80664 31.9688 8.69727 46.168 9.44727c70.7266 3.74121 141.51 6.33301 212.269 9.46289c42.2627 1.86621 84.5908 2.97461 126.74 6.32422c35.5469 2.82031 49.4365 -19.7666 62.1436 -47.5049c-51.4248 -87.6074 -102.385 -175.614 -154.519 -262.92
c-51.9951 -87.0527 -105.164 -173.405 -159.229 -262.382c99.4912 -2.9834 198.869 -5.9668 295.728 -8.86816z" />
    <glyph glyph-name="a" unicode="a" horiz-adv-x="699" 
d="M635.721 63.1055c4.97168 -13.6201 9.3252 -27.46 14.4277 -42.5723c-24.8281 -10.9551 -47.0967 -22.2441 -70.4004 -30.7051c-28.0557 -10.1807 -42.8984 -4.4834 -56.5918 23.5234c-21.3555 43.6729 -40.5352 88.4062 -60.4648 132.772
c-6.57812 14.6475 -12.6016 29.5479 -20.1982 47.4229c-65.7461 -5.13477 -131.085 -10.2373 -193.285 -15.0957c-38.7256 -67.7842 -74.4434 -130.311 -110.341 -193.139c-36.8916 0.725586 -59.0215 26.9961 -83.2949 47.1621
c-7.23047 6.00684 -9.39062 25.0234 -6.00781 35.5547c8.05371 25.0967 19.832 49.1748 31.8057 72.8047c75.3887 148.781 151.234 297.342 226.966 445.951c8.02051 15.7393 17.9482 30.7373 24.0859 47.1621c9.67578 25.8711 29.2305 29.9062 53.0889 29.9473
c25.0234 0.0488281 36.4834 -13.4248 44.3242 -35.335c40.7715 -113.862 82.3252 -227.438 123.74 -341.064c27.2734 -74.835 54.8398 -149.563 82.1455 -224.39zM284.004 282.06c44.9287 0 84.0371 -0.000976562 128.338 0.00683594
c-9.62598 25.79 -18.5352 48.5234 -26.5889 71.5586c-8.41211 24.0781 -16.001 48.458 -23.9482 72.707c-2.85254 0.170898 -5.69727 0.350586 -8.5498 0.530273c-22.3584 -46.7461 -44.7168 -93.4922 -69.251 -144.803z" />
    <glyph glyph-name="a" unicode="&#xe5;" horiz-adv-x="699" 
d="M635.721 63.1055c4.97168 -13.6201 9.3252 -27.46 14.4277 -42.5723c-24.8281 -10.9551 -47.0967 -22.2441 -70.4004 -30.7051c-28.0557 -10.1807 -42.8984 -4.4834 -56.5918 23.5234c-21.3555 43.6729 -40.5352 88.4062 -60.4648 132.772
c-6.57812 14.6475 -12.6016 29.5479 -20.1982 47.4229c-65.7461 -5.13477 -131.085 -10.2373 -193.285 -15.0957c-38.7256 -67.7842 -74.4434 -130.311 -110.341 -193.139c-36.8916 0.725586 -59.0215 26.9961 -83.2949 47.1621
c-7.23047 6.00684 -9.39062 25.0234 -6.00781 35.5547c8.05371 25.0967 19.832 49.1748 31.8057 72.8047c75.3887 148.781 151.234 297.342 226.966 445.951c8.02051 15.7393 17.9482 30.7373 24.0859 47.1621c9.67578 25.8711 29.2305 29.9062 53.0889 29.9473
c25.0234 0.0488281 36.4834 -13.4248 44.3242 -35.335c40.7715 -113.862 82.3252 -227.438 123.74 -341.064c27.2734 -74.835 54.8398 -149.563 82.1455 -224.39zM284.004 282.06c44.9287 0 84.0371 -0.000976562 128.338 0.00683594
c-9.62598 25.79 -18.5352 48.5234 -26.5889 71.5586c-8.41211 24.0781 -16.001 48.458 -23.9482 72.707c-2.85254 0.170898 -5.69727 0.350586 -8.5498 0.530273c-22.3584 -46.7461 -44.7168 -93.4922 -69.251 -144.803z" />
    <glyph glyph-name="a" unicode="&#xe3;" horiz-adv-x="699" 
d="M635.721 63.1055c4.97168 -13.6201 9.3252 -27.46 14.4277 -42.5723c-24.8281 -10.9551 -47.0967 -22.2441 -70.4004 -30.7051c-28.0557 -10.1807 -42.8984 -4.4834 -56.5918 23.5234c-21.3555 43.6729 -40.5352 88.4062 -60.4648 132.772
c-6.57812 14.6475 -12.6016 29.5479 -20.1982 47.4229c-65.7461 -5.13477 -131.085 -10.2373 -193.285 -15.0957c-38.7256 -67.7842 -74.4434 -130.311 -110.341 -193.139c-36.8916 0.725586 -59.0215 26.9961 -83.2949 47.1621
c-7.23047 6.00684 -9.39062 25.0234 -6.00781 35.5547c8.05371 25.0967 19.832 49.1748 31.8057 72.8047c75.3887 148.781 151.234 297.342 226.966 445.951c8.02051 15.7393 17.9482 30.7373 24.0859 47.1621c9.67578 25.8711 29.2305 29.9062 53.0889 29.9473
c25.0234 0.0488281 36.4834 -13.4248 44.3242 -35.335c40.7715 -113.862 82.3252 -227.438 123.74 -341.064c27.2734 -74.835 54.8398 -149.563 82.1455 -224.39zM284.004 282.06c44.9287 0 84.0371 -0.000976562 128.338 0.00683594
c-9.62598 25.79 -18.5352 48.5234 -26.5889 71.5586c-8.41211 24.0781 -16.001 48.458 -23.9482 72.707c-2.85254 0.170898 -5.69727 0.350586 -8.5498 0.530273c-22.3584 -46.7461 -44.7168 -93.4922 -69.251 -144.803z" />
    <glyph glyph-name="a" unicode="&#xe1;" horiz-adv-x="699" 
d="M635.721 63.1055c4.97168 -13.6201 9.3252 -27.46 14.4277 -42.5723c-24.8281 -10.9551 -47.0967 -22.2441 -70.4004 -30.7051c-28.0557 -10.1807 -42.8984 -4.4834 -56.5918 23.5234c-21.3555 43.6729 -40.5352 88.4062 -60.4648 132.772
c-6.57812 14.6475 -12.6016 29.5479 -20.1982 47.4229c-65.7461 -5.13477 -131.085 -10.2373 -193.285 -15.0957c-38.7256 -67.7842 -74.4434 -130.311 -110.341 -193.139c-36.8916 0.725586 -59.0215 26.9961 -83.2949 47.1621
c-7.23047 6.00684 -9.39062 25.0234 -6.00781 35.5547c8.05371 25.0967 19.832 49.1748 31.8057 72.8047c75.3887 148.781 151.234 297.342 226.966 445.951c8.02051 15.7393 17.9482 30.7373 24.0859 47.1621c9.67578 25.8711 29.2305 29.9062 53.0889 29.9473
c25.0234 0.0488281 36.4834 -13.4248 44.3242 -35.335c40.7715 -113.862 82.3252 -227.438 123.74 -341.064c27.2734 -74.835 54.8398 -149.563 82.1455 -224.39zM284.004 282.06c44.9287 0 84.0371 -0.000976562 128.338 0.00683594
c-9.62598 25.79 -18.5352 48.5234 -26.5889 71.5586c-8.41211 24.0781 -16.001 48.458 -23.9482 72.707c-2.85254 0.170898 -5.69727 0.350586 -8.5498 0.530273c-22.3584 -46.7461 -44.7168 -93.4922 -69.251 -144.803z" />
    <glyph glyph-name="b" unicode="b" horiz-adv-x="549" 
d="M398.132 374.039c95.5869 -51.2539 130.198 -154.301 79.7354 -252.48c-11.0205 -21.4531 -28.5449 -42.4336 -48.3027 -56.0293c-74.0605 -50.96 -156.524 -74.1416 -247.14 -64.5068c-15.585 1.66309 -31.5117 -0.178711 -47.2354 0.620117
c-23.2227 1.18164 -46.3965 3.27637 -72.9609 5.22461c-18.3076 226.9 -14.8271 450.41 -11.7949 680.669c13.4004 2.83691 31.4141 10.0176 49.3379 9.78906c48.6211 -0.619141 97.4219 -2.29785 145.725 -7.49023c46.3711 -4.98047 91.6094 -22.4648 123.333 -55.1836
c39.8828 -41.1299 60.0645 -95.5459 54.2041 -154.192c-3.45605 -34.5684 -15.6504 -68.2646 -24.9014 -106.42zM149.527 604.591c-12.6338 -58.4756 -13.0811 -171.415 -2.24805 -206.277c29.5879 0 59.4863 -3.05664 88.5039 0.68457
c49.4521 6.37402 84.9258 45.8086 87.3789 91.332c2.93457 54.4893 -24.7549 93.6143 -79.6768 105.286c-30.8848 6.56152 -63.2285 6.26855 -93.958 8.97461zM365.262 154.41c17.4512 21.2168 22.001 54.1553 8.52734 74.2314
c-16.5957 24.7305 -35.5059 48.2793 -67.0264 54.5391c-51.7188 10.2705 -103.649 19.4482 -163.372 30.5498c4.13281 -78.0547 7.74414 -146.295 11.4043 -215.562c47.3408 5.35547 91.0137 10.7188 134.793 15.0879c31.2676 3.11328 56.0791 17.3291 75.6738 41.1543z" />
    <glyph glyph-name="c" unicode="c" horiz-adv-x="696" 
d="M325.049 561.291c-97.1523 -47.7734 -144.811 -130.894 -163.827 -233.295c-6.41504 -34.5605 0.146484 -69.3252 20.7607 -97.3896c48.7754 -66.3984 110.821 -110.634 196.276 -122.893c73.9219 -10.6045 131.688 17.1006 188.974 60.6357
c27.6729 -20.9238 52.7617 -42.1084 62.543 -79.334c-29.8086 -28.8467 -61.0273 -54.8242 -101.75 -67.4912c-50.6094 -15.7393 -100.894 -30.1914 -154.698 -33.9902c-84.2324 -5.9502 -149.922 30.4033 -205.896 85.6426
c-50.8711 50.21 -87.2412 111.881 -108.222 180.741c-14.3945 47.2188 -15.9102 95.6113 1.23145 143.263c17.9238 49.8271 33.126 100.804 54.1152 149.294c19.2119 44.3984 52.8916 76.6191 98.3584 97.2246c36.0928 16.3506 69.4629 37.7715 109.664 45.2461
c41.5459 7.72754 81.0049 9.02344 121.279 -7.57227c36.5986 -15.0791 76.6123 -22.3174 112.313 -39.0107c28.667 -13.4004 53.7725 -34.9521 79.2529 -54.458c18.25 -13.9707 14.1416 -29.792 -0.155273 -45.4912c-12.9189 -14.1826 -24.4121 -29.6611 -35.2363 -42.9717
c-53.1123 24.9668 -94.707 46.9746 -138.177 64.2793c-45.0186 17.9238 -91.7402 19.7334 -136.808 -2.42969z" />
    <glyph glyph-name="c" unicode="&#xe7;" horiz-adv-x="696" 
d="M325.049 561.291c-97.1523 -47.7734 -144.811 -130.894 -163.827 -233.295c-6.41504 -34.5605 0.146484 -69.3252 20.7607 -97.3896c48.7754 -66.3984 110.821 -110.634 196.276 -122.893c73.9219 -10.6045 131.688 17.1006 188.974 60.6357
c27.6729 -20.9238 52.7617 -42.1084 62.543 -79.334c-29.8086 -28.8467 -61.0273 -54.8242 -101.75 -67.4912c-50.6094 -15.7393 -100.894 -30.1914 -154.698 -33.9902c-84.2324 -5.9502 -149.922 30.4033 -205.896 85.6426
c-50.8711 50.21 -87.2412 111.881 -108.222 180.741c-14.3945 47.2188 -15.9102 95.6113 1.23145 143.263c17.9238 49.8271 33.126 100.804 54.1152 149.294c19.2119 44.3984 52.8916 76.6191 98.3584 97.2246c36.0928 16.3506 69.4629 37.7715 109.664 45.2461
c41.5459 7.72754 81.0049 9.02344 121.279 -7.57227c36.5986 -15.0791 76.6123 -22.3174 112.313 -39.0107c28.667 -13.4004 53.7725 -34.9521 79.2529 -54.458c18.25 -13.9707 14.1416 -29.792 -0.155273 -45.4912c-12.9189 -14.1826 -24.4121 -29.6611 -35.2363 -42.9717
c-53.1123 24.9668 -94.707 46.9746 -138.177 64.2793c-45.0186 17.9238 -91.7402 19.7334 -136.808 -2.42969z" />
    <glyph glyph-name="d" unicode="d" 
d="M560.294 412.92c17.834 -81.6982 8.125 -158.807 -28.8076 -229.183c-56.5762 -107.757 -140.679 -168.286 -250.001 -179.909c-15.7637 -1.67871 -31.8135 -3.84668 -47.333 -5.94922c-26.1162 -3.5293 -53.1123 -7.18066 -79.9541 -8.65625
c-2.73828 -0.155273 -5.47656 -0.220703 -8.21484 -0.220703c-15.585 0 -31.2021 2.24121 -47.6016 4.59668c-8.81152 1.26367 -17.875 2.56738 -27.3301 3.57031l-6.48828 0.68457l-0.75 6.48828c-0.87207 7.48242 -1.8584 14.6387 -2.82031 21.5586
c-2.0293 14.623 -3.94434 28.4395 -4.24609 42.4434c-0.619141 28.8877 -0.545898 58.2559 -0.480469 86.6621c0.12207 54.376 0.244141 110.602 -4.40234 165.319c-8.18359 96.3857 -2.00488 191.354 5.90137 279.621c1.20605 13.376 1.71973 24.4941 2.13574 33.4277
c2.2334 47.9932 7.67871 49.4844 65.7715 50.7803c6.26855 0.138672 13.2617 0.293945 21.0293 0.530273c78.5273 2.31445 155.93 -11.1182 224.056 -38.9463c99.6465 -40.6982 165.189 -121.206 189.536 -232.818zM408.162 170.41
c44.6025 75.3398 60.1895 144.811 47.6367 212.366c-7.37695 39.7686 -21.6416 89.791 -66.8965 123.903c-58.4922 44.0889 -125.583 53.1367 -196.619 62.7139l-10.458 1.42676c-10.2461 -79.8311 -17.8105 -409.858 -10.752 -462.791
c4.39355 0.0244141 8.80371 0.0654297 13.2461 0.0976562c6.75684 0.0566406 13.6279 0.113281 20.5479 0.113281c8.33008 0 16.7334 -0.0810547 25.1123 -0.349609c40.5186 -1.2959 81.5186 7.51562 129.357 27.7305c24.6328 10.417 41.5215 22.4482 48.8252 34.7891z" />
    <glyph glyph-name="e" unicode="e" horiz-adv-x="339" 
d="M247.344 106.223c30.6973 -0.823242 39.5654 -8.30273 42.166 -38.7471c1.85059 -21.6982 0.359375 -43.6816 0.359375 -68.8525c-40.25 0 -76.4814 0.716797 -112.664 -0.204102c-36.5488 -0.929688 -73.0654 -3.47266 -113.315 -5.49414
c-5.26562 37.1602 -13.3926 71.5898 -14.3955 106.224c-2.29883 79.5381 -1.23926 159.182 -1.3125 238.776c-0.0732422 85.8877 0.12207 171.767 0.195312 257.646c0.0078125 15.8945 0 31.7891 0 53.6016c33.835 3 62.5918 6.19531 91.4307 7.93945
c38.375 2.32324 76.8076 4.14941 115.24 4.98047c26.9795 0.586914 33.916 -6.22754 34.9268 -33.5176c0.961914 -26.1406 0.204102 -52.3467 0.204102 -83.1904h-130.213c-8.02051 -51.7266 4.01855 -97.9922 7.85742 -144.322
c0.521484 -6.28418 16.8887 -15.1113 26.5557 -16.0156c24.5752 -2.29883 49.5088 -0.766602 76.5381 -0.766602v-81.6973c-34.6582 -5.35547 -68.4121 -10.5723 -103.201 -15.9521v-180.27c29.6699 0 54.6611 0.530273 79.6279 -0.137695z" />
    <glyph glyph-name="f" unicode="f" horiz-adv-x="353" 
d="M303.875 562.277c-43.5918 0 -84.0684 -0.00195312 -127.636 0.0146484v-125.379c39.1416 -2.05371 77.9326 -4.08301 119.674 -6.26758c0 -24.8604 0.114258 -43.877 -0.0244141 -62.8936c-0.367188 -50.7158 -19.9297 -67.3027 -71.7539 -60.6592
c-11.2646 1.44238 -22.4238 3.73242 -40.4053 6.78125v-309.324c-37.6826 -3.98633 -69.5283 -9.78125 -101.407 -10.001c-28.8955 -0.195312 -32.4736 10.2705 -32.0664 39.7041c1.04297 75.1445 -0.408203 150.33 -0.856445 225.499
c-0.489258 81.25 -2.0459 162.516 -1.0918 243.749c0.68457 58.7852 4.70312 117.529 7.47461 181.906c24.2246 0 45.9307 0.25293 67.6289 -0.0488281c45.833 -0.635742 91.6748 -1.2959 137.508 -2.42871c34.0059 -0.839844 39.8994 -4.93945 42.5244 -36.957
c2.14355 -26.1406 0.431641 -52.5986 0.431641 -83.6953z" />
    <glyph glyph-name="g" unicode="g" horiz-adv-x="765" 
d="M715.546 352.214c3.89648 -119.355 -1.55762 -238.619 -29.2139 -356.401h-65.127c-3.9209 27.9336 -7.50781 53.4297 -11.9014 84.7139c-28.2021 -14.167 -51.3672 -25.6846 -74.4268 -37.3896c-65.9824 -33.4922 -134.729 -50.3896 -208.821 -34.5195
c-11.4033 2.4375 -23.4834 4.33691 -33.6475 9.59473c-61.54 31.8213 -124.263 63.2842 -172.362 114.057c-55.6143 58.7119 -77.8418 131.843 -70.7744 212.041c5.46094 61.9727 19.2607 122.486 50.667 177.408c44.4229 77.6875 110.487 130.678 193.896 159.769
c112.811 39.3369 220.616 32.0576 316.489 -47.2031c29.3027 -24.2246 57.6357 -49.6152 87.0283 -74.998c-25.5127 -25.04 -48.1396 -47.252 -68.0938 -66.8311c-19.0322 16.6445 -37.1768 33.4688 -56.3232 49.0615c-52.2812 42.5811 -107.888 76.3916 -179.494 72.6094
c-63.334 -3.3418 -112.501 -37.0547 -155.114 -77.3701c-53.707 -50.8213 -78.4785 -117.342 -74.2402 -192.201c1.1416 -20.1084 6.14648 -40.8369 13.6777 -59.5518c10.417 -25.8877 25.0322 -50.0801 37.6504 -75.0957
c33.8428 -67.1074 95.3506 -87.5664 163.388 -96.9805c4.35254 -0.603516 8.9502 0.456055 13.2949 -0.196289c77.7041 -11.7295 133.237 23.7764 178.247 82.7246c11.6396 15.2422 26.4746 28.2021 36.9404 44.1211c5.72168 8.69727 9.01465 22.4072 6.34961 31.8789
c-1.54102 5.47754 -16.873 8.83594 -26.377 9.94434c-18.8291 2.20898 -37.9189 2.19238 -59.3809 3.21094v72.9111c62.502 8.56641 122.322 4.32812 187.669 -5.30664z" />
    <glyph glyph-name="h" unicode="h" horiz-adv-x="613" 
d="M564.238 45.8027c1.40234 -40.8936 -4.70117 -52.7998 -31.7793 -57.1201c-45.793 -7.28711 -80.916 9.30859 -87.1602 44.4883c-6.67578 37.584 -11.8105 75.7305 -13.6123 113.82c-2.28223 48.2705 -0.5625 96.7363 -0.554688 144.485
c-21.6084 1.53223 -43.1924 2.45312 -64.7764 2.89355c-57.5625 -4.60547 -115.296 -6.48828 -173.021 -5.5918v-290.951c-47.2354 -12.5693 -90.7051 -17.2646 -135.463 0.806641c-3.28516 226.184 -6.5293 449.881 -9.87109 680.091
c32.7832 0 61.7598 1.47559 90.5 -0.480469c22.0488 -1.5 32.3359 -16.6123 33.4365 -44.2285c1.58984 -39.8584 1.23926 -79.8232 3.79102 -119.608c1.98047 -30.9336 5.90918 -61.7529 9.45508 -92.8252c79 -2.58398 158.017 -4.60547 237.049 -6.1377
c-0.0078125 42.3936 -0.765625 81.9014 0.237305 121.353c0.896484 35.4004 3.74902 70.751 5.77051 106.127c1.32031 23.125 14.4355 34.4629 36.7363 36.1504c7.36035 0.554688 14.7939 0.342773 22.1865 0.220703c69.2598 -1.17383 76.8564 -7.80078 75.6582 -75.6992
c-1.60547 -91.4629 -7.09961 -182.901 -6.8877 -274.348c0.219727 -94.4873 5.05371 -188.975 8.30566 -283.445z" />
    <glyph glyph-name="i" unicode="i" horiz-adv-x="254" 
d="M204.799 59.4639c0.570312 -14.541 1.52539 -29.9062 -2.44434 -43.502c-2.9834 -10.1807 -12.9688 -25.1211 -20.9404 -25.8545c-34.6338 -3.1875 -69.7891 -3.75781 -104.513 -1.54883c-18.2588 1.16602 -20.2393 19.6523 -19.9707 34.6504
c1.44238 79.6846 0.912109 159.532 6.18555 238.988c3.9209 59.1113 5.25 117.538 -1.0918 176.486c-3.09766 28.7979 -0.538086 58.1904 -0.538086 90.501c32.6689 2.73047 63.1211 5.29785 93.5732 7.82422c23.1816 1.92383 30.7051 -9.87891 31.3574 -31.8213
c2.17676 -73.4736 5.57617 -146.923 8.68164 -220.372c3.17871 -75.1201 6.76562 -150.224 9.7002 -225.352zM126.827 635.105c-41.9775 1.2793 -79.8711 34.4385 -78.8037 68.958c1.39355 44.9531 43.3467 89.3359 83.1562 87.958
c34.9111 -1.20605 73.0742 -47.5771 72.6426 -88.2754c-0.407227 -38.416 -35.7178 -69.8955 -76.9951 -68.6406z" />
    <glyph glyph-name="i" unicode="&#xed;" horiz-adv-x="254" 
d="M204.799 59.4639c0.570312 -14.541 1.52539 -29.9062 -2.44434 -43.502c-2.9834 -10.1807 -12.9688 -25.1211 -20.9404 -25.8545c-34.6338 -3.1875 -69.7891 -3.75781 -104.513 -1.54883c-18.2588 1.16602 -20.2393 19.6523 -19.9707 34.6504
c1.44238 79.6846 0.912109 159.532 6.18555 238.988c3.9209 59.1113 5.25 117.538 -1.0918 176.486c-3.09766 28.7979 -0.538086 58.1904 -0.538086 90.501c32.6689 2.73047 63.1211 5.29785 93.5732 7.82422c23.1816 1.92383 30.7051 -9.87891 31.3574 -31.8213
c2.17676 -73.4736 5.57617 -146.923 8.68164 -220.372c3.17871 -75.1201 6.76562 -150.224 9.7002 -225.352zM126.827 635.105c-41.9775 1.2793 -79.8711 34.4385 -78.8037 68.958c1.39355 44.9531 43.3467 89.3359 83.1562 87.958
c34.9111 -1.20605 73.0742 -47.5771 72.6426 -88.2754c-0.407227 -38.416 -35.7178 -69.8955 -76.9951 -68.6406z" />
    <glyph glyph-name="i" unicode="&#xec;" horiz-adv-x="254" 
d="M204.799 59.4639c0.570312 -14.541 1.52539 -29.9062 -2.44434 -43.502c-2.9834 -10.1807 -12.9688 -25.1211 -20.9404 -25.8545c-34.6338 -3.1875 -69.7891 -3.75781 -104.513 -1.54883c-18.2588 1.16602 -20.2393 19.6523 -19.9707 34.6504
c1.44238 79.6846 0.912109 159.532 6.18555 238.988c3.9209 59.1113 5.25 117.538 -1.0918 176.486c-3.09766 28.7979 -0.538086 58.1904 -0.538086 90.501c32.6689 2.73047 63.1211 5.29785 93.5732 7.82422c23.1816 1.92383 30.7051 -9.87891 31.3574 -31.8213
c2.17676 -73.4736 5.57617 -146.923 8.68164 -220.372c3.17871 -75.1201 6.76562 -150.224 9.7002 -225.352zM126.827 635.105c-41.9775 1.2793 -79.8711 34.4385 -78.8037 68.958c1.39355 44.9531 43.3467 89.3359 83.1562 87.958
c34.9111 -1.20605 73.0742 -47.5771 72.6426 -88.2754c-0.407227 -38.416 -35.7178 -69.8955 -76.9951 -68.6406z" />
    <glyph glyph-name="j" unicode="j" horiz-adv-x="505" 
d="M442.054 484.078c0 -19.4404 -0.368164 -33.8652 0.0722656 -48.2764c1.66309 -55.998 6.47266 -112.094 4.5 -167.961c-1.6543 -46.6895 -4.52344 -95.1963 -18.4619 -139.22c-34.9023 -110.243 -129.756 -158.57 -245.362 -117.889
c-12.4707 4.39355 -24.4287 10.4502 -37.1201 13.9717c-32.6045 9.04785 -52.2891 31.9521 -66.6758 60.5049c-10.5557 20.9561 -20.0273 42.459 -31.0068 65.9014c15.2021 27.6973 44.5703 38.9697 71.6729 52.5576c15.0879 7.56445 23.4912 -3.29297 32.6367 -14.2969
c18.6904 -22.4805 36.8506 -46.29 59.29 -64.5645c44.1377 -35.9375 103.592 -10.6445 111.743 45.8418c1.88281 13.0576 1.17383 26.5391 1.19043 39.8252c0.0898438 76.8232 -0.0566406 153.646 0.138672 230.47c0.0322266 14.3945 1.25488 28.7812 1.92285 43.1348
h115.46zM382.868 579.448c-39.3047 0.579102 -70.54 32.1318 -69.3906 70.083c1.13281 37.1201 29.833 72.21 58.5332 71.5664c38.9941 -0.87207 85.292 -46.0537 84.4121 -82.375c-0.864258 -35.873 -30.6885 -59.9023 -73.5547 -59.2744z" />
    <glyph glyph-name="k" unicode="k" horiz-adv-x="565" 
d="M262.666 370.289c86.2871 -92.5225 168.669 -180.854 253.88 -272.22c-18.2256 -20.2393 -31.626 -37.5029 -47.4551 -52.126c-25.4473 -23.5156 -38.2285 -22.2197 -62.7715 3.23633c-67.6699 70.1885 -135.209 140.499 -202.911 210.655
c-8.06152 8.35449 -16.832 16.0244 -32.1719 30.541c-12.6016 -101.285 2.52637 -196.848 -16.123 -295.851c-22.2031 0 -43.8926 -0.391602 -65.5664 0.0888672c-34.4785 0.757812 -41.5215 6.08008 -41.5459 41.7656c-0.0410156 57.3838 3.21973 114.768 4.32031 172.159
c1.6709 86.8652 2.83691 173.747 3.9375 260.621c0.81543 64.8174 0.236328 129.667 2.13574 194.443c1.1084 37.7314 3.95312 38.9375 42.1816 39.5566c19.0078 0.30957 38.0244 0.0566406 59.502 0.0566406c11.9736 -83.2061 18.4209 -162.898 3.22754 -254.622
c37.5273 30.6074 68.0693 52.8105 95.4082 78.4375c42.1084 39.4678 82.04 81.25 122.844 122.095c42.6621 42.6953 64.4092 40.5273 100.828 -10.335c1.62207 -2.26562 1.90723 -5.48535 3.92871 -11.6309c-74.0605 -85.0557 -149.303 -171.481 -223.648 -256.872z" />
    <glyph glyph-name="l" unicode="l" horiz-adv-x="317" 
d="M263.229 123.762c9.80566 -39.2148 3.8125 -77.1777 4.13867 -113.809c-31.3896 -31.1123 -65.9258 -5.77051 -98.0977 -8.64746c-33.5664 -3 -67.6055 -0.668945 -102.443 -0.668945c-3.26074 9.71582 -7.40918 16.3838 -7.46582 23.0918
c-0.660156 78.1445 0.481445 156.321 -1.2793 234.433c-1.56543 69.3652 -6.83105 138.641 -9.18652 208.006c-1.39355 41.1299 -0.928711 82.3496 -0.154297 123.504c0.579102 31.0225 3.48047 61.9961 4.43457 93.0273c0.725586 23.5889 13.042 36.1904 35.4492 37.0137
c78.6416 2.87695 87.6973 3.04785 87.6484 -75.1289c-0.0898438 -155.27 -0.0244141 -310.539 -0.0244141 -465.809v-50.7656c32.6123 -1.59766 58.8184 -2.86914 86.9805 -4.24707z" />
    <glyph glyph-name="m" unicode="m" horiz-adv-x="871" 
d="M812.135 96.5332c2.6084 -14.541 5.21582 -29.0791 7.72656 -43.6445c5.63281 -32.8652 1.49219 -40.2334 -27.6807 -49.2646c-12.7725 -3.95312 -26.2139 -6.39062 -40.4375 -8.9668c-5.17578 -0.9375 -10.4658 -1.89941 -15.8701 -2.95117
c-50.667 124.458 -86.7275 241.189 -107.228 347.03l-4.16504 21.4863l-7.57227 -20.5322c-2.77148 -7.50684 -5.18457 -13.8076 -7.30371 -19.3418c-4.01074 -10.458 -6.9043 -18.0137 -9.30078 -26.0176c-13.5879 -45.1406 -29.2139 -92.9385 -44.3262 -139.155
c-17.5654 -53.6992 -35.7178 -109.225 -51.0332 -161.709c-3.82324 -13.0986 -9.62695 -18.0625 -22.1963 -18.9756c-45.8662 -3.30957 -72.8545 4.69434 -93.2236 57.7822c-23.2627 60.6357 -49.6562 116.226 -77.6064 175.076
c-16.3594 34.4463 -33.2725 70.0742 -50.0312 107.789l-6.23535 14.0195l-5.11914 -14.4678c-32.8896 -92.9385 -55.1992 -174.474 -78.8047 -260.802c-6.91992 -25.3174 -13.9375 -50.9609 -21.3301 -77.2891c-30.2158 -9.81348 -55.2803 2.20898 -81.7471 14.8916
c-4.24707 2.0293 -8.46973 4.05859 -12.7002 5.97363c-3.75781 1.70312 -9.46387 17.7363 -7.57324 27.0039c12.6504 62.1924 26.1895 120.888 39.2637 177.644c11.8838 51.5713 24.1836 104.912 35.9209 161.244c9.96875 47.8057 19.4072 96.541 28.5449 143.662
c6.43945 33.1748 12.8623 66.3418 19.5137 99.4678c5.11035 25.4639 9.87891 41.3828 19.1221 47.4551c3.94531 2.5918 9.24316 3.70801 16.0244 3.70801c9.04785 0 20.7441 -1.98926 35.3594 -5.11133c20.8994 -4.45898 31.6836 -12.7324 41.2119 -31.5859
c34.6748 -68.5908 61.043 -141.877 86.5479 -212.742c11.7617 -32.6611 23.915 -66.4395 36.7363 -99.3779c4.24707 -10.8984 9.04785 -21.8369 14.6064 -34.5039c2.9502 -6.73242 6.17773 -14.0928 9.74805 -22.415l5.79492 -13.4814l5.49414 13.6045
c3.92871 9.72461 7.52344 18.7148 10.9141 27.208c6.83008 17.085 12.8535 32.1396 19.1543 47.0801c18.625 44.1621 38.4893 90.7695 60.7334 142.464c5.98242 13.8975 11.9326 27.8271 17.875 41.749c17.4922 40.9668 35.5713 83.3193 54.4814 124.417
c15.5195 33.7295 15.5029 33.7373 45.3604 29.6045c3.33398 -0.456055 6.7002 -0.838867 10.0664 -1.21387c25.2764 -2.85254 45.2461 -5.10254 50.8867 -37.3643c8.22461 -46.9824 19.2041 -94.2012 29.8252 -139.871c4.23047 -18.2012 8.46875 -36.4102 12.5439 -54.6436
c3.1875 -14.2402 6.57812 -28.4473 9.96875 -42.6543c6.75684 -28.3408 13.7422 -57.6436 18.8691 -86.6855c3.82324 -21.7227 6.12207 -44.2109 8.34766 -65.958c1.75293 -17.1738 3.57031 -34.9268 6.12988 -52.3369c4.31152 -29.2217 9.59375 -58.7451 14.7129 -87.2979z
" />
    <glyph glyph-name="n" unicode="n" horiz-adv-x="739" 
d="M689.712 435.284c0.954102 -49.8848 1.21094 -99.8408 -0.133789 -149.709c-1.71191 -63.1953 -8.72168 -126.431 -7.00977 -189.479c1.15723 -42.5244 -16.0088 -66.5459 -51.8896 -82.3594c-9.34961 -4.11621 -18.4385 -8.81934 -30.2822 -14.5166
c-80.2881 64.2139 -139.938 148.022 -212.058 219.531c-70.7588 70.1562 -137.304 144.575 -211.267 223.029c-6.33301 -153.843 17.835 -299.38 -1.71973 -446.188c-35.001 -15.6504 -70.3682 -6.00781 -104.595 -1.85938
c-7.40918 0.904297 -16.9131 19.4561 -18.0381 30.623c-3.11328 30.8193 -2.99902 62.0381 -2.90137 93.0938c0.431641 142.04 1.30371 284.08 2.00488 426.12c0.0244141 4.43457 0.855469 9.08887 -0.171875 13.2871c-14.541 59.5518 15.5771 92.0586 70.1318 112.746
c142.749 -145.806 283.941 -290.014 432.355 -441.606c0.0898438 45.2627 0.68457 82.6104 0.12207 119.934c-1.3125 86.7676 -3.66797 173.52 -4.62207 260.287c-0.464844 42.2139 4.14844 45.9473 45.1152 46.3955c7.40137 0.0810547 14.8516 0.415039 22.1953 -0.277344
c60.5537 -5.71387 68.2725 -16.4492 67.6367 -77.582c-0.489258 -47.1289 4.22168 -94.291 5.12598 -141.47z" />
    <glyph glyph-name="n" unicode="&#xf1;" horiz-adv-x="739" 
d="M689.712 435.284c0.954102 -49.8848 1.21094 -99.8408 -0.133789 -149.709c-1.71191 -63.1953 -8.72168 -126.431 -7.00977 -189.479c1.15723 -42.5244 -16.0088 -66.5459 -51.8896 -82.3594c-9.34961 -4.11621 -18.4385 -8.81934 -30.2822 -14.5166
c-80.2881 64.2139 -139.938 148.022 -212.058 219.531c-70.7588 70.1562 -137.304 144.575 -211.267 223.029c-6.33301 -153.843 17.835 -299.38 -1.71973 -446.188c-35.001 -15.6504 -70.3682 -6.00781 -104.595 -1.85938
c-7.40918 0.904297 -16.9131 19.4561 -18.0381 30.623c-3.11328 30.8193 -2.99902 62.0381 -2.90137 93.0938c0.431641 142.04 1.30371 284.08 2.00488 426.12c0.0244141 4.43457 0.855469 9.08887 -0.171875 13.2871c-14.541 59.5518 15.5771 92.0586 70.1318 112.746
c142.749 -145.806 283.941 -290.014 432.355 -441.606c0.0898438 45.2627 0.68457 82.6104 0.12207 119.934c-1.3125 86.7676 -3.66797 173.52 -4.62207 260.287c-0.464844 42.2139 4.14844 45.9473 45.1152 46.3955c7.40137 0.0810547 14.8516 0.415039 22.1953 -0.277344
c60.5537 -5.71387 68.2725 -16.4492 67.6367 -77.582c-0.489258 -47.1289 4.22168 -94.291 5.12598 -141.47z" />
    <glyph glyph-name="o" unicode="o" horiz-adv-x="806" 
d="M744.434 435.092c5.19238 -49.6641 13.042 -99.4346 12.9609 -149.164c-0.0976562 -53.4629 -30.8594 -96.2637 -59.4365 -139.937c-44.9453 -68.6973 -105.825 -114.335 -183.61 -136.065c-52.4434 -14.6553 -105.865 -15.1445 -160.926 -6.61035
c-62.5508 9.7002 -119.6 28.1621 -171.294 64.499c-36.0684 25.3496 -63.4805 57.8311 -79.6768 98.334c-17.9893 44.9775 -33.3047 91.0469 -48.873 136.953c-3.7168 10.9385 -3.81445 23.0996 -5.5752 34.6982c3.26074 101.212 28.2188 193.547 108.678 261.421
c24.249 20.459 53.6172 36.4922 83.042 48.8164c54.041 22.627 108.417 48.4414 169.158 44.7324c153.101 -9.35742 265.977 -78.8447 326.481 -223.762c4.47461 -10.7266 7.86523 -22.3984 9.07129 -33.916zM628.941 355.676
c4.45898 95.3105 -54.416 150.559 -126.21 193.188c-37.7637 22.4316 -84.3467 29.3027 -128.811 21.9014c-119.764 -19.9297 -174.954 -95.5225 -206.434 -203.687c-12.8135 -44.0322 10.7266 -80.4434 23.7842 -118.965
c27.2568 -80.4424 89.6123 -117.317 168.498 -129.992c64.7275 -10.4004 120.978 19.3916 177.432 44.6113c42.1572 18.8369 65.1191 55.7773 77.7451 97.1436c9.31641 30.5176 9.65918 63.7656 13.9951 95.7988z" />
    <glyph glyph-name="o" unicode="&#xf8;" horiz-adv-x="806" 
d="M744.434 435.092c5.19238 -49.6641 13.042 -99.4346 12.9609 -149.164c-0.0976562 -53.4629 -30.8594 -96.2637 -59.4365 -139.937c-44.9453 -68.6973 -105.825 -114.335 -183.61 -136.065c-52.4434 -14.6553 -105.865 -15.1445 -160.926 -6.61035
c-62.5508 9.7002 -119.6 28.1621 -171.294 64.499c-36.0684 25.3496 -63.4805 57.8311 -79.6768 98.334c-17.9893 44.9775 -33.3047 91.0469 -48.873 136.953c-3.7168 10.9385 -3.81445 23.0996 -5.5752 34.6982c3.26074 101.212 28.2188 193.547 108.678 261.421
c24.249 20.459 53.6172 36.4922 83.042 48.8164c54.041 22.627 108.417 48.4414 169.158 44.7324c153.101 -9.35742 265.977 -78.8447 326.481 -223.762c4.47461 -10.7266 7.86523 -22.3984 9.07129 -33.916zM628.941 355.676
c4.45898 95.3105 -54.416 150.559 -126.21 193.188c-37.7637 22.4316 -84.3467 29.3027 -128.811 21.9014c-119.764 -19.9297 -174.954 -95.5225 -206.434 -203.687c-12.8135 -44.0322 10.7266 -80.4434 23.7842 -118.965
c27.2568 -80.4424 89.6123 -117.317 168.498 -129.992c64.7275 -10.4004 120.978 19.3916 177.432 44.6113c42.1572 18.8369 65.1191 55.7773 77.7451 97.1436c9.31641 30.5176 9.65918 63.7656 13.9951 95.7988z" />
    <glyph glyph-name="o" unicode="&#xf6;" horiz-adv-x="806" 
d="M744.434 435.092c5.19238 -49.6641 13.042 -99.4346 12.9609 -149.164c-0.0976562 -53.4629 -30.8594 -96.2637 -59.4365 -139.937c-44.9453 -68.6973 -105.825 -114.335 -183.61 -136.065c-52.4434 -14.6553 -105.865 -15.1445 -160.926 -6.61035
c-62.5508 9.7002 -119.6 28.1621 -171.294 64.499c-36.0684 25.3496 -63.4805 57.8311 -79.6768 98.334c-17.9893 44.9775 -33.3047 91.0469 -48.873 136.953c-3.7168 10.9385 -3.81445 23.0996 -5.5752 34.6982c3.26074 101.212 28.2188 193.547 108.678 261.421
c24.249 20.459 53.6172 36.4922 83.042 48.8164c54.041 22.627 108.417 48.4414 169.158 44.7324c153.101 -9.35742 265.977 -78.8447 326.481 -223.762c4.47461 -10.7266 7.86523 -22.3984 9.07129 -33.916zM628.941 355.676
c4.45898 95.3105 -54.416 150.559 -126.21 193.188c-37.7637 22.4316 -84.3467 29.3027 -128.811 21.9014c-119.764 -19.9297 -174.954 -95.5225 -206.434 -203.687c-12.8135 -44.0322 10.7266 -80.4434 23.7842 -118.965
c27.2568 -80.4424 89.6123 -117.317 168.498 -129.992c64.7275 -10.4004 120.978 19.3916 177.432 44.6113c42.1572 18.8369 65.1191 55.7773 77.7451 97.1436c9.31641 30.5176 9.65918 63.7656 13.9951 95.7988z" />
    <glyph glyph-name="o" unicode="&#xf5;" horiz-adv-x="806" 
d="M744.434 435.092c5.19238 -49.6641 13.042 -99.4346 12.9609 -149.164c-0.0976562 -53.4629 -30.8594 -96.2637 -59.4365 -139.937c-44.9453 -68.6973 -105.825 -114.335 -183.61 -136.065c-52.4434 -14.6553 -105.865 -15.1445 -160.926 -6.61035
c-62.5508 9.7002 -119.6 28.1621 -171.294 64.499c-36.0684 25.3496 -63.4805 57.8311 -79.6768 98.334c-17.9893 44.9775 -33.3047 91.0469 -48.873 136.953c-3.7168 10.9385 -3.81445 23.0996 -5.5752 34.6982c3.26074 101.212 28.2188 193.547 108.678 261.421
c24.249 20.459 53.6172 36.4922 83.042 48.8164c54.041 22.627 108.417 48.4414 169.158 44.7324c153.101 -9.35742 265.977 -78.8447 326.481 -223.762c4.47461 -10.7266 7.86523 -22.3984 9.07129 -33.916zM628.941 355.676
c4.45898 95.3105 -54.416 150.559 -126.21 193.188c-37.7637 22.4316 -84.3467 29.3027 -128.811 21.9014c-119.764 -19.9297 -174.954 -95.5225 -206.434 -203.687c-12.8135 -44.0322 10.7266 -80.4434 23.7842 -118.965
c27.2568 -80.4424 89.6123 -117.317 168.498 -129.992c64.7275 -10.4004 120.978 19.3916 177.432 44.6113c42.1572 18.8369 65.1191 55.7773 77.7451 97.1436c9.31641 30.5176 9.65918 63.7656 13.9951 95.7988z" />
    <glyph glyph-name="o" unicode="&#xf4;" horiz-adv-x="806" 
d="M744.434 435.092c5.19238 -49.6641 13.042 -99.4346 12.9609 -149.164c-0.0976562 -53.4629 -30.8594 -96.2637 -59.4365 -139.937c-44.9453 -68.6973 -105.825 -114.335 -183.61 -136.065c-52.4434 -14.6553 -105.865 -15.1445 -160.926 -6.61035
c-62.5508 9.7002 -119.6 28.1621 -171.294 64.499c-36.0684 25.3496 -63.4805 57.8311 -79.6768 98.334c-17.9893 44.9775 -33.3047 91.0469 -48.873 136.953c-3.7168 10.9385 -3.81445 23.0996 -5.5752 34.6982c3.26074 101.212 28.2188 193.547 108.678 261.421
c24.249 20.459 53.6172 36.4922 83.042 48.8164c54.041 22.627 108.417 48.4414 169.158 44.7324c153.101 -9.35742 265.977 -78.8447 326.481 -223.762c4.47461 -10.7266 7.86523 -22.3984 9.07129 -33.916zM628.941 355.676
c4.45898 95.3105 -54.416 150.559 -126.21 193.188c-37.7637 22.4316 -84.3467 29.3027 -128.811 21.9014c-119.764 -19.9297 -174.954 -95.5225 -206.434 -203.687c-12.8135 -44.0322 10.7266 -80.4434 23.7842 -118.965
c27.2568 -80.4424 89.6123 -117.317 168.498 -129.992c64.7275 -10.4004 120.978 19.3916 177.432 44.6113c42.1572 18.8369 65.1191 55.7773 77.7451 97.1436c9.31641 30.5176 9.65918 63.7656 13.9951 95.7988z" />
    <glyph glyph-name="o" unicode="&#xf3;" horiz-adv-x="806" 
d="M744.434 435.092c5.19238 -49.6641 13.042 -99.4346 12.9609 -149.164c-0.0976562 -53.4629 -30.8594 -96.2637 -59.4365 -139.937c-44.9453 -68.6973 -105.825 -114.335 -183.61 -136.065c-52.4434 -14.6553 -105.865 -15.1445 -160.926 -6.61035
c-62.5508 9.7002 -119.6 28.1621 -171.294 64.499c-36.0684 25.3496 -63.4805 57.8311 -79.6768 98.334c-17.9893 44.9775 -33.3047 91.0469 -48.873 136.953c-3.7168 10.9385 -3.81445 23.0996 -5.5752 34.6982c3.26074 101.212 28.2188 193.547 108.678 261.421
c24.249 20.459 53.6172 36.4922 83.042 48.8164c54.041 22.627 108.417 48.4414 169.158 44.7324c153.101 -9.35742 265.977 -78.8447 326.481 -223.762c4.47461 -10.7266 7.86523 -22.3984 9.07129 -33.916zM628.941 355.676
c4.45898 95.3105 -54.416 150.559 -126.21 193.188c-37.7637 22.4316 -84.3467 29.3027 -128.811 21.9014c-119.764 -19.9297 -174.954 -95.5225 -206.434 -203.687c-12.8135 -44.0322 10.7266 -80.4434 23.7842 -118.965
c27.2568 -80.4424 89.6123 -117.317 168.498 -129.992c64.7275 -10.4004 120.978 19.3916 177.432 44.6113c42.1572 18.8369 65.1191 55.7773 77.7451 97.1436c9.31641 30.5176 9.65918 63.7656 13.9951 95.7988z" />
    <glyph glyph-name="o" unicode="&#xf2;" horiz-adv-x="806" 
d="M744.434 435.092c5.19238 -49.6641 13.042 -99.4346 12.9609 -149.164c-0.0976562 -53.4629 -30.8594 -96.2637 -59.4365 -139.937c-44.9453 -68.6973 -105.825 -114.335 -183.61 -136.065c-52.4434 -14.6553 -105.865 -15.1445 -160.926 -6.61035
c-62.5508 9.7002 -119.6 28.1621 -171.294 64.499c-36.0684 25.3496 -63.4805 57.8311 -79.6768 98.334c-17.9893 44.9775 -33.3047 91.0469 -48.873 136.953c-3.7168 10.9385 -3.81445 23.0996 -5.5752 34.6982c3.26074 101.212 28.2188 193.547 108.678 261.421
c24.249 20.459 53.6172 36.4922 83.042 48.8164c54.041 22.627 108.417 48.4414 169.158 44.7324c153.101 -9.35742 265.977 -78.8447 326.481 -223.762c4.47461 -10.7266 7.86523 -22.3984 9.07129 -33.916zM628.941 355.676
c4.45898 95.3105 -54.416 150.559 -126.21 193.188c-37.7637 22.4316 -84.3467 29.3027 -128.811 21.9014c-119.764 -19.9297 -174.954 -95.5225 -206.434 -203.687c-12.8135 -44.0322 10.7266 -80.4434 23.7842 -118.965
c27.2568 -80.4424 89.6123 -117.317 168.498 -129.992c64.7275 -10.4004 120.978 19.3916 177.432 44.6113c42.1572 18.8369 65.1191 55.7773 77.7451 97.1436c9.31641 30.5176 9.65918 63.7656 13.9951 95.7988z" />
    <glyph glyph-name="p" unicode="p" horiz-adv-x="497" 
d="M417.1 559.676c30.3379 -59.5029 42.1514 -124.359 18.6924 -188.802c-13.2939 -36.5 -43.249 -63.7168 -81.0947 -76.71c-47.3906 -16.2695 -95.6855 -30.1592 -146.906 -27.7549c-8.46094 0.399414 -17.0518 -1.89062 -28.374 -3.27637v-266.01h-116.886
c-5.39648 27.5664 -15.0312 52.9492 -14.5098 78.1279c2.47754 119.649 9.01465 239.209 11.4521 358.85c1.23926 60.4648 -3.36621 121.043 -4.8418 181.581c-0.350586 14.4434 1.25488 28.9355 1.94727 43.1758c79.0898 18.6582 154.03 8.27344 229.811 -4.6543
c60.8066 -10.376 104.056 -42.2549 130.71 -94.5273zM345.129 444.869c4.20605 34.3652 -9.60059 65.6973 -38.9854 83.5889c-40.3887 24.5918 -84.9668 37.6172 -135.43 25.0889c-0.81543 -8.51758 -2.28223 -15.5195 -2.02148 -22.4561
c2.12695 -57.0332 4.57227 -114.058 7.18066 -177.448c39.9316 6.8877 74.0273 9.42285 105.914 19.1719c33.9248 10.3682 58.8506 35.2939 63.3418 72.0547z" />
    <glyph glyph-name="q" unicode="q" horiz-adv-x="823" 
d="M680.896 132.246c-1.57324 -2.30664 -1.72168 -5.59668 -3.50684 -11.8408c16.4248 -21.2988 34.1367 -44.2686 55.1016 -71.4521c-23.6133 -20.9238 -45.0098 -39.8916 -71.9648 -63.7822c-18.8535 25.3008 -34.626 46.4688 -44.9375 60.3008
c-54.5059 -17.7939 -97.7637 -36.6396 -142.978 -45.7686c-131.297 -26.5156 -242.062 9.44727 -325.545 117.799c-16.1631 20.9893 -34.3887 40.8203 -47.6748 63.5127c-68.4121 116.861 -67.3115 236.364 -3.89648 353.82c17.6797 32.751 45.5889 62.7139 75.1855 85.7568
c78.543 61.1328 170.43 89.0986 269.433 81.4287c63.5459 -4.92285 120.595 -34.7881 177.579 -63.667c78.1934 -39.6309 116.251 -111.621 140.924 -185.682c32.6367 -98 16.1064 -195.747 -49.5586 -280.714c-9.91992 -12.8301 -18.9834 -26.3281 -28.1611 -39.7119z
M627.301 268.567c33.7451 53.7559 30.8262 108.979 8.60645 165.588c-38.4404 97.9678 -113.666 150.021 -201.037 155.498c-115.606 3.1543 -207.754 -65.9424 -236.869 -177.864c-2.9668 -11.4033 -3.23535 -23.6621 -7.26172 -34.5928
c-17.125 -46.4688 0.236328 -87.0117 21.7305 -126.227c10.5723 -19.2939 24.4453 -36.9326 38.0088 -54.4004c80.915 -104.228 195.348 -109.225 297.676 -43.3066c41.0078 26.418 54.2861 75.6992 79.1465 115.305z" />
    <glyph glyph-name="r" unicode="r" horiz-adv-x="570" 
d="M414.854 181.634c38.4727 -31.8867 77.2393 -63.1074 106.941 -106.047c-21.7305 -26.3682 -41.1465 -49.9326 -62.918 -76.3506c-95.2285 79.8721 -188.191 157.829 -287.528 241.141v-232.247c-42.5732 -23.7441 -73.001 -24.8037 -123.35 -4.31152
c4.81738 220.168 9.69141 442.699 14.6064 667.195c8.08594 2.5918 16.0332 6.60254 24.3311 7.53223c32.1885 3.60254 64.4502 6.68359 96.7451 9.1123c54.1885 4.0752 107.627 -6.74902 154.903 -29.3682c95.5791 -45.7354 148.414 -171.106 95.457 -280.225
c-17.8672 -36.8184 -48.5967 -66.6348 -91.2432 -78.918c-12.2344 -3.5293 -24.1025 -8.32227 -44.5781 -15.4951c42.2627 -37.1201 78.6494 -70.5391 116.633 -102.019zM177.193 356.978c39.8994 6.58594 73.498 9.25098 105.409 18.0293
c61.6709 16.9463 84.9336 58.7695 70.5635 120.375c-9.28418 39.8018 -33.2402 70.8086 -69.7646 85.5537c-33.3301 13.457 -69.8955 32.1963 -106.208 8.91699v-232.875z" />
    <glyph glyph-name="s" unicode="s" horiz-adv-x="535" 
d="M409.489 310.05c76.375 -55.5898 75.9238 -170.481 28.3867 -239.081c-53.4951 -77.1738 -145.309 -99.377 -225.58 -61.1973c-55.5498 26.418 -98.6201 69.4307 -150.926 99.5322c-14.5498 8.37109 -17.6553 24.4287 -7.18945 38.6445
c15.5361 21.0947 32.7998 40.9258 51.4004 63.8467c50.1943 -31.0225 93.7051 -58.6875 138.022 -85.0068c23.6709 -14.0605 48.6943 -19.9209 75.5439 -5.60742c26.418 14.085 36.8594 33.1582 28.1621 61.2305c-8.94141 28.8389 -24.502 53.333 -50.9111 70.3281
c-37.2256 23.9561 -74.3369 48.1729 -110.381 73.8564c-45.499 32.417 -89.8408 65.5264 -119.755 115.37c-23.6377 39.3857 -18.8369 75.8125 -0.733398 113.413c35.5879 73.9141 126.13 118.867 206.654 105.711c80.8174 -13.2051 150.859 -47.1465 214.503 -106.005
c-19.3262 -24.3145 -39.0518 -49.1348 -58.4346 -73.5225c-45.418 24.0293 -87.249 48.4014 -131.004 68.6162c-36.3213 16.7832 -58.0762 10.1895 -83.4014 -17.2881c-27.3545 -29.6777 -24.8926 -67.8486 7.14941 -92.1465
c16.375 -12.4141 33.7207 -23.9395 51.8408 -33.5986c49.8516 -26.5967 91.4707 -64.2061 136.652 -97.0957z" />
    <glyph glyph-name="t" unicode="t" horiz-adv-x="553" 
d="M494.922 670.068c13.1475 -27.4033 11.6875 -57.4629 2.54199 -86c-1.83398 -5.73047 -14.0361 -10.5146 -21.9668 -11.4521c-19.0244 -2.25781 -38.3428 -2.32324 -57.5547 -2.6084c-24.8936 -0.367188 -49.7949 -0.0898438 -79.9863 -0.0898438
c5.53418 -70.2783 -13.6211 -134.231 6.78125 -198.942c8.85156 -28.0967 3.5127 -60.8311 3.66797 -91.4629c0.431641 -87.0615 0.423828 -174.123 0.382812 -261.185c0 -5.78711 -1.70312 -11.5664 -3.04785 -20.0596
c-32.7754 -9.64258 -66.2764 -6.48828 -99.5811 -3.07324c-19.2285 1.97266 -27.8438 16.2129 -29.8896 33.5176c-4.16504 35.1309 -9.16992 70.376 -9.87109 105.653c-1.52441 76.3916 -0.611328 152.832 -0.594727 229.256
c0.0166016 50.0635 -0.5625 100.136 0.660156 150.167c0.480469 19.7422 5.11816 39.3779 8.57422 64.1572h-153.924c-4.52344 34.4385 -8.47656 64.54 -13.1143 99.8584c9.02344 2.27441 19.5625 7.11621 30.167 7.24707c60.4893 0.782227 121.011 -0.375 181.491 0.716797
c58.9814 1.06738 117.93 4.18066 176.902 6.1123c22.3828 0.733398 46.9502 1.98047 58.3613 -21.8125z" />
    <glyph glyph-name="u" unicode="u" 
d="M562.705 572.381c3.86328 -97.4375 7.19043 -195.063 5.19336 -292.509c-1.01074 -49.542 -9.95215 -99.9072 -22.6348 -147.966c-13.4736 -51.0908 -42.5244 -94.7881 -95.5547 -114.358c-24.8037 -9.15332 -51.4336 -13.335 -77.1992 -19.9209
c-91.3242 -23.3447 -169.109 11.0283 -239.094 63.04c-24.0537 17.8838 -40.9023 50.6914 -51.6621 80.1162c-22.415 61.3125 -25.1943 126.717 -30.7861 191.615c-8.54199 99.166 4.06738 197.598 4.23047 296.389c0.0566406 33.9658 1.71973 36.5176 37.0059 42.3291
c22.7412 3.74121 46.3633 5.2002 69.3164 3.62695c20.043 -1.36914 30.7207 -14.5986 28.8867 -36.6309c-2.80371 -33.8027 -0.87207 -68.3555 -7.05859 -101.448c-20.7529 -110.969 -6.17871 -220.657 9.14551 -330.224c3.1709 -22.6924 15.3076 -44.4883 25.5127 -65.6406
c4.14844 -8.59082 12.9756 -17.7607 21.7139 -20.793c29.0586 -10.0908 58.5732 -21.0703 88.7891 -25.0645c38.6523 -5.11914 90.6475 42.1084 105.156 87.4932c16.2451 50.8301 9.74023 102.116 7.91406 153.826c-3.60254 101.863 -4.62109 203.833 -5.72949 305.77
c-0.155273 14.2646 5.24023 28.5781 8.76172 46.3799h95.457c17.4023 -37.21 21.0869 -77.0439 22.6357 -116.03z" />
    <glyph glyph-name="u" unicode="&#xfa;" 
d="M562.705 572.381c3.86328 -97.4375 7.19043 -195.063 5.19336 -292.509c-1.01074 -49.542 -9.95215 -99.9072 -22.6348 -147.966c-13.4736 -51.0908 -42.5244 -94.7881 -95.5547 -114.358c-24.8037 -9.15332 -51.4336 -13.335 -77.1992 -19.9209
c-91.3242 -23.3447 -169.109 11.0283 -239.094 63.04c-24.0537 17.8838 -40.9023 50.6914 -51.6621 80.1162c-22.415 61.3125 -25.1943 126.717 -30.7861 191.615c-8.54199 99.166 4.06738 197.598 4.23047 296.389c0.0566406 33.9658 1.71973 36.5176 37.0059 42.3291
c22.7412 3.74121 46.3633 5.2002 69.3164 3.62695c20.043 -1.36914 30.7207 -14.5986 28.8867 -36.6309c-2.80371 -33.8027 -0.87207 -68.3555 -7.05859 -101.448c-20.7529 -110.969 -6.17871 -220.657 9.14551 -330.224c3.1709 -22.6924 15.3076 -44.4883 25.5127 -65.6406
c4.14844 -8.59082 12.9756 -17.7607 21.7139 -20.793c29.0586 -10.0908 58.5732 -21.0703 88.7891 -25.0645c38.6523 -5.11914 90.6475 42.1084 105.156 87.4932c16.2451 50.8301 9.74023 102.116 7.91406 153.826c-3.60254 101.863 -4.62109 203.833 -5.72949 305.77
c-0.155273 14.2646 5.24023 28.5781 8.76172 46.3799h95.457c17.4023 -37.21 21.0869 -77.0439 22.6357 -116.03z" />
    <glyph glyph-name="u" unicode="&#xf9;" 
d="M562.705 572.381c3.86328 -97.4375 7.19043 -195.063 5.19336 -292.509c-1.01074 -49.542 -9.95215 -99.9072 -22.6348 -147.966c-13.4736 -51.0908 -42.5244 -94.7881 -95.5547 -114.358c-24.8037 -9.15332 -51.4336 -13.335 -77.1992 -19.9209
c-91.3242 -23.3447 -169.109 11.0283 -239.094 63.04c-24.0537 17.8838 -40.9023 50.6914 -51.6621 80.1162c-22.415 61.3125 -25.1943 126.717 -30.7861 191.615c-8.54199 99.166 4.06738 197.598 4.23047 296.389c0.0566406 33.9658 1.71973 36.5176 37.0059 42.3291
c22.7412 3.74121 46.3633 5.2002 69.3164 3.62695c20.043 -1.36914 30.7207 -14.5986 28.8867 -36.6309c-2.80371 -33.8027 -0.87207 -68.3555 -7.05859 -101.448c-20.7529 -110.969 -6.17871 -220.657 9.14551 -330.224c3.1709 -22.6924 15.3076 -44.4883 25.5127 -65.6406
c4.14844 -8.59082 12.9756 -17.7607 21.7139 -20.793c29.0586 -10.0908 58.5732 -21.0703 88.7891 -25.0645c38.6523 -5.11914 90.6475 42.1084 105.156 87.4932c16.2451 50.8301 9.74023 102.116 7.91406 153.826c-3.60254 101.863 -4.62109 203.833 -5.72949 305.77
c-0.155273 14.2646 5.24023 28.5781 8.76172 46.3799h95.457c17.4023 -37.21 21.0869 -77.0439 22.6357 -116.03z" />
    <glyph glyph-name="v" unicode="v" horiz-adv-x="647" 
d="M579.448 666.16c5.30664 -2.07031 10.1797 -5.29004 19.1621 -10.0742c-79.8477 -224.985 -159.41 -449.18 -238.476 -671.972c-56.7148 -5.68164 -59.7148 0.129883 -82.2686 46.7539c-41.2275 85.2432 -74.9404 173.111 -105.768 262.414
c-35.1387 101.79 -71.7939 203.051 -107.813 304.531c-4.38574 12.3408 -8.94238 24.624 -16.2861 44.8301c26.915 13.751 49.5098 27.1104 73.5312 37.0225c20.916 8.62402 28.7656 -7.78418 34.4717 -23.9561c19.1387 -54.2041 37.2588 -108.783 57.2939 -162.653
c34.21 -91.9932 69.5615 -183.554 113.602 -276.223c24.0703 59.8291 48.2949 119.584 72.1777 179.486c34.4141 86.3281 68.0615 172.974 103.151 259.024c11.4111 27.9824 17.9805 29.5879 48.0576 20.8662c9.8623 -2.86133 19.5869 -6.31738 29.1641 -10.0508z" />
    <glyph glyph-name="w" unicode="w" horiz-adv-x="1048" 
d="M988.83 644.641c3.1875 -1.77734 6.3457 -3.5293 9.4834 -5.23242c1.35352 -2.39648 2.16895 -11.2812 0.65332 -17.1904c-3.45605 -13.4814 -10.2129 -29.7676 -16.7422 -45.5234c-5.08594 -12.2588 -9.88672 -23.8252 -13.2695 -34.25l-25.374 -78.1191
c-32.4658 -99.9648 -66.0234 -203.328 -99.5566 -304.816c-10.6455 -32.2051 -22.1543 -63.8232 -34.3398 -97.291c-5.2002 -14.2646 -10.4824 -28.7656 -15.7969 -43.6172l-20.4756 -0.0078125c-18.5439 -0.0244141 -36.7451 -0.0322266 -54.9219 0.0332031
c-17.3213 0.0566406 -26.124 7.69434 -30.3955 26.3438c-19.4648 84.9014 -47.8467 158.057 -86.752 223.64c-7.2793 12.2676 -11.8271 26.0508 -16.6523 40.6416c-2.66504 8.02832 -5.41211 16.3428 -8.63965 24.3311c-5.2002 12.8701 -10.9795 25.6914 -16.5625 38.0977
c-2.49414 5.53418 -4.98047 11.0684 -7.43359 16.627l-1.71973 3.8877l-17.3945 -1.03516l-1.38574 -3.7334c-3.92871 -10.6211 -8.04492 -21.1846 -12.1533 -31.748c-8.92578 -22.9287 -18.1445 -46.6484 -25.3994 -70.6455
c-18.0381 -59.6816 -35.5137 -120.603 -52.4111 -179.519c-7.97949 -27.8359 -15.9678 -55.6719 -24.0371 -83.4834c-5.53418 -19.1064 -18.3555 -28.0234 -40.3223 -28.0234h-0.512695c-11.7373 0.0732422 -23.4746 0.0976562 -35.5303 0.0976562
c-8.86035 0 -17.8994 -0.0166016 -27.2402 -0.0244141l-26.9307 -0.0244141l-12.6094 33.248c-10.2217 26.9307 -20.5 53.9922 -30.6562 81.1025c-13.5879 36.2881 -27.1182 72.6006 -40.6406 108.913c-30.208 81.1025 -61.4512 164.969 -92.9551 247.172
c-9.7002 25.3174 -21.3965 50.2598 -32.71 74.3701c-6.09668 13.0088 -12.2021 26.0176 -18.0303 39.1406c-18.4375 41.5137 -16.9619 46.127 22.4814 70.5479l1.34473 0.831055c11.7949 7.30371 23.9893 14.8516 36.5254 20.6875
c18.9512 8.80273 34.2266 10.832 46.6729 6.18555c11.7217 -4.36914 21.0957 -14.6885 28.668 -31.5527c17.9482 -39.9648 33.6475 -81.8613 48.8242 -122.38c3.66797 -9.79785 7.33594 -19.5869 11.0361 -29.3604c5.27344 -13.9141 10.0576 -28.3496 14.6797 -42.3125
c4.44238 -13.4414 9.04785 -27.3311 14.1182 -40.8613c11.8271 -31.5605 24.29 -63.4062 37.4707 -97.127c5.88477 -15.0469 11.9814 -30.6318 18.3477 -47.0234l6.59375 -16.9541l4.98828 17.4922c2.52637 8.86816 4.71094 17.0107 6.75684 24.624
c3.97754 14.8428 7.41699 27.6562 11.8594 39.9805c20.1416 55.9238 40.5029 111.774 60.8643 167.625c17.0361 46.7383 34.0723 93.4678 50.9775 140.247c7.49902 20.7529 17.6064 30.4932 30.2324 28.9521c4.49902 -0.554688 9.20996 -0.856445 13.9941 -1.1582
c20.8174 -1.3125 40.4775 -2.55957 49.4678 -25.2354c4.87402 -12.292 9.55273 -24.665 14.2393 -37.0381c5.61621 -14.8516 11.4277 -30.208 17.4922 -45.1982c26.1162 -64.5156 52.3955 -128.958 79.8076 -196.204l40.4697 -99.2959l164.708 406.387
c37.7227 7.66992 67.7432 -9.04785 96.7939 -25.2197z" />
    <glyph glyph-name="x" unicode="x" horiz-adv-x="777" 
d="M716.418 101.73c16.3916 -16.2373 16.4102 -31.2812 1.72168 -50.1914c-52.0361 -67.0508 -69.7725 -68.7793 -131.207 -10.4102c-64.1816 60.9775 -128.771 121.523 -196.172 185.069c-68.9902 -83.0752 -136.636 -164.545 -204.762 -246.577
c-39.5166 12.3896 -69.4473 34.3564 -96.3291 64.002c72.5928 92.4902 143.963 183.439 213.394 271.911c-87.1514 98.8311 -170.96 193.881 -255.062 289.248c16.8242 33.8838 43.8691 52.0195 70.2295 70.1719c18.4541 12.707 32.7676 2.08594 46.1357 -11.958
c49.8359 -52.3545 100.233 -104.179 150.306 -156.305c23.4746 -24.4365 46.7051 -49.1182 74.5977 -78.4785c27.1836 34.3564 52.167 64.2627 75.2666 95.5547c28.0312 37.959 53.9678 77.4668 81.7705 115.605c21.4531 29.4336 36.9316 31.8867 66.2344 10.1807
c22.8799 -16.9463 55.0762 -26.6055 55.0273 -62.6572c-64.9883 -82.1221 -129.634 -163.82 -195.959 -247.638c74.4189 -71.876 145.545 -140.532 216.605 -209.262c9.56152 -9.25098 18.748 -18.9014 28.2031 -28.2666z" />
    <glyph glyph-name="y" unicode="y" horiz-adv-x="613" 
d="M499.774 671.243c76.3018 -22.668 79.3906 -30.9229 38.8877 -97.3623c-49.208 -80.6875 -96.8018 -162.386 -147.559 -242.087c-19.8965 -31.2432 -16.1875 -65.249 -20.0352 -98.0488c-8.41211 -71.6396 -12.6748 -143.769 -18.7959 -215.686
c-0.480469 -5.66504 -2.29004 -11.208 -3.27637 -15.8545c-4.08398 -2.10254 -6.55371 -4.2627 -9.27637 -4.6543c-69.0146 -9.8877 -78.7549 -2.17676 -77.7607 65.9092c0.839844 57.5059 3.17871 114.995 5.50977 172.46c1.11621 27.4121 -5.75488 49.9902 -22.041 73.832
c-40.7148 59.584 -76.5303 122.519 -114.425 184.034c-24.7383 40.1523 -49.8438 80.0762 -74.3457 120.367c-3.67578 6.04785 -4.98828 13.5391 -8.65625 23.9639c19.6523 15.5605 38.4404 31.7646 58.6143 46.0205c17.2969 12.2188 26.8828 -1.51562 34.9854 -14.1582
c25.4717 -39.7529 50.0312 -80.1084 75.8623 -119.625c29.8496 -45.6699 60.6846 -90.6885 92.8486 -138.601c71.7861 79.9863 117.774 175.117 180.48 257.622c3.50488 0.791016 6.61035 2.56836 8.98242 1.86719z" />
    <glyph glyph-name="y" unicode="&#xff;" horiz-adv-x="613" 
d="M499.774 671.243c76.3018 -22.668 79.3906 -30.9229 38.8877 -97.3623c-49.208 -80.6875 -96.8018 -162.386 -147.559 -242.087c-19.8965 -31.2432 -16.1875 -65.249 -20.0352 -98.0488c-8.41211 -71.6396 -12.6748 -143.769 -18.7959 -215.686
c-0.480469 -5.66504 -2.29004 -11.208 -3.27637 -15.8545c-4.08398 -2.10254 -6.55371 -4.2627 -9.27637 -4.6543c-69.0146 -9.8877 -78.7549 -2.17676 -77.7607 65.9092c0.839844 57.5059 3.17871 114.995 5.50977 172.46c1.11621 27.4121 -5.75488 49.9902 -22.041 73.832
c-40.7148 59.584 -76.5303 122.519 -114.425 184.034c-24.7383 40.1523 -49.8438 80.0762 -74.3457 120.367c-3.67578 6.04785 -4.98828 13.5391 -8.65625 23.9639c19.6523 15.5605 38.4404 31.7646 58.6143 46.0205c17.2969 12.2188 26.8828 -1.51562 34.9854 -14.1582
c25.4717 -39.7529 50.0312 -80.1084 75.8623 -119.625c29.8496 -45.6699 60.6846 -90.6885 92.8486 -138.601c71.7861 79.9863 117.774 175.117 180.48 257.622c3.50488 0.791016 6.61035 2.56836 8.98242 1.86719z" />
    <glyph glyph-name="y" unicode="&#xfd;" horiz-adv-x="613" 
d="M499.774 671.243c76.3018 -22.668 79.3906 -30.9229 38.8877 -97.3623c-49.208 -80.6875 -96.8018 -162.386 -147.559 -242.087c-19.8965 -31.2432 -16.1875 -65.249 -20.0352 -98.0488c-8.41211 -71.6396 -12.6748 -143.769 -18.7959 -215.686
c-0.480469 -5.66504 -2.29004 -11.208 -3.27637 -15.8545c-4.08398 -2.10254 -6.55371 -4.2627 -9.27637 -4.6543c-69.0146 -9.8877 -78.7549 -2.17676 -77.7607 65.9092c0.839844 57.5059 3.17871 114.995 5.50977 172.46c1.11621 27.4121 -5.75488 49.9902 -22.041 73.832
c-40.7148 59.584 -76.5303 122.519 -114.425 184.034c-24.7383 40.1523 -49.8438 80.0762 -74.3457 120.367c-3.67578 6.04785 -4.98828 13.5391 -8.65625 23.9639c19.6523 15.5605 38.4404 31.7646 58.6143 46.0205c17.2969 12.2188 26.8828 -1.51562 34.9854 -14.1582
c25.4717 -39.7529 50.0312 -80.1084 75.8623 -119.625c29.8496 -45.6699 60.6846 -90.6885 92.8486 -138.601c71.7861 79.9863 117.774 175.117 180.48 257.622c3.50488 0.791016 6.61035 2.56836 8.98242 1.86719z" />
    <glyph glyph-name="z" unicode="z" horiz-adv-x="593" 
d="M526.067 88.374c23.7852 -30.9736 10.9326 -61.0996 16.0273 -94.2178c-20.3047 -4.50781 -38.3516 -12.2188 -56.2598 -11.8926c-116.079 2.13574 -232.134 6.05664 -348.196 9.29297c-14.541 0.407227 -29.1396 -0.448242 -43.6406 0.464844
c-43.7139 2.76367 -57.8232 32.1729 -35.6035 68.502c52.3623 85.627 103.673 171.897 154.674 258.339c42.0508 71.2646 83.9717 142.521 138.266 205.537c4.54785 5.27344 7.28613 12.1045 16.4727 27.7627h-258.046c-4.54785 32.4248 -8.53418 60.8799 -12.9932 92.6523
c17.9893 3.80664 31.9688 8.69727 46.168 9.44727c70.7266 3.74121 141.51 6.33301 212.269 9.46289c42.2627 1.86621 84.5908 2.97461 126.74 6.32422c35.5469 2.82031 49.4365 -19.7666 62.1436 -47.5049c-51.4248 -87.6074 -102.385 -175.614 -154.519 -262.92
c-51.9951 -87.0527 -105.164 -173.405 -159.229 -262.382c99.4912 -2.9834 198.869 -5.9668 295.728 -8.86816z" />
    <glyph glyph-name="nonbreakingspace" unicode="&#xa0;" horiz-adv-x="313" 
 />
    <glyph glyph-name="softhyphen" unicode="&#xad;" horiz-adv-x="0" 
 />
    <glyph glyph-name="agrave" unicode="&#xe0;" horiz-adv-x="683" 
d="M620.039 74.0742c4.83398 -12.9355 9.08301 -26.085 14.0547 -40.4307c-24.1602 -10.417 -45.8418 -21.1357 -68.5176 -29.1729c-27.3145 -9.67578 -41.7578 -4.25488 -55.085 22.3418c-20.7852 41.4805 -39.459 83.9717 -58.8506 126.112
c-6.40625 13.9219 -12.2666 28.0723 -19.6592 45.0508c-63.9941 -4.88281 -127.589 -9.73242 -188.127 -14.3457c-37.6904 -64.3848 -72.4629 -123.773 -107.398 -183.455c-35.9053 0.692383 -57.457 25.6426 -81.0791 44.7979
c-7.04297 5.70605 -9.14551 23.7686 -5.85254 33.7695c7.84082 23.8418 19.3008 46.7139 30.957 69.1621c73.3838 141.331 147.199 282.442 220.909 423.603c7.80859 14.9492 17.4678 29.1973 23.4424 44.7988c9.41406 24.5752 28.4463 28.4062 51.6689 28.4473
c24.3555 0.0410156 35.5059 -12.7559 43.1436 -33.5654c39.6875 -108.156 80.125 -216.044 120.44 -323.972c26.5479 -71.0771 53.373 -142.064 79.9531 -213.142zM277.714 282.055c43.7227 0 81.7949 0.00195312 124.906 0.00976562
c-9.36523 24.502 -18.0459 46.0938 -25.8789 67.9707c-8.19141 22.8721 -15.5684 46.0293 -23.3037 69.0645c-2.77148 0.170898 -5.55078 0.333984 -8.32227 0.504883c-21.7549 -44.4072 -43.5186 -88.8145 -67.4014 -137.55zM374.229 675.735
c-38.9863 1.19043 -74.1738 31.9824 -73.1875 64.0488c1.28809 41.75 40.2578 82.9697 77.2305 81.6904c32.4248 -1.125 67.8652 -44.1953 67.4658 -81.9912c-0.375 -35.6768 -33.1748 -64.9141 -71.5088 -63.748z" />
    <glyph glyph-name="acircumflex" unicode="&#xe2;" horiz-adv-x="683" 
d="M620.039 74.0742c4.83398 -12.9355 9.08301 -26.085 14.0547 -40.4307c-24.1602 -10.417 -45.8418 -21.1357 -68.5176 -29.1729c-27.3145 -9.67578 -41.7578 -4.25488 -55.085 22.3418c-20.7852 41.4805 -39.459 83.9717 -58.8506 126.112
c-6.40625 13.9219 -12.2666 28.0723 -19.6592 45.0508c-63.9941 -4.88281 -127.589 -9.73242 -188.127 -14.3457c-37.6904 -64.3848 -72.4629 -123.773 -107.398 -183.455c-35.9053 0.692383 -57.457 25.6426 -81.0791 44.7979
c-7.04297 5.70605 -9.14551 23.7686 -5.85254 33.7695c7.84082 23.8418 19.3008 46.7139 30.957 69.1621c73.3838 141.331 147.199 282.442 220.909 423.603c7.80859 14.9492 17.4678 29.1973 23.4424 44.7988c9.41406 24.5752 28.4463 28.4062 51.6689 28.4473
c24.3555 0.0410156 35.5059 -12.7559 43.1436 -33.5654c39.6875 -108.156 80.125 -216.044 120.44 -323.972c26.5479 -71.0771 53.373 -142.064 79.9531 -213.142zM277.714 282.055c43.7227 0 81.7949 0.00195312 124.906 0.00976562
c-9.36523 24.502 -18.0459 46.0938 -25.8789 67.9707c-8.19141 22.8721 -15.5684 46.0293 -23.3037 69.0645c-2.77148 0.170898 -5.55078 0.333984 -8.32227 0.504883c-21.7549 -44.4072 -43.5186 -88.8145 -67.4014 -137.55zM374.229 675.735
c-38.9863 1.19043 -74.1738 31.9824 -73.1875 64.0488c1.28809 41.75 40.2578 82.9697 77.2305 81.6904c32.4248 -1.125 67.8652 -44.1953 67.4658 -81.9912c-0.375 -35.6768 -33.1748 -64.9141 -71.5088 -63.748z" />
    <glyph glyph-name="adieresis" unicode="&#xe4;" horiz-adv-x="683" 
d="M620.039 74.0742c4.83398 -12.9355 9.08301 -26.085 14.0547 -40.4307c-24.1602 -10.417 -45.8418 -21.1357 -68.5176 -29.1729c-27.3145 -9.67578 -41.7578 -4.25488 -55.085 22.3418c-20.7852 41.4805 -39.459 83.9717 -58.8506 126.112
c-6.40625 13.9219 -12.2666 28.0723 -19.6592 45.0508c-63.9941 -4.88281 -127.589 -9.73242 -188.127 -14.3457c-37.6904 -64.3848 -72.4629 -123.773 -107.398 -183.455c-35.9053 0.692383 -57.457 25.6426 -81.0791 44.7979
c-7.04297 5.70605 -9.14551 23.7686 -5.85254 33.7695c7.84082 23.8418 19.3008 46.7139 30.957 69.1621c73.3838 141.331 147.199 282.442 220.909 423.603c7.80859 14.9492 17.4678 29.1973 23.4424 44.7988c9.41406 24.5752 28.4463 28.4062 51.6689 28.4473
c24.3555 0.0410156 35.5059 -12.7559 43.1436 -33.5654c39.6875 -108.156 80.125 -216.044 120.44 -323.972c26.5479 -71.0771 53.373 -142.064 79.9531 -213.142zM277.714 282.055c43.7227 0 81.7949 0.00195312 124.906 0.00976562
c-9.36523 24.502 -18.0459 46.0938 -25.8789 67.9707c-8.19141 22.8721 -15.5684 46.0293 -23.3037 69.0645c-2.77148 0.170898 -5.55078 0.333984 -8.32227 0.504883c-21.7549 -44.4072 -43.5186 -88.8145 -67.4014 -137.55zM458.137 675.735
c-38.9941 1.19043 -74.1816 31.9824 -73.1875 64.0488c1.28809 41.75 40.2578 82.9697 77.2305 81.6904c32.4248 -1.125 67.8652 -44.1953 67.4658 -81.9912c-0.375 -35.6768 -33.1748 -64.9141 -71.5088 -63.748zM264.697 675.732
c-38.9941 1.19043 -74.1816 31.9834 -73.1875 64.0498c1.28809 41.75 40.2578 82.9697 77.2305 81.6904c32.4248 -1.125 67.8652 -44.1953 67.4658 -81.9912c-0.375 -35.6768 -33.1748 -64.915 -71.5088 -63.749z" />
    <glyph glyph-name="egrave" unicode="&#xe8;" horiz-adv-x="339" 
d="M247.355 109.746c30.7051 -0.798828 39.5654 -8.04492 42.1572 -37.5352c1.85059 -21.0137 0.359375 -42.3037 0.359375 -66.6914c-40.25 0 -76.4814 0.692383 -112.664 -0.196289c-36.5488 -0.896484 -73.0654 -3.36621 -113.315 -5.32227
c-5.26562 35.9873 -13.3926 69.3418 -14.3955 102.892c-2.29883 77.0439 -1.24707 154.186 -1.3125 231.286c-0.0732422 83.1895 0.130859 166.379 0.196289 249.568c0.0078125 15.3975 0 30.7949 0 51.9229c33.835 2.90137 62.5918 5.99902 91.4307 7.68652
c38.3828 2.25 76.8154 4.01855 115.248 4.8252c26.9795 0.570312 33.916 -6.03223 34.9268 -32.4658c0.961914 -25.3252 0.204102 -50.708 0.204102 -80.582h-130.213c-8.02051 -50.1123 4.01855 -94.9189 7.85742 -139.799
c0.521484 -6.08105 16.8887 -14.6396 26.5557 -15.5117c24.5752 -2.22559 49.5088 -0.742188 76.5381 -0.742188v-79.1377c-34.6582 -5.19238 -68.4121 -10.2461 -103.201 -15.4551v-174.611c29.6699 0 54.6689 0.521484 79.6279 -0.130859zM170.092 680.775
c-38.9941 1.19043 -74.1816 31.9834 -73.1875 64.0498c1.28809 41.75 40.2578 82.9697 77.2305 81.6904c32.4248 -1.125 67.8652 -44.1953 67.4658 -81.9912c-0.375 -35.6768 -33.1748 -64.915 -71.5088 -63.749z" />
    <glyph glyph-name="eacute" unicode="&#xe9;" horiz-adv-x="339" 
d="M247.355 109.746c30.7051 -0.798828 39.5654 -8.04492 42.1572 -37.5352c1.85059 -21.0137 0.359375 -42.3037 0.359375 -66.6914c-40.25 0 -76.4814 0.692383 -112.664 -0.196289c-36.5488 -0.896484 -73.0654 -3.36621 -113.315 -5.32227
c-5.26562 35.9873 -13.3926 69.3418 -14.3955 102.892c-2.29883 77.0439 -1.24707 154.186 -1.3125 231.286c-0.0732422 83.1895 0.130859 166.379 0.196289 249.568c0.0078125 15.3975 0 30.7949 0 51.9229c33.835 2.90137 62.5918 5.99902 91.4307 7.68652
c38.3828 2.25 76.8154 4.01855 115.248 4.8252c26.9795 0.570312 33.916 -6.03223 34.9268 -32.4658c0.961914 -25.3252 0.204102 -50.708 0.204102 -80.582h-130.213c-8.02051 -50.1123 4.01855 -94.9189 7.85742 -139.799
c0.521484 -6.08105 16.8887 -14.6396 26.5557 -15.5117c24.5752 -2.22559 49.5088 -0.742188 76.5381 -0.742188v-79.1377c-34.6582 -5.19238 -68.4121 -10.2461 -103.201 -15.4551v-174.611c29.6699 0 54.6689 0.521484 79.6279 -0.130859zM170.092 680.775
c-38.9941 1.19043 -74.1816 31.9834 -73.1875 64.0498c1.28809 41.75 40.2578 82.9697 77.2305 81.6904c32.4248 -1.125 67.8652 -44.1953 67.4658 -81.9912c-0.375 -35.6768 -33.1748 -64.915 -71.5088 -63.749z" />
    <glyph glyph-name="ecircumflex" unicode="&#xea;" horiz-adv-x="339" 
d="M247.355 109.746c30.7051 -0.798828 39.5654 -8.04492 42.1572 -37.5352c1.85059 -21.0137 0.359375 -42.3037 0.359375 -66.6914c-40.25 0 -76.4814 0.692383 -112.664 -0.196289c-36.5488 -0.896484 -73.0654 -3.36621 -113.315 -5.32227
c-5.26562 35.9873 -13.3926 69.3418 -14.3955 102.892c-2.29883 77.0439 -1.24707 154.186 -1.3125 231.286c-0.0732422 83.1895 0.130859 166.379 0.196289 249.568c0.0078125 15.3975 0 30.7949 0 51.9229c33.835 2.90137 62.5918 5.99902 91.4307 7.68652
c38.3828 2.25 76.8154 4.01855 115.248 4.8252c26.9795 0.570312 33.916 -6.03223 34.9268 -32.4658c0.961914 -25.3252 0.204102 -50.708 0.204102 -80.582h-130.213c-8.02051 -50.1123 4.01855 -94.9189 7.85742 -139.799
c0.521484 -6.08105 16.8887 -14.6396 26.5557 -15.5117c24.5752 -2.22559 49.5088 -0.742188 76.5381 -0.742188v-79.1377c-34.6582 -5.19238 -68.4121 -10.2461 -103.201 -15.4551v-174.611c29.6699 0 54.6689 0.521484 79.6279 -0.130859zM170.092 680.775
c-38.9941 1.19043 -74.1816 31.9834 -73.1875 64.0498c1.28809 41.75 40.2578 82.9697 77.2305 81.6904c32.4248 -1.125 67.8652 -44.1953 67.4658 -81.9912c-0.375 -35.6768 -33.1748 -64.915 -71.5088 -63.749z" />
    <glyph glyph-name="edieresis" unicode="&#xeb;" horiz-adv-x="421" 
d="M317.914 535.132c-46.5342 0 -87.1328 0 -130.22 -0.0078125c-8.02051 -50.1123 4.01855 -94.9189 7.85742 -139.799c0.521484 -6.08105 16.8887 -14.6396 26.5557 -15.5117c24.5752 -2.22559 49.5088 -0.742188 76.5381 -0.742188v-79.1377
c-34.6582 -5.19238 -68.4121 -10.2461 -103.201 -15.4551v-174.611c29.6699 0 54.6689 0.521484 79.627 -0.130859c30.7051 -0.798828 39.5654 -8.04492 42.166 -37.5273c1.85059 -21.0137 0.359375 -42.3037 0.359375 -66.6914
c-40.25 0 -76.4814 0.692383 -112.664 -0.196289c-36.5488 -0.896484 -73.0654 -3.36621 -113.315 -5.32227c-5.26562 35.9873 -13.3926 69.3418 -14.3955 102.892c-2.29883 77.0439 -1.24707 154.186 -1.3125 231.286c-0.0732422 83.1895 0.12207 166.379 0.195312 249.568
c0.0078125 15.3975 0 30.7949 0 51.9229c33.835 2.90137 62.5918 5.99902 91.4307 7.68652c38.3828 2.25 76.8154 4.01855 115.248 4.8252c26.9795 0.570312 33.916 -6.03223 34.9268 -32.4658c0.961914 -25.3252 0.204102 -50.708 0.204102 -80.582zM192.725 744.524
c-0.382812 -35.6768 -33.1816 -64.917 -71.5078 -63.751c-38.9863 1.19043 -74.1826 31.9854 -73.1885 64.0518c1.28809 41.75 40.2578 82.9697 77.2305 81.6904c32.4248 -1.125 67.8652 -44.1953 67.4658 -81.9912zM304.655 826.506
c32.4326 -1.11621 67.874 -44.1885 67.4668 -81.9932c-0.375 -35.6768 -33.1748 -64.915 -71.5088 -63.749c-38.9863 1.19043 -74.1826 31.9854 -73.1885 64.0518c1.28809 41.75 40.2578 82.9697 77.2305 81.6904z" />
    <glyph glyph-name="icircumflex" unicode="&#xee;" horiz-adv-x="254" 
d="M204.791 72.2334c0.570312 -14.541 1.53125 -29.9062 -2.44629 -43.502c-2.9834 -10.1807 -12.96 -25.1211 -20.9395 -25.8545c-34.6338 -3.1875 -69.7891 -3.75781 -104.513 -1.54883c-18.2588 1.16602 -20.2393 19.6523 -19.9707 34.6504
c1.44238 79.6846 0.920898 159.532 6.18652 238.988c3.9209 59.1113 5.25781 117.538 -1.0918 176.486c-3.09766 28.7979 -0.538086 58.1904 -0.538086 90.501c32.6689 2.73047 63.1211 5.29785 93.5732 7.82422c23.1816 1.92383 30.7051 -9.87891 31.3574 -31.8213
c2.17676 -73.4736 5.57617 -146.923 8.68164 -220.372c3.17871 -75.1201 6.76562 -150.224 9.7002 -225.352zM126.825 647.875c-41.9775 1.2793 -79.8721 34.4385 -78.8047 68.9658c1.38574 44.9453 43.3477 89.3281 83.1572 87.9502
c34.9111 -1.20605 73.0742 -47.5771 72.6426 -88.2754c-0.407227 -38.416 -35.7178 -69.8955 -76.9951 -68.6406z" />
    <glyph glyph-name="idieresis" unicode="&#xef;" horiz-adv-x="421" 
d="M271.543 297.585c3.17871 -75.1201 6.75879 -150.223 9.70117 -225.359c0.570312 -14.5332 1.52441 -29.9062 -2.45312 -43.4941c-2.97559 -10.1807 -12.9609 -25.1211 -20.9326 -25.8545c-34.6338 -3.1875 -69.7891 -3.75781 -104.513 -1.54883
c-18.2588 1.16602 -20.2393 19.6523 -19.9707 34.6504c1.44238 79.6846 0.920898 159.532 6.18652 238.988c3.9209 59.1113 5.24902 117.538 -1.09277 176.486c-3.09766 28.7979 -0.538086 58.1904 -0.538086 90.501c32.6689 2.73047 63.1211 5.29785 93.5732 7.82422
c23.1816 1.92383 30.7051 -9.87891 31.3574 -31.8213c2.17676 -73.4736 5.57617 -146.923 8.68164 -220.372zM192.725 699.799c-0.382812 -35.6768 -33.1816 -64.916 -71.5078 -63.75c-38.9863 1.19043 -74.1826 31.9854 -73.1885 64.0518
c1.28809 41.75 40.2578 82.9697 77.2305 81.6904c32.4248 -1.125 67.8652 -44.1953 67.4658 -81.9922zM304.655 781.781c32.4326 -1.11621 67.874 -44.1885 67.4668 -81.9932c-0.375 -35.6768 -33.1748 -64.915 -71.5088 -63.749
c-38.9863 1.19043 -74.1826 31.9854 -73.1885 64.0518c1.28809 41.75 40.2578 82.9697 77.2305 81.6904z" />
    <glyph glyph-name="ucircumflex" unicode="&#xfb;" horiz-adv-x="597" 
d="M299.231 669.108c-38.9863 1.19043 -74.1738 31.9824 -73.1875 64.0488c1.28809 41.75 40.2578 82.9697 77.2305 81.6904c32.4248 -1.125 67.8652 -44.1953 67.4658 -81.9912c-0.375 -35.6768 -33.1748 -64.9141 -71.5088 -63.748zM543.201 546.604
c3.7168 -91.4795 6.92285 -183.13 4.99902 -274.617c-0.978516 -46.5176 -9.57812 -93.7939 -21.7803 -138.918c-12.9688 -47.9609 -40.9102 -88.9932 -91.9355 -107.365c-23.8662 -8.59082 -49.4854 -12.5273 -74.2725 -18.7061
c-87.8604 -21.918 -162.703 10.3516 -230.03 59.1846c-23.1406 16.7832 -39.3535 47.5938 -49.7051 75.2178c-21.5674 57.5625 -24.249 118.964 -29.6201 179.893c-8.21582 93.1094 3.91309 185.518 4.05957 278.252c0.0566406 31.8955 1.6543 34.292 35.6035 39.7451
c21.877 3.5127 44.6104 4.88184 66.6914 3.40625c19.2773 -1.2793 29.5479 -13.7012 27.7871 -34.3887c-2.69824 -31.7324 -0.839844 -64.1738 -6.79004 -95.2451c-19.9619 -104.179 -5.94238 -207.159 8.80273 -310.025
c3.05664 -21.2988 14.7373 -41.7656 24.5508 -61.6211c3.99414 -8.06934 12.4873 -16.6768 20.8906 -19.5215c27.958 -9.47168 56.3477 -19.7832 85.4229 -23.5322c37.2012 -4.80078 87.2246 39.541 101.179 82.1465c15.6338 47.7246 9.38184 95.873 7.62109 144.421
c-3.47266 95.6357 -4.45117 175.067 -5.51855 270.769c-0.155273 13.3838 5.03711 26.833 8.42773 43.543h91.8379c16.7422 -34.9434 20.2881 -56.0303 21.7793 -92.6367z" />
    <glyph glyph-name="udieresis" unicode="&#xfc;" horiz-adv-x="597" 
d="M543.2 546.605c3.7168 -91.4795 6.92188 -183.13 4.99805 -274.617c-0.978516 -46.5176 -9.57812 -93.7939 -21.7803 -138.918c-12.9688 -47.9609 -40.9102 -88.9932 -91.9355 -107.365c-23.8662 -8.59082 -49.4854 -12.5273 -74.2725 -18.7061
c-87.8604 -21.918 -162.703 10.3516 -230.03 59.1846c-23.1406 16.7832 -39.3535 47.5938 -49.7051 75.2178c-21.5674 57.5625 -24.249 118.964 -29.6201 179.893c-8.21582 93.1094 3.91309 185.518 4.05957 278.252c0.0566406 31.8955 1.6543 34.292 35.6035 39.7451
c21.877 3.5127 44.6104 4.88184 66.6914 3.40625c19.2773 -1.2793 29.5479 -13.7012 27.7871 -34.3887c-2.69824 -31.7324 -0.839844 -64.1738 -6.79004 -95.2451c-19.9619 -104.179 -5.94238 -207.159 8.80273 -310.025
c3.05664 -21.2988 14.7373 -41.7656 24.5508 -61.6211c3.99414 -8.06934 12.4873 -16.6768 20.8906 -19.5215c27.958 -9.47168 56.3477 -19.7832 85.4229 -23.5322c37.2012 -4.80078 87.2246 39.541 101.18 82.1465c15.6338 47.7246 9.38184 95.873 7.62109 144.421
c-3.47266 95.6357 -4.45117 175.067 -5.51855 270.769c-0.155273 13.3838 5.03711 26.833 8.42773 43.543h91.8379c16.7422 -34.9434 20.2881 -56.0303 21.7793 -92.6367zM405.816 686.526c-38.9863 1.19043 -74.1738 31.9824 -73.1875 64.0488
c1.28809 41.75 40.2578 82.9697 77.2305 81.6904c32.4248 -1.125 67.8652 -44.1953 67.4658 -81.9912c-0.375 -35.6768 -33.1748 -64.9141 -71.5088 -63.748zM212.377 686.523c-38.9863 1.19043 -74.1738 31.9834 -73.1875 64.0498
c1.28809 41.75 40.2578 82.9697 77.2305 81.6904c32.4248 -1.125 67.8652 -44.1953 67.4658 -81.9912c-0.375 -35.6768 -33.1748 -64.915 -71.5088 -63.749z" />
    <glyph glyph-name="emdash" unicode="&#x2014;" horiz-adv-x="730" 
d="M643.292 407.876c28.7324 0.12207 38.1865 -8.20215 37.9258 -36.1846c-0.179688 -19.0322 -4.75195 -37.9834 -6.12109 -57.0566c-1.55664 -21.7305 -11.4844 -31.7236 -33.9893 -30.8682c-19.1465 0.725586 -38.3994 -1.90723 -57.6035 -1.90723
c-152.188 0.0322266 -140.133 0.170898 -292.321 0.489258c-48.4824 -0.0244141 -96.9727 -0.0732422 -145.463 -0.0810547c-19.2041 -0.0078125 -38.457 2.63281 -57.6035 1.90723c-22.5049 -0.855469 -32.4326 9.1377 -33.9893 30.8682
c-1.36914 19.0732 -5.9502 38.0244 -6.12109 57.0566c-0.25293 27.999 9.20215 36.3135 37.9268 36.1914c1.25488 0 2.51855 -0.0078125 3.77344 -0.015625c0.0078125 0.146484 0.0244141 0.285156 0.0322266 0.431641
c3.61914 -0.155273 7.08301 -0.326172 10.6201 -0.489258c85.293 -0.382812 170.586 -0.87207 255.879 -1.73633c34.7559 -0.358398 69.5117 -0.87207 104.268 -1.39355c25.5781 0.375 51.1562 0.717773 76.7344 0.978516c90.1016 0.913086 15.9512 1.41797 106.053 1.80957
z" />
  </font>
</defs>
</svg>
