<?xml version="1.0" standalone="no"?>
<!DOCTYPE svg PUBLIC "-//W3C//DTD SVG 1.1//EN" "http://www.w3.org/Graphics/SVG/1.1/DTD/svg11.dtd" >
<svg xmlns="http://www.w3.org/2000/svg" xmlns:xlink="http://www.w3.org/1999/xlink" version="1.1">
<metadata>
Created by FontForge 20170924 at Thu Feb 26 13:59:24 2015
 By www-data
copyright missing
</metadata>
<defs>
<font id="XPLORBold-Regular" horiz-adv-x="600" >
  <font-face 
    font-family="XPLOR Bold"
    font-weight="700"
    font-stretch="normal"
    units-per-em="1000"
    panose-1="0 0 8 0 0 0 0 0 0 0"
    ascent="800"
    descent="-200"
    cap-height="726"
    bbox="0 -232.714 841.935 795.624"
    underline-thickness="50"
    underline-position="-100"
    unicode-range="U+0020-201D"
  />
<missing-glyph horiz-adv-x="500" 
d="M0 0v700h500v-700h-500zM250 395l170 255h-340zM280 350l170 -255v510zM80 50h340l-170 255zM50 605v-510l170 255z" />
    <glyph glyph-name=".notdef" horiz-adv-x="500" 
d="M0 0v700h500v-700h-500zM250 395l170 255h-340zM280 350l170 -255v510zM80 50h340l-170 255zM50 605v-510l170 255z" />
    <glyph glyph-name="A" unicode="A" horiz-adv-x="425" 
d="M74 108c-29 -2 -54 26 -54 54c0 30 25 51 54 53c15 1 18 1 36 -1l120 478c16 61 102 44 105 -14c2 -28 3 -55 5 -83c15 -264 30 -479 45 -743c4 -69 -102 -69 -106 0c-2 27 -4 55 -5 83c-3 50 -5 52 -8 102c-4 3 -7 6 -11 10l-10 9c-1 1 -15 11 -18 13
c-9 5 -18 10 -27 14c-4 2 -8 3 -12 5l-13 -52c-17 -67 -120 -38 -103 28c4 16 8 31 11 46c-3 -1 -7 -2 -9 -2zM258 695c-4 -1 -7 -5 -6 -10c2 -4 6 -6 10 -5c0 0 1 0 3 1h9c4 0 8 -1 12 -3c5 -3 8 -7 11 -13c0 -2 1 -4 1 -6l1 -1v-1v-3c1 -4 2 -9 2 -13c2 -9 2 -19 3 -29
c2 -9 3 -20 3 -30l3 -32c7 -84 13 -169 13 -169s-2 85 -5 170c0 11 -1 21 -1 32c-1 10 -1 20 -2 30c0 10 -1 20 -2 29c0 5 0 9 -1 14v3v1v1l-1 1c0 3 -1 5 -1 7c-3 9 -9 17 -16 21c-6 4 -13 6 -19 6c-5 1 -9 1 -12 0c-3 0 -5 -1 -5 -1zM145 485c-4 1 -7 5 -5 9l10 42
c2 4 6 6 10 5s7 -5 6 -10l-11 -41c-1 -3 -4 -6 -8 -6c0 0 -1 0 -2 1zM89 263h-2c-4 1 -7 5 -6 10l53 198c1 5 5 7 9 6c5 -1 7 -5 6 -10l-52 -199c-1 -3 -5 -5 -8 -5zM258 173l-9 157c-12 -46 -23 -92 -35 -138c13 -5 27 -10 39 -17c2 0 3 -1 5 -2z" />
    <glyph glyph-name="B" unicode="B" horiz-adv-x="532" 
d="M60 280c-9 7 -15 16 -18 27c-6 22 2 41 17 53v284c0 17 7 31 20 39c1 2 3 2 5 4c53 34 126 54 189 29c52 -21 98 -63 112 -120c14 -56 2 -111 -29 -156c34 -7 64 -22 88 -52c60 -78 68 -187 2 -263c-79 -88 -223 -116 -336 -121c-41 -2 -57 35 -49 66v2
c-1 59 -1 132 -1 208zM198 628l-1 -1c-18 -3 -28 -6 -40 -11c1 -58 1 -126 2 -195c16 5 32 11 46 19c27 15 42 24 62 45c11 14 20 29 23 47c1 3 2 4 2 5c0 5 1 10 1 15c0 2 -2 11 -2 9c0 3 -1 5 -1 8c-1 3 -7 16 -4 11c-1 3 -3 6 -5 10c-1 2 -3 5 -5 7c-1 2 -5 5 -5 7
c-2 2 -5 5 -8 7l-6 4c-4 3 -9 5 -13 7c-1 0 -1 0 -2 1h-3c-5 2 -9 3 -14 4l-2 1h-4h-15h-6zM324 340c-9 0 -19 1 -29 0c-2 -1 -5 -1 -7 -1h-3c-5 -2 -10 -3 -15 -3c-10 -3 -21 -5 -30 -9c-10 -3 -19 -6 -29 -10c-4 -2 -9 -4 -13 -5c-3 -1 -3 -2 -5 -2v-1
c-12 -4 -22 -9 -34 -15v-181c29 4 57 10 85 18c18 6 35 11 52 18l5 2c4 2 8 4 12 5c8 4 15 9 22 13c5 3 10 5 15 9c0 1 1 1 1 1c1 0 1 0 1 1c6 5 12 11 17 16c1 2 4 5 5 6c1 2 2 4 4 5l5 11s0 1 1 1v1c1 5 4 11 4 17c0 0 0 1 1 1v1c0 7 0 15 -1 23l-1 9c-2 5 -3 10 -4 15
c-4 11 -5 15 -12 26c-2 2 -3 5 -3 5c-2 1 -3 3 -4 5c-2 1 -14 10 -5 5c-3 2 -7 4 -11 7c-1 0 -2 0 -3 1h-2c-5 1 -9 3 -14 4h-4s0 1 -1 1zM413 138c-2 -4 -6 -8 -9 -11c-6 -6 -12 -12 -19 -17c-3 -3 -7 -5 -10 -8c-2 -1 -4 -3 -5 -4l-6 -3c-3 -2 -7 -5 -10 -7
c-4 -1 -6 -4 -10 -6c-8 -3 -14 -6 -21 -9c-5 -3 -11 -5 -16 -6c-5 -2 -10 -4 -14 -5c-7 -2 -11 -4 -11 -4s4 2 12 3c3 1 8 2 13 4s11 3 18 6c6 2 12 5 20 9c4 1 7 3 11 4c3 3 7 5 11 7c2 0 4 2 6 3c1 1 3 2 5 3c3 3 7 5 11 8c7 5 14 10 21 17c3 2 6 6 10 9c3 3 5 8 9 11
l9 10c3 4 5 7 7 11c3 3 5 7 7 11l6 10c1 4 3 7 5 11c1 1 1 3 2 5c1 1 1 3 1 5c2 3 2 6 4 9c1 3 1 6 1 9c2 6 3 11 3 16c1 7 1 12 1 12c0 4 -2 9 -7 9c-4 0 -8 -3 -8 -7v-2s0 -4 -1 -11c0 -3 0 -8 -1 -13c-1 -4 -1 -7 -1 -10l-3 -8c0 -2 -1 -4 -1 -5c-1 -1 -1 -4 -2 -5
c-1 -3 -2 -6 -4 -10c-2 -3 -3 -7 -4 -10c-3 -4 -4 -7 -6 -11c-3 -3 -5 -7 -8 -10l-7 -10c-3 -4 -6 -7 -9 -10z" />
    <glyph glyph-name="C" unicode="C" horiz-adv-x="580" 
d="M481 263c29 0 61 -26 59 -57c-9 -74 -46 -142 -111 -178c-61 -34 -132 -42 -197 -16c-139 56 -192 223 -183 362c8 138 72 287 210 340c50 20 113 20 163 -8c56 -32 87 -91 100 -153c7 -31 -9 -63 -41 -72c-29 -8 -66 10 -72 41c-5 23 -10 45 -24 65c-6 7 -14 14 -26 20
c1 -1 -9 3 -15 4c-1 0 -18 1 -21 0c-2 0 -26 -7 -30 -9c-38 -18 -67 -47 -89 -88c-22 -40 -35 -86 -37 -131c-6 -84 6 -206 89 -253c64 -37 156 -6 166 76c4 31 24 57 59 57zM262 688l-13 -6s5 2 13 5c4 2 10 3 16 5l10 3c3 0 7 1 11 2c4 0 8 1 11 1c5 0 9 0 13 1
c10 0 19 -1 29 -2c4 0 9 -1 14 -2c4 -1 10 -2 14 -4c10 -3 20 -7 28 -11c9 -5 17 -10 25 -17c7 -7 14 -14 19 -22c6 -7 11 -14 15 -22s7 -16 10 -23c5 -13 8 -26 10 -35c1 -4 1 -7 1 -10c1 -2 1 -3 1 -3v-1c1 -5 5 -7 9 -7c5 0 8 5 8 10c0 0 -1 1 -1 4c-1 3 -1 6 -2 11
l-12 37c-4 7 -7 15 -12 24c-5 7 -11 15 -18 23c-6 8 -13 15 -21 22c-9 7 -18 12 -28 17c-10 4 -19 8 -30 10c-5 2 -10 2 -15 3s-11 2 -15 2c-10 1 -20 0 -29 0c-4 -1 -9 -1 -13 -2c-3 0 -7 -1 -11 -2c-4 0 -8 -1 -12 -2l-10 -3c-6 -2 -11 -4 -15 -6zM61 560c-5 1 -8 6 -6 11
c22 66 91 127 94 129c4 4 10 3 13 0c3 -4 3 -10 -1 -13c-1 -1 -68 -59 -89 -122c-1 -3 -5 -6 -9 -6c-1 0 -2 0 -2 1zM58 510c0 -4 -4 -8 -9 -8h-1c-5 1 -8 5 -8 10c2 10 4 21 6 29c2 5 6 8 11 7s8 -6 7 -10c-3 -9 -5 -19 -6 -28z" />
    <glyph glyph-name="D" unicode="D" horiz-adv-x="608" 
d="M370 760c-5 0 -8 5 -7 10c1 4 6 7 10 6c2 0 49 -9 92 -38c4 -2 6 -8 3 -12c-2 -2 -5 -5 -7 -5s-4 1 -5 3c-42 26 -86 35 -86 36zM96 96v476c-20 2 -39 13 -48 29c-18 30 -5 61 21 80c30 22 73 34 110 41c58 13 120 16 178 -1c110 -29 185 -121 204 -233
c20 -113 -4 -222 -81 -310c-85 -99 -220 -167 -347 -193c-71 -15 -103 91 -37 111zM526 656c-8 17 -18 26 -31 37l5 7l8 6c13 -12 24 -23 34 -42c2 -4 0 -10 -4 -12c-2 0 -3 -1 -4 -1c-3 0 -6 2 -8 5zM87 654c2 -5 7 -7 11 -5l5 3c3 1 7 3 13 5c11 4 28 10 48 16
c10 3 20 6 32 8c12 3 24 5 38 7c13 1 27 2 41 2c13 1 27 0 41 -1l21 -3l10 -2l10 -3c13 -3 26 -8 38 -13c6 -2 11 -5 17 -8c7 -3 12 -6 17 -9c5 -4 9 -7 14 -10c5 -4 9 -7 13 -11s7 -8 11 -11c3 -3 6 -6 9 -10c5 -6 11 -12 14 -17c7 -9 11 -15 11 -15s-3 6 -10 16l-14 17
c-2 4 -6 7 -9 10c-3 4 -7 9 -11 12c-4 4 -7 8 -12 11c-4 4 -9 7 -14 11c-5 3 -10 7 -17 10c-5 3 -11 6 -17 9c-12 6 -24 11 -38 15l-10 3l-10 2c-7 2 -14 3 -22 4c-14 2 -28 4 -42 4s-29 -1 -42 -2c-15 -1 -27 -3 -39 -5s-24 -4 -34 -7c-21 -5 -39 -10 -50 -15l-14 -5
c-3 -1 -5 -2 -5 -2zM440 333c15 47 17 90 5 140c-7 29 -13 48 -29 74l-8 12c-1 1 -7 7 -7 8l-12 11c0 1 -7 6 -8 6c-8 6 -17 12 -26 16c-2 1 -3 1 -3 2h-2c-4 2 -9 3 -14 5c-9 3 -20 5 -29 7h-4c-5 1 -10 1 -15 1c-19 1 -39 1 -57 -1c-2 -1 -14 -2 -19 -3v-478c1 0 3 1 5 2
c3 1 6 3 9 4c18 8 36 17 53 27c19 10 38 22 56 35c1 0 8 6 9 6l9 8c7 6 15 13 23 21c19 21 26 28 38 47c6 10 12 19 17 29c0 0 4 10 4 9c2 4 3 8 5 12z" />
    <glyph glyph-name="E" unicode="E" horiz-adv-x="599" 
d="M558 213c6 -25 -9 -56 -37 -61c-103 -20 -203 -57 -293 -112c-16 -11 -32 -20 -47 -31c-6 -5 -14 -9 -21 -14l-10 -9c-8 -7 -16 -12 -23 -19c-30 -29 -89 -11 -86 35c4 69 8 138 11 208c-15 19 -17 47 3 64c0 3 1 6 1 10c4 81 11 163 14 243c-17 11 -28 30 -22 55
c7 33 47 44 74 53c36 15 73 28 110 40c53 19 108 37 162 55c63 20 89 -77 28 -98c-50 -15 -100 -32 -150 -48l-101 -36c-2 -73 -8 -144 -12 -216l70 37c57 31 108 -55 51 -86c-43 -22 -85 -45 -128 -69l-6 -106c106 71 230 117 349 141c27 5 54 -8 63 -36zM537 205
c0 5 -3 8 -8 8c-4 0 -8 -2 -8 -6v-2v-1v-1c0 -3 -1 -6 -4 -9c-3 -4 -9 -8 -16 -10c-7 -3 -16 -5 -26 -7c-5 -1 -9 -3 -15 -4l-4 -1c-2 0 -3 -1 -5 -1l-9 -3c-9 -3 -22 -6 -34 -10c-13 -4 -24 -8 -38 -13c-6 -2 -12 -5 -19 -7l-18 -6c-14 -5 -25 -11 -38 -17
c-12 -6 -24 -11 -35 -17c-12 -5 -23 -12 -32 -17c-10 -6 -20 -12 -28 -18c-9 -6 -17 -10 -23 -15c-7 -5 -13 -10 -18 -14s-8 -6 -10 -8l11 8c5 4 11 8 18 13c6 5 14 8 23 14c8 6 18 12 28 18c10 4 21 10 33 16l35 15c14 5 25 11 38 16c6 2 13 4 19 7c6 1 12 3 19 4
c13 5 25 8 38 12c11 4 23 7 34 10c3 0 6 1 9 1c1 1 3 1 4 1c2 1 3 1 4 1l15 3c11 2 20 4 29 7c8 3 15 7 20 12c6 4 8 10 10 15v3c0 1 0 1 1 3z" />
    <glyph glyph-name="F" unicode="F" horiz-adv-x="527" 
d="M413 731c31 6 63 -7 72 -40c7 -29 -10 -67 -41 -72c-79 -13 -156 -35 -225 -73c-5 -3 -10 -6 -14 -9l24 -291c34 12 67 24 100 36c30 11 64 -11 72 -40c9 -33 -11 -61 -41 -72c-40 -14 -80 -29 -120 -43l6 -74c3 -31 -29 -58 -58 -58c-34 0 -56 27 -59 58
c-1 17 -3 34 -4 51c-15 8 -26 21 -31 37c-6 25 4 48 23 62c-9 95 -17 191 -25 287c-33 16 -53 61 -19 94c87 86 223 128 340 147zM442 702c0 5 -5 9 -9 8h-3c-2 -1 -5 -1 -9 -1c-8 -2 -18 -3 -31 -6c-6 -1 -13 -3 -20 -4l-22 -6c-16 -4 -32 -9 -48 -15c-8 -2 -16 -6 -24 -8
c-7 -3 -15 -7 -22 -9c-8 -3 -15 -7 -21 -10l-19 -9c-5 -2 -11 -5 -15 -7l-12 -7l-10 -5s4 1 10 5c4 1 8 3 12 5c5 2 11 4 16 7c6 2 12 5 19 8c7 2 14 5 22 7c7 3 15 6 23 8s16 5 24 7c16 4 32 8 48 11c7 2 15 3 22 4s14 3 20 3c12 2 23 3 30 4c3 0 6 0 8 1h3zM64 319h-1
c-4 0 -8 3 -8 8l-15 143c-1 5 3 9 8 10c5 0 9 -3 9 -8l15 -143c0 -5 -3 -10 -8 -10zM72 240h-1c-4 0 -8 4 -8 8l-6 47c0 5 3 10 8 10c5 1 9 -3 10 -8l5 -47c0 -5 -3 -9 -8 -10z" />
    <glyph glyph-name="G" unicode="G" horiz-adv-x="627" 
d="M488 72c-49 -52 -120 -80 -192 -71c-158 21 -236 185 -245 330c-9 136 38 307 172 374c50 24 111 36 164 14c68 -29 105 -87 124 -156c20 -71 -92 -103 -113 -30c-5 18 -15 45 -24 55c-14 16 -19 20 -33 24c-2 0 -13 2 -9 2h-8c-1 0 -12 -1 -11 0l-8 -2
c-20 -5 -25 -7 -45 -22c-76 -52 -102 -171 -92 -268c8 -80 53 -206 153 -205c38 0 78 18 99 54c3 7 5 14 7 20c-14 -3 -29 -5 -43 -8c-31 -6 -62 8 -71 40c-9 29 10 67 40 73c39 7 79 13 119 20c38 8 71 -15 74 -56c0 -4 0 -8 1 -12c4 -65 -12 -128 -59 -176zM473 91l6 9
c5 7 10 14 14 21s8 15 11 23c6 17 10 34 14 50c2 17 3 31 2 44c0 14 -2 24 -4 32c-1 3 -2 8 -3 10c0 1 0 2 -1 2v1c-1 3 -5 4 -8 3s-4 -5 -3 -8l2 -3c0 -2 1 -4 2 -8c2 -6 3 -16 4 -29s1 -27 0 -43c-2 -16 -5 -33 -11 -49c-2 -8 -6 -16 -9 -23c-4 -7 -8 -14 -13 -21
c-1 -3 -3 -6 -6 -9l-7 -9l-8 -8c-2 -2 -5 -3 -7 -5c-5 -6 -10 -9 -14 -12l-11 -8c4 2 7 4 11 7c5 3 10 6 15 11l8 6c2 2 5 4 8 7c2 3 5 6 8 9zM570 127c5 -1 8 -6 7 -9c-13 -49 -43 -90 -88 -120c-1 -1 -3 -1 -5 -1s-5 1 -7 3c-2 4 -1 10 2 13c42 27 69 64 81 108
c2 5 7 8 10 6zM448 -6c5 2 10 0 12 -4s1 -9 -4 -11c-28 -14 -53 -20 -54 -20l-1 -1c-4 0 -8 3 -9 9c-1 4 2 9 7 10c1 0 23 4 49 17z" />
    <glyph glyph-name="H" unicode="H" horiz-adv-x="541" 
d="M499 227c6 -21 -1 -47 -18 -61c-1 -37 -1 -74 -2 -110c-1 -77 -120 -77 -119 0c0 25 0 50 1 74c-49 -12 -97 -28 -145 -45l3 -164c1 -77 -118 -77 -119 0l-3 122c-25 1 -49 22 -55 45c-10 35 11 61 41 74c4 1 8 3 12 4c-2 147 -5 293 -8 439c-1 78 118 78 120 0
c2 -131 4 -263 7 -395c49 17 98 32 148 44l6 423c1 77 120 77 119 0c-1 -141 -3 -281 -5 -422c8 -7 14 -16 17 -28zM152 625h3c4 0 7 2 7 6c0 3 -3 6 -6 6h-5c-3 -1 -8 -2 -13 -5s-10 -8 -15 -15c-4 -7 -7 -14 -9 -23c-1 -5 -2 -10 -2 -15v-7v-4v-3v-32v-33
c1 -11 1 -22 1 -34l3 -67c1 -22 1 -42 2 -60c2 -33 2 -56 2 -57v57v60c0 21 0 44 -1 67v34c0 12 1 23 1 33c0 11 0 22 1 32v6c0 3 0 5 1 7c0 5 1 9 2 13c2 8 5 14 9 20c3 5 7 8 11 10c4 3 7 3 8 4z" />
    <glyph glyph-name="I" unicode="I" horiz-adv-x="343" 
d="M95 584c-24 2 -47 19 -53 43c-9 31 10 63 40 72l96 27c30 9 63 -10 71 -41c8 -30 -9 -61 -38 -70c3 -162 7 -323 10 -484l9 3c73 19 104 -94 31 -113l-148 -39c-72 -19 -103 94 -31 113l23 6c-3 161 -6 322 -10 483zM179 587c-3 0 -5 -3 -5 -6l14 -378l-3 379
c0 3 -2 5 -6 5z" />
    <glyph glyph-name="J" unicode="J" horiz-adv-x="477" 
d="M193 705l183 24c32 4 61 -31 61 -61c-1 -34 -1 -68 -1 -102c-1 -90 -2 -180 -2 -270c-1 -53 -2 -105 -21 -155c-19 -51 -51 -104 -103 -126c-57 -25 -135 -33 -188 6c-64 48 -90 130 -80 209c4 33 25 61 60 61c30 0 66 -28 61 -61c0 -4 -1 -8 -1 -12c-1 -13 -1 -26 1 -40
l4 -20c1 -5 3 -10 4 -14c1 0 1 -1 1 -1s1 -1 1 -2c1 -2 9 -12 7 -11c2 -1 3 -3 4 -4c2 -1 7 -5 8 -5l2 -2c1 0 2 0 4 -1c0 0 17 -2 11 -2c6 0 13 -1 19 0h6c1 0 3 1 5 1c1 1 16 6 12 4l14 8c1 2 8 7 8 8c1 1 12 14 5 4c3 4 6 8 8 13c3 5 6 10 8 15c0 1 1 2 1 2c0 1 1 1 1 2
c4 10 7 21 9 30l5 26c0 5 1 10 1 15c1 7 1 14 1 21c1 111 2 222 2 335c-40 -6 -81 -11 -121 -17c-33 -5 -61 31 -61 61c0 36 28 56 61 61zM407 637v10c0 6 -1 12 -2 18c-2 5 -4 11 -8 17c-4 5 -9 9 -14 11c-10 5 -20 6 -29 6s-15 -1 -21 -2h-13c-2 -1 -4 -1 -4 -1h-1
c-4 -1 -7 -6 -6 -11s5 -8 10 -8c0 0 1 1 4 1c3 1 8 1 13 2l18 3c7 0 15 -1 22 -4c6 -3 11 -10 14 -18c2 -4 3 -10 3 -15v-8v-8c0 -24 0 -50 1 -74c2 -101 6 -200 6 -200s1 99 4 200c1 24 1 49 3 73v8z" />
    <glyph glyph-name="K" unicode="K" horiz-adv-x="592" 
d="M493 224c79 -3 79 -125 0 -122c-115 5 -236 51 -328 126c0 -56 0 -113 1 -169c0 -79 -121 -79 -122 0c-1 206 -2 411 -4 617c0 78 121 78 122 0c0 -85 1 -170 1 -255c89 68 168 161 199 268c22 76 139 44 110 -23c-30 -140 -122 -255 -232 -340c8 -6 15 -11 21 -16
c69 -49 147 -83 232 -86zM261 390c-7 -7 -12 -11 -12 -11l13 10c4 3 8 7 14 11l17 16c3 3 7 6 10 9c2 4 6 7 9 11c3 2 7 6 11 10c3 4 6 8 10 12l11 13c3 4 6 8 10 13c3 5 7 9 10 14c3 4 6 9 10 14c6 8 11 18 17 28s11 20 17 29c5 10 10 19 14 28c4 8 8 17 11 25
c7 16 12 29 16 39l4 11c0 3 1 4 1 4v1c1 4 -2 9 -7 10s-10 -2 -11 -7c0 0 0 -1 -1 -3s-2 -6 -3 -11c-3 -9 -7 -22 -13 -38c-3 -8 -6 -17 -10 -26l-13 -27c-4 -10 -9 -20 -13 -29l-17 -30c-3 -4 -6 -9 -9 -14c-3 -4 -6 -9 -9 -14c-4 -4 -7 -9 -10 -13c-3 -5 -6 -9 -10 -13
c-3 -5 -6 -9 -9 -13l-10 -11c-3 -3 -5 -7 -8 -10l-10 -10c-6 -6 -11 -12 -16 -16c-5 -5 -10 -9 -14 -12zM399 436c34 40 74 98 79 146c1 5 5 9 10 8c5 0 9 -5 8 -10c-5 -52 -47 -114 -82 -156c-2 -2 -5 -3 -7 -3s-4 1 -6 2c-4 3 -5 9 -2 13zM381 413c3 4 8 4 12 1
c4 -4 4 -10 1 -13c-19 -23 -34 -37 -34 -38c-2 -1 -4 -2 -7 -2c-2 0 -4 1 -6 2c-4 4 -4 10 0 14c0 0 15 14 34 36z" />
    <glyph glyph-name="L" unicode="L" horiz-adv-x="336" 
d="M294 119c9 -33 -10 -67 -43 -76c-1 0 -1 -1 -2 -1c-44 -12 -87 -24 -130 -37c-39 -11 -79 20 -79 60v66v158v189v159v66c0 34 28 62 62 62s62 -28 62 -62v-66v-158v-189v-142l54 15c32 9 67 -11 76 -44zM137 722c-4 0 -6 -3 -6 -6l6 -523l6 523c0 3 -3 6 -6 6z" />
    <glyph glyph-name="M" unicode="M" horiz-adv-x="704" 
d="M584 -109c-4 -81 -131 -81 -127 0c7 166 23 332 42 497c-42 -72 -84 -144 -126 -215c-29 -50 -99 -36 -116 15c-20 59 -39 119 -59 178c-10 -102 -21 -204 -31 -306c-3 -34 -26 -63 -63 -63c-32 0 -67 29 -64 63c21 202 41 404 61 606c7 71 101 88 124 17
c37 -108 73 -217 109 -325l211 360c29 51 127 34 118 -32c-35 -263 -68 -529 -79 -795zM552 -125c4 6 7 12 10 19c4 14 6 30 6 46c1 9 1 17 1 26v13v14c1 19 1 38 2 59c2 20 3 41 4 62c2 22 3 43 5 65c3 43 7 87 10 127c4 41 7 79 9 112l10 108s-5 -43 -12 -108l-13 -111
c-4 -41 -9 -84 -13 -127c-3 -22 -5 -43 -7 -65l-6 -63c-1 -20 -2 -40 -3 -58c0 -5 -1 -10 -1 -14v-14c-1 -9 -1 -17 -2 -25c-1 -16 -3 -30 -7 -41c-4 -12 -10 -19 -16 -22c-5 -2 -12 -2 -15 -1c-2 0 -4 1 -5 1l-2 1h-1c-5 1 -10 -2 -11 -7s2 -10 7 -12h2c1 0 2 -1 6 -1
c3 -1 7 -1 12 -1c4 0 10 1 15 4c6 3 11 7 15 13z" />
    <glyph glyph-name="N" unicode="N" horiz-adv-x="565" 
d="M482 776c27 -8 51 -41 40 -71c-41 -104 -66 -215 -84 -326c-17 -108 -28 -218 -19 -328c2 -25 -19 -48 -42 -55c-27 -7 -49 6 -65 27c-33 44 -54 100 -72 151c-17 47 -32 94 -46 141c-5 -56 -10 -113 -16 -171c-8 -97 -17 -193 -24 -290c-1 -31 -23 -57 -57 -57
c-29 0 -59 26 -57 57c8 101 16 203 25 304c15 157 28 317 58 473c10 55 99 54 111 0c16 -80 36 -159 58 -237c6 -27 14 -53 22 -79c4 29 7 58 12 86c18 114 43 228 85 335c11 29 38 49 71 40zM498 705c2 6 3 12 3 18c0 5 -2 11 -5 16s-7 8 -11 10c-7 4 -14 5 -18 5
c-2 1 -4 1 -5 1h-1c-5 -1 -9 -5 -9 -10c1 -4 5 -8 10 -7h4c3 0 7 -1 12 -3c4 -2 7 -6 7 -13c0 -3 0 -8 -1 -13s-2 -9 -4 -15c-12 -45 -26 -104 -40 -164s-26 -120 -33 -165c-2 -12 -3 -22 -4 -32c-2 -9 -2 -17 -2 -23l3 23c1 9 3 20 6 31c8 45 22 105 38 164
c15 59 32 118 45 162c2 6 4 11 5 15zM452 106c5 1 10 -2 10 -7l3 -24c0 -5 -3 -9 -8 -10c-5 0 -9 4 -9 9l-3 22c-1 5 3 10 7 10zM457 55c5 0 7 -5 7 -9c-4 -42 -25 -63 -42 -73c-19 -11 -36 -13 -36 -13h-1c-5 0 -8 2 -8 7c-1 5 3 9 7 10c2 0 57 5 63 70c1 5 5 9 10 8z" />
    <glyph glyph-name="O" unicode="O" horiz-adv-x="580" 
d="M341 721c152 -43 199 -223 199 -361c-1 -80 -15 -160 -53 -230c-30 -56 -82 -110 -146 -126c-66 -18 -131 0 -182 43c-121 99 -137 299 -103 442c30 126 136 273 285 232zM289 122c29 1 59 19 82 58c31 54 42 116 43 180c0 60 -8 127 -40 180c-8 13 -11 18 -20 28
c-5 5 -9 10 -15 14l-3 3c-6 3 -10 6 -15 9c-1 1 -2 2 -3 2s-2 1 -4 1s-16 3 -11 3h-9c-30 0 -60 -19 -83 -58c-31 -53 -43 -117 -43 -179s8 -127 40 -180c8 -13 11 -19 20 -29c5 -5 9 -11 15 -14l2 -2c6 -3 11 -7 16 -10l3 -2c1 0 2 0 4 -1c2 0 17 -2 12 -2c3 -1 6 -1 9 -1z
M514 310c0 10 1 19 1 27v20c-1 11 -1 18 -1 18v-18c0 -6 0 -13 -1 -20c0 -8 -1 -17 -2 -27c0 -6 -1 -11 -2 -16c-1 -6 -1 -11 -3 -17l-3 -16c-2 -6 -3 -11 -5 -17c-1 -6 -3 -12 -5 -18l-6 -18c-3 -5 -5 -11 -8 -17s-5 -12 -8 -18c-7 -11 -12 -23 -20 -33
c-7 -10 -15 -20 -24 -29c-17 -18 -35 -32 -50 -41c-16 -11 -31 -17 -41 -21c-5 -2 -9 -3 -10 -3c-1 -1 -4 -1 -4 -1c-5 0 -9 -5 -9 -10c1 -5 5 -9 11 -9l4 1c4 1 9 3 15 5c11 4 26 12 43 24c16 12 34 27 51 46c9 10 16 21 23 32c7 10 13 23 19 35c3 6 5 12 8 18s5 13 7 19
c2 5 4 11 6 18c1 6 3 12 4 18c2 6 3 12 4 18l3 17c1 5 1 11 2 16c0 5 1 11 1 17z" />
    <glyph glyph-name="P" unicode="P" horiz-adv-x="528" 
d="M430 367c-55 -66 -138 -104 -222 -126c0 -61 1 -122 1 -183c0 -77 -119 -77 -119 0l-3 576c0 23 10 38 23 48l6 5c66 41 154 65 229 35c64 -25 118 -76 136 -145c19 -75 -2 -151 -51 -210zM389 640l13 -16c8 -11 13 -19 16 -26l4 -8c1 -2 1 -3 1 -3v-1c3 -4 8 -6 13 -4
s7 8 5 12l-2 4c-1 2 -3 5 -5 8c-4 7 -10 17 -19 28c-5 5 -10 11 -16 16c-6 6 -12 11 -19 16c-7 6 -15 10 -23 14c-8 5 -17 8 -26 11c-4 2 -9 3 -13 4l-14 3c-4 0 -8 1 -12 1c-5 1 -9 1 -13 1h-13c-4 0 -8 0 -12 -1c-4 0 -8 0 -12 -1l-10 -1c-7 -2 -13 -3 -19 -4
c-5 -2 -10 -3 -12 -4c-8 -2 -12 -4 -12 -4l12 3c3 1 7 2 13 3l18 3h11c3 1 7 1 11 1h12c4 0 8 -1 12 -1s9 -1 13 -2c4 0 7 -1 12 -2l12 -3c5 -2 9 -3 13 -5c8 -3 16 -7 23 -12c8 -4 15 -9 21 -14c7 -5 12 -11 17 -16zM59 618l1 -40c0 -5 -5 -9 -10 -9s-10 4 -10 9v39
c0 6 4 10 9 10zM369 523l-1 12c-1 3 -1 6 -2 10c-1 3 -8 19 -5 13c-1 4 -3 7 -5 11c-2 3 -4 6 -7 9c-2 2 -5 7 -6 8l-10 9c-2 1 -6 4 -8 5l-15 9h-1c-1 0 -3 1 -5 1c-5 1 -10 3 -16 4c-2 0 -2 0 -3 1h-4h-19h-7c0 -1 -1 -1 -2 -1c-21 -3 -33 -7 -47 -13c1 -79 1 -158 1 -236
c20 7 39 14 57 24c32 17 51 29 74 54c13 16 24 35 29 57c1 3 1 5 1 6zM42 406l-1 121c0 5 4 10 9 10s10 -4 10 -10l1 -121c0 -5 -4 -9 -9 -9c-6 0 -10 4 -10 9z" />
    <glyph glyph-name="Q" unicode="Q" horiz-adv-x="679" 
d="M255 8c-167 46 -229 248 -212 403c10 86 35 171 94 236c47 51 120 90 192 81c179 -23 253 -202 254 -365c-1 -31 -4 -63 -9 -94c-11 -57 -36 -115 -72 -163c40 -78 79 -156 119 -235c40 -78 -78 -148 -118 -69c-37 72 -73 143 -109 215c-41 -18 -88 -22 -139 -9zM621 489
h-3c-5 0 -9 3 -10 8c-16 69 -50 127 -100 175c-4 4 -5 10 -1 14c4 5 11 5 15 1c53 -50 89 -113 106 -185c1 -6 -2 -11 -7 -13zM225 538c-33 -51 -47 -111 -47 -171s10 -122 43 -172c12 -18 25 -32 41 -42c20 -11 28 -15 47 -14c7 0 14 1 21 2c-22 45 -45 90 -68 135
c-40 78 79 148 119 69c16 -31 31 -62 47 -92c12 35 17 72 18 110c-1 60 -10 122 -44 173c-11 17 -25 32 -40 41c-20 12 -29 15 -48 15c-32 -1 -66 -18 -89 -54zM634 341c-1 -5 -5 -8 -10 -8h-2c-6 1 -10 7 -8 12c0 1 7 37 4 89c-1 6 3 11 9 11c6 1 11 -4 11 -9
c4 -55 -4 -93 -4 -95zM492 142l-6 -11s3 4 7 11c4 6 10 17 16 29c3 6 6 13 10 20c3 7 6 15 10 23l9 25c3 9 6 18 8 27s5 18 7 27c1 5 2 9 2 14c1 4 2 9 2 13c1 4 2 9 2 13c1 4 1 8 1 12c1 8 1 16 1 23v20c-1 5 -1 10 -2 15c-1 8 -1 13 -1 13c-1 6 -7 10 -12 9
c-6 -1 -10 -7 -9 -12l1 -1s0 -4 2 -12c0 -4 1 -9 2 -14c0 -5 1 -12 2 -18v-22v-12s0 -8 -1 -13c0 -4 0 -8 -1 -12c0 -5 -1 -9 -1 -14c-1 -9 -3 -18 -5 -27c-1 -9 -4 -17 -6 -26l-8 -26c-2 -8 -5 -16 -8 -23c-2 -7 -5 -14 -8 -21c-5 -12 -10 -23 -14 -30z" />
    <glyph glyph-name="R" unicode="R" horiz-adv-x="518" 
d="M347 333l122 -203c18 -29 8 -67 -21 -83c-9 -6 -20 -9 -30 -9c-21 0 -42 10 -53 29l-121 203c-27 -12 -55 -21 -83 -27c0 -62 1 -123 1 -184c0 -77 -119 -77 -119 0l-3 576c0 23 10 38 23 48l6 5c66 41 154 65 229 36c65 -26 118 -77 136 -146c19 -75 -2 -150 -51 -210
c-11 -13 -23 -25 -36 -35zM142 686l12 3c3 1 7 2 13 3l18 3c4 0 7 0 11 1h11h12s8 -1 12 -1s9 -1 13 -1l12 -3l12 -3c5 -2 9 -3 13 -5c8 -3 16 -7 24 -11c7 -5 14 -10 20 -15c7 -5 12 -11 17 -16l13 -15c8 -11 13 -20 16 -27l4 -8c1 -2 1 -3 1 -3v-1c3 -4 8 -6 13 -4
s7 8 5 13l-2 3c-1 2 -2 5 -5 9c-4 7 -10 17 -19 27c-5 5 -10 11 -16 16c-5 6 -12 11 -19 16c-7 6 -15 10 -23 14c-8 5 -17 8 -26 11c-4 2 -9 3 -13 4l-14 3c-4 0 -8 1 -12 1c-5 1 -9 1 -13 1h-13c-4 0 -8 0 -12 -1c-4 0 -8 0 -12 -1l-10 -1c-7 -2 -13 -3 -18 -4
c-6 -2 -11 -3 -13 -4c-8 -2 -12 -4 -12 -4zM160 366c20 7 39 14 57 24c33 17 51 29 74 54c13 16 24 35 29 57c1 3 1 5 2 6v18l-1 11c-1 3 -1 7 -2 10l-5 14c-1 3 -3 6 -5 10l-6 9c-2 2 -6 7 -7 8c-3 3 -6 6 -10 9c-2 1 -6 5 -8 5c-5 3 -9 6 -16 9c-1 1 -3 1 -4 2
c-6 1 -11 3 -17 4c-1 0 -2 1 -3 1h-4h-19h-7s-1 -1 -2 -1c-21 -4 -33 -8 -47 -14c1 -78 1 -158 1 -236z" />
    <glyph glyph-name="S" unicode="S" horiz-adv-x="502" 
d="M389 340c63 -64 101 -163 48 -246c-44 -70 -125 -104 -206 -93c-95 14 -150 102 -164 190c-5 30 7 60 39 69c27 7 65 -9 70 -39c2 -14 4 -28 9 -42c0 -1 6 -16 5 -14l-2 3c1 -2 1 -3 2 -3c1 -4 3 -7 5 -11c3 -3 4 -7 7 -11l2 -3c1 -1 3 -3 3 -4c4 -4 8 -8 12 -11
c-7 4 10 -9 0 -1v1c1 -1 1 -1 2 -1c4 -3 9 -6 13 -8c-10 3 12 -6 1 0c4 -2 22 -5 20 -5c7 0 13 -1 21 0c-10 -2 8 1 0 0c0 0 1 1 3 1l11 3l9 3c-3 -2 -5 -2 5 1h-2c1 0 2 1 2 1c5 3 10 6 14 9c-1 -1 0 -1 5 3l-5 -3c2 2 11 8 13 11l3 3l4 5c2 4 5 8 7 13c-4 -13 5 11 0 0
c1 4 4 18 4 16v12c1 -1 1 0 0 5v-5c0 3 -3 15 -4 19c-1 3 -1 4 -1 5c1 -2 -1 3 0 0c-1 1 -1 1 -1 2c-3 5 -5 9 -8 13c-2 5 -5 9 -8 13l-2 3c5 -5 -5 7 0 0c-1 1 -2 2 -3 4c-16 18 -34 35 -55 49c-58 40 -116 83 -151 148c-52 98 -42 231 76 273c47 16 109 14 151 -17
c58 -43 80 -106 79 -177c-2 -73 -114 -73 -113 0c0 17 0 34 -5 50c-3 10 -9 20 -13 25l-7 6c3 -2 2 -1 0 0c-1 1 -2 1 -3 2s-9 4 -9 4l-10 4h-2c11 0 -9 2 0 0h-2c-22 1 -30 0 -45 -12l-6 -6c-2 -2 -4 -6 -4 -7c-1 -2 -4 -9 -4 -8c-1 -3 -2 -6 -2 -9c0 -1 0 -1 -1 -1v-9v-12
c1 -1 2 -10 2 -11c2 -6 3 -12 5 -17c6 -14 20 -40 34 -57c45 -50 106 -78 152 -126zM206 690l-12 -3s4 1 12 2c4 1 9 1 15 2c3 0 6 1 9 1h10h6h5c4 0 8 0 12 -1c4 0 8 -1 12 -1l13 -3c8 -3 17 -6 25 -11c8 -4 15 -10 21 -16c7 -6 13 -13 17 -21c5 -8 9 -16 12 -24
s6 -16 8 -23c2 -8 3 -15 4 -22c2 -14 2 -25 2 -33v-10c-1 -2 -1 -3 -1 -3v-1c0 -4 4 -8 9 -8c4 0 8 4 8 8v4v10c0 9 -2 21 -4 35c-2 7 -3 15 -6 23c-2 8 -5 17 -9 25s-9 17 -14 25c-6 7 -13 15 -20 21c-8 7 -15 12 -24 16c-9 5 -18 8 -27 10c-4 1 -9 1 -13 2s-8 1 -13 1
c-4 1 -8 0 -11 0h-6h-6l-10 -1c-3 0 -6 -1 -9 -1zM60 492c1 -4 -2 -9 -8 -10c-4 0 -8 3 -9 7c-7 40 -3 81 12 121c1 4 6 7 10 5c5 -2 7 -6 6 -11c-14 -37 -18 -75 -11 -112zM113 357c-1 1 -32 30 -53 78c-2 4 0 9 4 11s9 0 11 -4c20 -45 49 -72 49 -72c4 -4 4 -9 1 -12
c-2 -2 -4 -3 -6 -3c-3 0 -5 1 -6 2zM336 146l-2 -3c-3 -3 -1 0 2 3zM299 118l3 1c-1 -1 -2 -1 -3 -1z" />
    <glyph glyph-name="T" unicode="T" horiz-adv-x="534" 
d="M441 629c29 -2 53 -23 53 -54c0 -29 -24 -59 -53 -56c-38 4 -77 8 -116 10c-11 -159 -19 -320 -9 -477c3 -73 -105 -72 -110 0c-10 156 -3 316 9 475c-41 -4 -80 -10 -122 -12c-70 -4 -70 107 0 111c45 3 88 8 132 11l3 42c2 29 22 54 55 54c29 0 57 -25 55 -54
c-1 -13 -3 -27 -4 -41c36 -2 71 -6 107 -9zM289 466c1 12 1 18 1 18s0 -6 -2 -18c0 -6 -2 -12 -3 -22l-3 -28c-2 -20 -4 -44 -6 -69c-2 -26 -3 -54 -4 -81c-6 -110 -8 -218 -8 -218v-1c0 -4 3 -8 8 -8s9 4 9 8c0 0 -2 109 -1 218c1 28 1 56 2 81l3 70c1 10 1 20 2 28
c1 9 2 15 2 22z" />
    <glyph glyph-name="U" unicode="U" horiz-adv-x="612" 
d="M568 486c7 -117 11 -246 -41 -354c-55 -113 -190 -160 -308 -120c-256 88 -168 450 -150 651c3 36 28 67 67 67c34 0 70 -31 67 -67l-3 -26c-11 -119 -35 -243 -20 -364v-3c1 -5 1 -5 0 -2c1 -3 2 -7 2 -11c1 -6 3 -12 4 -19c3 -12 6 -24 11 -35c0 -2 1 -3 1 -4
c-5 10 3 -11 0 0c0 0 1 -1 1 -2c3 -6 5 -12 8 -16l7 -10c-1 1 -1 1 0 0c2 -2 6 -7 7 -8c2 -2 17 -14 10 -9l12 -8c2 0 15 -5 11 -4c-2 1 -3 1 -4 1c2 0 3 -1 4 -1c4 -1 9 -3 14 -4c14 -3 11 -4 30 -4h22c1 0 18 2 13 1c7 1 13 3 20 5c2 0 14 6 9 3c-1 0 -3 -1 -4 -2
c2 1 3 2 4 2c4 2 7 4 10 6c2 1 6 5 8 6c-1 -1 -3 -2 -4 -4l4 4c3 3 5 5 8 7l6 9l-3 -6c3 5 4 6 3 6c5 7 10 15 14 24c1 2 2 4 4 6c0 1 1 2 2 5c2 5 4 11 5 17c4 12 7 24 9 36c5 27 7 37 8 70c6 111 -9 220 -8 330c0 87 133 87 133 0c0 -57 5 -115 7 -173zM543 306
c5 46 6 93 6 137c-1 42 -3 83 -7 118c-3 34 -6 63 -9 83l-5 31c-1 7 -6 10 -12 9c-5 -1 -8 -7 -7 -13c0 0 2 -10 5 -30c4 -20 8 -48 12 -82s7 -74 9 -117s2 -90 -2 -135c-4 -46 -12 -91 -25 -132c-7 -20 -15 -38 -26 -55c-10 -18 -22 -32 -34 -44c-12 -11 -26 -20 -39 -26
c-12 -6 -24 -10 -34 -12c-4 -1 -9 -2 -13 -2c-3 -1 -7 -1 -9 -1l-8 -1h8c2 0 6 1 9 1c4 1 9 1 14 2c9 2 21 6 34 11c13 6 27 15 40 26s25 26 36 43s20 36 28 56c15 42 24 87 29 133zM412 201l2 4c-1 -1 -1 -2 -2 -4z" />
    <glyph glyph-name="V" unicode="V" horiz-adv-x="611" 
d="M465 695c22 65 126 38 103 -28l-220 -631c-16 -45 -94 -57 -103 0c-35 209 -98 425 -198 613c-32 60 60 115 92 54c76 -141 131 -296 171 -454c51 149 103 298 155 446zM359 159l183 519c3 5 -1 11 -6 12c-5 2 -10 -1 -12 -6z" />
    <glyph glyph-name="W" unicode="W" horiz-adv-x="593" 
d="M519 793c24 -9 42 -41 31 -66c-98 -215 -135 -444 -143 -680c-2 -45 -62 -62 -90 -30c-34 40 -65 86 -88 137c-21 -53 -37 -107 -50 -159c-6 -22 -31 -36 -54 -35c-24 2 -39 20 -46 42c-20 66 -29 137 -35 205c-11 161 4 323 54 477c20 63 117 29 97 -34
c-44 -137 -61 -284 -48 -427c15 36 33 73 55 107c21 36 89 27 92 -18c2 -33 10 -65 21 -96c18 188 59 372 138 545c12 26 37 41 66 32zM453 514c3 15 5 22 5 22l-6 -22c-3 -13 -8 -34 -15 -58c-6 -24 -13 -52 -18 -83c-4 -15 -7 -31 -10 -46l-9 -49c-4 -33 -8 -66 -10 -98
c-2 -15 -3 -30 -5 -44c-1 -14 -3 -27 -5 -40c-1 -11 -3 -23 -5 -32s-5 -17 -8 -22c-3 -3 -7 -3 -10 -4h-3h-2c-5 -1 -8 -4 -8 -9c1 -4 4 -8 9 -7h1h6c2 1 5 2 9 3c3 2 6 5 9 9c6 7 9 17 11 27s4 22 5 34c2 13 3 26 3 40l3 45c2 31 4 64 8 97c3 16 5 33 8 48c2 16 5 32 8 47
c4 31 10 59 16 83c5 25 10 46 13 59zM507 517c4 -2 6 -8 4 -12c-26 -55 -40 -136 -49 -193c0 -1 0 -3 -1 -5c0 -4 -4 -7 -8 -7h-2c-4 0 -7 5 -6 10v4c8 59 24 141 51 198c2 5 7 7 11 5zM450 283c4 0 8 -5 7 -10c-4 -34 -5 -57 -5 -57c-1 -5 -4 -9 -8 -9h-1c-5 1 -9 5 -8 10
c0 0 1 24 5 58c1 5 5 9 10 8z" />
    <glyph glyph-name="X" unicode="X" horiz-adv-x="637" 
d="M578 628c-68 -65 -130 -140 -183 -223c56 -105 110 -209 166 -313c38 -70 -71 -133 -108 -63c-44 82 -88 163 -131 245c-55 -113 -94 -235 -117 -355c-15 -78 -135 -45 -120 34c29 156 87 313 167 455c-36 69 -70 138 -105 205c-38 72 70 135 107 63
c26 -48 51 -97 75 -146c48 69 102 132 160 187c59 55 148 -34 89 -89zM528 612c6 5 12 12 17 18l10 9c2 1 3 2 5 3c1 3 3 4 4 6c6 6 9 15 10 23c0 9 -3 16 -5 21c-3 4 -6 9 -8 10c-2 2 -4 3 -4 3c-5 3 -12 2 -16 -3c-2 -5 -1 -11 3 -15c0 0 1 0 2 -1l6 -5c2 -3 3 -6 4 -10
c0 -2 -2 -7 -6 -12c0 -1 -3 -2 -4 -4c-1 -1 -2 -3 -4 -4l-7 -10c-6 -6 -12 -13 -18 -21c-12 -13 -25 -29 -36 -45c-50 -63 -97 -126 -97 -126s51 60 104 119c14 14 27 30 40 44zM193 419c6 -3 8 -11 5 -16l-32 -56c-2 -4 -7 -6 -10 -6c-2 0 -4 0 -6 1c-6 4 -8 10 -5 16
l32 56c3 6 10 8 16 5zM133 305c6 -4 8 -11 5 -17c-49 -91 -73 -216 -73 -218c-1 -6 -7 -10 -13 -10h-3c-6 2 -10 8 -9 15c1 5 26 130 77 225c3 6 11 8 16 5z" />
    <glyph glyph-name="Y" unicode="Y" horiz-adv-x="572" 
d="M431 677c52 57 137 -28 85 -85l-12 -15c-2 -2 -3 -3 -4 -5c-1 -1 -1 -2 -2 -2l-18 -25c-38 -54 -71 -111 -101 -170c-100 -199 -159 -290 -182 -515c-4 -33 -25 -60 -60 -60c-31 0 -65 27 -61 60c20 176 60 238 127 413c-53 127 -107 254 -160 381c-13 30 13 66 42 74
c34 10 61 -12 74 -42c36 -87 73 -175 110 -263c2 5 4 9 7 13c42 84 91 170 155 241zM498 633c1 6 0 12 -2 17c-4 10 -10 15 -15 18c-4 3 -7 4 -7 5c-5 1 -10 -1 -12 -6c-2 -4 0 -9 5 -11c0 0 1 -1 4 -2c3 -2 7 -5 9 -11c2 -5 2 -13 -1 -22c-3 -10 -10 -20 -18 -32
c-14 -24 -32 -51 -50 -81c-17 -30 -36 -63 -54 -96c-17 -33 -34 -66 -48 -98c-7 -16 -14 -31 -20 -46l-16 -42c-5 -13 -9 -26 -12 -36c-4 -11 -6 -21 -8 -29c-3 -8 -4 -14 -5 -18l5 18c3 8 6 17 9 28l14 36c5 13 11 27 17 41c6 15 14 30 21 46c16 31 33 64 51 96
c19 32 38 64 57 93s37 56 52 80c8 11 16 22 20 34c3 6 4 12 4 18z" />
    <glyph glyph-name="Z" unicode="Z" horiz-adv-x="756" 
d="M656 192c81 -22 47 -146 -34 -125c-117 33 -240 34 -357 -5c-24 -8 -31 -11 -48 -19c-13 -7 -28 -14 -42 -23c-9 -4 -17 -9 -25 -14l-2 -1c1 0 1 1 1 1l-1 -1l-2 -2c-22 -15 -48 -22 -73 -6c-25 14 -38 46 -31 72c25 83 65 158 115 227c-29 -8 -60 0 -76 29
c-17 27 -8 72 23 88c59 28 127 40 195 45c21 22 44 42 66 61c26 23 53 46 80 69c-73 -2 -145 -5 -218 -7c-83 -2 -83 126 0 130c143 3 284 7 426 12c66 1 85 -87 33 -119c-24 -16 -48 -32 -71 -48c-46 -33 -82 -62 -123 -96l46 -3c35 -3 64 -27 64 -63
c0 -34 -29 -68 -64 -65c-49 3 -100 4 -149 4c-10 -1 -22 -1 -34 -1c-41 -44 -82 -91 -115 -142c134 41 285 38 416 2zM463 485c-5 -5 -7 -10 -7 -10s2 5 7 9l11 9c4 3 8 8 14 12c20 16 48 36 76 55c56 40 114 78 114 78c5 3 6 10 2 13c-2 6 -9 6 -13 2c0 0 -55 -41 -109 -84
c-27 -22 -53 -45 -72 -63c-6 -3 -10 -7 -13 -12c-4 -3 -7 -7 -10 -9zM559 43c6 -1 8 -8 7 -12c-1 -5 -7 -8 -11 -7c-1 0 -115 30 -234 -3h-3c-3 0 -7 4 -8 8c-2 4 1 11 6 12c124 35 239 3 243 2zM287 32c6 0 11 -1 12 -7c2 -5 -1 -11 -6 -12c-12 -4 -17 -6 -30 -13
c-2 0 -3 -1 -3 -1c-4 0 -9 2 -11 7c-1 4 0 10 6 12c13 7 19 9 32 14zM143 1l3 2l2 2z" />
    <glyph glyph-name="zero" unicode="0" horiz-adv-x="483" 
d="M236 735h5c109 10 184 -83 199 -248c4 -41 4 -84 2 -131c-1 -8 -1 -17 -1 -26c-3 -56 -6 -114 -21 -169c-28 -97 -89 -156 -168 -162c-4 -1 -8 -1 -12 -1c-73 -1 -128 25 -157 72c-37 60 -42 132 -43 194c-1 76 0 155 15 234c26 147 87 226 181 237zM413 448
c0 7 -1 15 -1 23c0 9 -1 18 -2 29c-2 10 -3 20 -5 31c-2 10 -4 21 -7 33c-2 6 -3 11 -4 17l-6 16c-2 6 -4 11 -7 18c-2 5 -4 10 -7 15c-3 6 -6 11 -9 15c-3 5 -7 10 -10 14c-3 5 -8 9 -11 13c-4 5 -8 9 -12 12c-7 8 -16 13 -24 18c-8 4 -16 8 -24 11c-7 2 -14 3 -20 5
c-6 0 -9 0 -12 1h-4h-1c-7 0 -13 -6 -13 -13s6 -12 13 -12h4c3 0 7 0 11 -1c4 0 9 0 15 -2s14 -5 21 -8c7 -4 15 -8 22 -14c3 -3 7 -6 10 -10c4 -3 8 -6 11 -11c3 -3 7 -7 11 -12c3 -4 6 -8 9 -13c3 -4 5 -11 8 -15c2 -5 5 -10 7 -15l7 -16c2 -5 3 -10 5 -16
c4 -11 6 -22 9 -32s4 -20 6 -30c2 -11 3 -20 4 -28c1 -9 3 -17 4 -23c0 -7 0 -13 1 -19c0 -10 1 -16 1 -16v16v19zM323 395c0 20 -1 39 -2 55c-2 41 -6 84 -23 125c-7 16 -14 27 -25 35c-4 2 -9 6 -23 5l-3 -1c-9 -2 -12 -3 -20 -8c-3 -2 -12 -11 -18 -20
c-9 -15 -20 -43 -26 -69c-13 -50 -21 -111 -22 -169c-1 -31 -1 -68 1 -103v-2c1 -29 3 -59 13 -86c7 -18 14 -28 18 -30c9 -5 15 -7 25 -8h12c3 1 7 1 10 1c10 2 19 5 28 9l2 1c1 1 3 2 4 4s3 4 4 5c2 3 5 5 6 6c3 4 14 26 17 40c14 52 17 105 20 160l1 30c1 7 1 14 1 20z
" />
    <glyph glyph-name="one" unicode="1" horiz-adv-x="307" 
d="M100 532h-2c-38 0 -57 30 -58 59c0 31 20 61 59 62c20 1 50 38 63 54c10 13 25 20 42 20c18 0 36 -8 48 -21c11 -12 16 -26 15 -41c-20 -242 -34 -428 -43 -604c-2 -38 -34 -58 -63 -58c-17 0 -34 7 -44 18c-10 10 -15 26 -14 42c8 140 18 291 33 475
c-13 -4 -25 -6 -36 -6zM180 693h-1c-6 -3 -9 -11 -6 -17s10 -10 16 -8l1 2c1 0 2 0 3 1c3 1 8 2 12 1c5 0 10 -1 14 -7c4 -4 7 -12 9 -23c2 -10 1 -22 1 -34c-2 -14 -3 -28 -4 -42l-3 -46c-1 -15 -1 -30 -2 -47c-5 -124 -8 -249 -8 -249s9 125 21 249c1 16 2 31 4 46
s3 30 5 45l6 41c1 14 2 27 1 40c-2 13 -5 26 -13 36s-20 15 -28 15c-9 1 -17 0 -21 -1c-2 -1 -4 -1 -5 -1c-1 -1 -2 -1 -2 -1z" />
    <glyph glyph-name="two" unicode="2" horiz-adv-x="576" 
d="M477 3h-375c-32 0 -56 24 -60 59c-4 40 -2 86 7 140c9 47 22 99 65 128c50 36 109 55 166 74l14 6c4 1 8 2 13 4c37 12 82 26 91 62c8 30 9 72 -27 103c-26 21 -50 22 -80 21c-29 -2 -69 -6 -82 -31c-14 -24 -17 -61 -19 -92l-1 -8c-3 -38 -35 -58 -64 -58
c-18 0 -33 7 -44 18c-10 11 -14 25 -13 42l1 12c4 49 9 104 36 147c28 46 75 76 136 86c72 11 126 5 172 -20c52 -30 91 -79 104 -131c16 -68 6 -157 -53 -204c-46 -37 -101 -56 -154 -74l-26 -9c-31 -11 -64 -23 -92 -40c-12 -9 -14 -15 -19 -37c-7 -26 -10 -51 -12 -76
h316c39 0 59 -31 59 -62c0 -29 -20 -60 -59 -60zM345 668c19 -4 41 -11 62 -24c20 -14 38 -33 53 -55c6 -12 12 -24 16 -36c3 -7 5 -13 7 -19c1 -6 3 -12 4 -19c3 -24 -1 -48 -7 -67c-7 -19 -15 -34 -22 -45c-7 -9 -12 -14 -12 -14s5 4 13 14c7 10 17 24 24 43
c8 20 14 44 12 70l-3 21c-2 6 -4 13 -6 19c-4 13 -9 27 -15 39c-13 25 -33 48 -54 64c-23 15 -46 25 -67 30c-22 6 -40 7 -52 7c-6 0 -11 -1 -15 -1h-6c0 -1 -1 -1 -1 -1c-7 -1 -12 -8 -10 -15c1 -7 7 -12 14 -11l2 1h4c3 1 7 1 13 1c11 1 27 1 46 -2z" />
    <glyph glyph-name="three" unicode="3" horiz-adv-x="579" 
d="M542 318c6 -58 6 -127 -27 -190c-44 -81 -130 -131 -230 -131c-12 0 -25 0 -37 2c-122 16 -196 111 -211 268c-2 20 6 34 15 43c9 10 25 18 42 18c31 0 63 -20 67 -58c8 -99 49 -149 115 -150h3c44 0 104 13 130 77c17 36 14 79 9 127c-4 30 -10 61 -22 83
c-10 15 -19 21 -37 22c-42 1 -84 -11 -128 -26c-24 -10 -52 -1 -66 20l-4 6c-8 16 -10 36 -4 54c5 14 14 27 28 32c52 22 117 52 157 89h-229c-40 0 -60 30 -60 62c0 31 20 60 60 60h335c25 0 45 -11 55 -32c4 -8 7 -18 7 -27c3 -43 -27 -86 -36 -98c-9 -14 -21 -26 -33 -39
c26 -12 45 -34 62 -60c26 -49 34 -103 39 -152zM521 251v16c-1 17 -3 33 -5 44l-2 17c0 1 -1 1 -1 1c-2 6 -9 10 -15 8c-9 -2 -13 -8 -11 -17v-1l6 -13c3 -10 6 -25 8 -42c0 -4 1 -9 1 -13v-14v-15c-1 -6 -2 -11 -2 -16c-2 -10 -4 -21 -9 -33c-4 -10 -9 -19 -13 -30
c-22 -41 -59 -73 -91 -89c-15 -8 -31 -14 -40 -15c-6 -1 -10 -1 -12 -1c2 0 6 -1 12 0c9 1 25 4 41 11c34 15 74 46 100 86c8 12 14 22 18 34c5 11 8 21 10 34l3 16c1 6 1 12 2 17v15z" />
    <glyph glyph-name="four" unicode="4" horiz-adv-x="593" 
d="M452 182v-121c0 -40 -31 -61 -62 -61c-32 0 -63 21 -63 61v121h-224c-23 0 -45 14 -56 36c-10 20 -9 42 3 59l309 444c12 18 31 27 52 27c25 0 49 -14 60 -35c10 -18 8 -39 -5 -57l-14 -20v-329h40c40 0 61 -31 61 -62s-21 -63 -61 -63h-40zM407 711c-7 0 -12 -6 -12 -13
l16 -379l9 379v1c0 7 -6 13 -13 12zM327 456l-104 -149h104v149z" />
    <glyph glyph-name="five" unicode="5" horiz-adv-x="572" 
d="M281 -3c-12 0 -25 1 -37 3c-116 15 -188 106 -202 257c-2 21 6 34 13 41c10 12 25 18 42 18c29 0 60 -19 64 -56c8 -94 46 -143 111 -144h3c43 0 100 13 126 73c28 65 7 155 -45 195c-45 36 -115 41 -203 14c-11 -16 -31 -28 -50 -28c-32 0 -56 24 -60 58
c-8 67 0 138 8 206c1 14 3 28 4 42c4 34 28 58 60 58h323c38 0 58 -30 58 -60c0 -29 -20 -59 -58 -59h-270c-4 -31 -7 -62 -8 -93c32 7 64 11 94 11c80 0 146 -24 195 -72c85 -82 108 -230 53 -336c-42 -80 -125 -128 -221 -128zM445 692h1c7 0 12 6 12 13s-6 12 -13 12
l-307 -12z" />
    <glyph glyph-name="six" unicode="6" horiz-adv-x="521" 
d="M45 215l-3 12c-11 113 18 217 43 285c27 64 63 145 124 203c12 12 25 18 42 18c25 0 50 -17 59 -41c10 -23 3 -47 -14 -64c-31 -30 -60 -72 -82 -128c7 1 13 2 20 2l3 -1c132 -1 244 -115 244 -248c0 -122 -95 -253 -234 -253h-3c-110 1 -184 80 -199 215zM227 475h-1
c-7 -2 -12 -7 -12 -14c1 -7 7 -12 13 -11h16c5 0 11 0 17 -1s13 -1 21 -3l13 -3c4 -2 8 -3 12 -4c5 -2 9 -3 15 -6c4 -2 9 -3 14 -6c4 -2 8 -5 13 -7c5 -3 9 -5 13 -8l7 -5l7 -6c3 -4 7 -7 11 -12l12 -12c4 -3 7 -8 10 -13l5 -6l2 -8c3 -5 5 -9 8 -13c3 -11 7 -21 9 -30
c1 -9 4 -18 4 -27c1 -8 1 -15 1 -22c0 -8 -1 -14 -1 -19c-1 -10 -1 -15 -1 -15s0 5 2 15l3 19v23c1 8 -2 18 -2 27c-2 10 -5 20 -8 32l-6 14c-1 3 -3 6 -4 8l-4 8c-2 5 -5 9 -9 14l-11 14c-3 6 -9 10 -13 14l-7 5l-5 6c-5 3 -10 7 -14 10l-15 9c-4 3 -9 6 -14 8
c-4 2 -9 4 -15 6l-13 5c-5 2 -9 3 -14 4c-8 3 -17 4 -23 6c-7 1 -14 2 -21 2c-10 2 -15 2 -15 2zM241 377h-4c-17 0 -73 -2 -71 -129c1 -57 17 -125 74 -125h4c30 1 58 15 80 37c22 26 34 59 33 92c-3 60 -48 125 -116 125z" />
    <glyph glyph-name="seven" unicode="7" horiz-adv-x="563" 
d="M452 727h10c38 -1 60 -32 61 -62c0 -28 -18 -57 -52 -62c-5 -7 -10 -14 -14 -21c-28 -39 -53 -79 -73 -120c-69 -134 -102 -269 -99 -401c1 -16 -6 -32 -17 -43c-10 -11 -27 -18 -44 -18c-31 0 -63 20 -64 60c-3 183 54 380 159 544l-219 2c-39 1 -60 32 -60 64
c0 29 21 60 60 60l327 -3c8 2 16 2 25 0zM467 654c4 7 2 14 -4 18s-14 2 -17 -4c0 0 -60 -95 -110 -196c-6 -13 -13 -26 -19 -37c-5 -14 -11 -26 -16 -38c-5 -13 -9 -24 -13 -36l-6 -16c-3 -6 -4 -11 -6 -16c-1 -5 -3 -10 -4 -15l-3 -12c-2 -10 -4 -17 -4 -23l-2 -18
s1 7 3 18c1 6 3 13 5 22c1 4 2 9 4 12c1 5 3 10 6 15l6 15c2 5 4 11 5 16c5 11 11 22 16 35c6 12 12 23 19 35c6 13 13 24 20 37c13 24 28 47 42 71c13 21 27 42 38 59c23 35 40 57 40 58z" />
    <glyph glyph-name="eight" unicode="8" horiz-adv-x="511" 
d="M371 413c63 -43 100 -110 100 -182c-1 -125 -106 -231 -230 -231h-3c-116 1 -194 90 -198 226c-1 66 19 126 53 168c-31 35 -50 85 -52 144v8c2 96 55 194 167 194h3c102 -2 210 -82 208 -198c0 -47 -18 -93 -48 -129zM345 445c0 0 12 13 24 36c6 12 13 27 17 43
s6 35 3 53c-1 9 -4 19 -7 27c-4 9 -8 17 -13 24s-11 14 -17 19c-5 6 -11 11 -16 15c-12 9 -21 15 -28 19c-8 3 -12 6 -12 6h-1c-6 3 -13 0 -16 -6c-3 -7 0 -14 6 -17h1l11 -5c6 -3 16 -8 26 -14c5 -3 11 -7 16 -12c6 -4 11 -10 16 -16c5 -5 10 -12 13 -19c4 -7 7 -15 9 -23
c4 -16 4 -33 1 -49c-2 -16 -7 -31 -12 -43c-10 -24 -21 -38 -21 -38zM215 614h-4c-22 -1 -45 -11 -44 -76c2 -72 35 -72 46 -72h3c23 1 46 11 60 27c9 10 19 26 18 48c-2 41 -38 73 -79 73zM320 163c13 13 27 36 25 67c-2 56 -51 102 -108 102c-2 0 -3 -1 -5 -1
c-29 -1 -67 -13 -67 -104c2 -46 15 -102 69 -102h4c31 2 62 16 82 38z" />
    <glyph glyph-name="nine" unicode="9" horiz-adv-x="510" 
d="M468 505c1 -12 1 -24 1 -36c17 -301 -125 -421 -210 -465c-10 -5 -20 -8 -30 -8c-29 0 -55 22 -62 51c-7 27 4 52 30 65c54 29 94 74 119 136c-9 -2 -17 -3 -26 -3c-128 -7 -241 100 -249 233c-5 68 19 137 64 188c40 45 94 71 152 74c4 1 8 1 11 1
c110 0 185 -89 200 -236zM449 485v20c0 8 -1 17 -2 26c-1 5 -1 10 -2 15c-1 6 -3 11 -4 16c-1 6 -2 11 -4 17c-2 5 -5 11 -7 17c-4 11 -11 22 -17 33c-3 6 -8 11 -12 16l-6 8c-2 2 -5 4 -7 7c-5 4 -9 9 -14 13c-6 4 -11 8 -16 12c-6 4 -12 7 -17 10c-3 1 -6 3 -9 4
s-6 3 -9 4c-11 5 -23 7 -35 10c-11 1 -22 3 -33 2c-10 0 -20 -2 -28 -3c-8 -2 -16 -6 -22 -8c-6 -3 -9 -5 -12 -7l-4 -2v-1c-6 -4 -8 -12 -4 -17c4 -6 12 -8 18 -4v1s1 0 4 2c2 2 6 5 10 7c5 2 9 5 16 6c7 2 14 4 23 5s19 0 29 0c11 -2 22 -3 32 -7l9 -3c2 -1 5 -2 8 -4
c5 -2 11 -4 16 -8l15 -9c5 -4 10 -8 14 -12c3 -2 5 -4 7 -6l7 -7c3 -5 8 -10 11 -15c7 -10 15 -20 19 -31c2 -5 5 -10 7 -15c2 -6 4 -11 5 -16c2 -6 4 -11 5 -16c2 -5 2 -10 3 -14c1 -10 3 -18 4 -26c0 -8 1 -15 1 -20c0 -11 1 -18 1 -18v18zM288 377c39 4 54 44 48 125
c-5 48 -21 107 -69 107c-2 0 -5 -1 -8 -1c-27 -3 -51 -19 -67 -44c-15 -25 -22 -55 -19 -84c6 -53 53 -110 115 -103z" />
    <glyph glyph-name="colon" unicode=":" horiz-adv-x="265" 
d="M155 522c40 0 70 -32 70 -76c0 -43 -30 -75 -70 -75s-69 32 -69 75c0 44 29 76 69 76zM204 442c1 3 2 6 2 10c1 1 1 3 1 5c-1 2 0 4 -1 6c-1 4 -2 8 -4 11c0 2 -1 4 -2 5c-1 2 -2 4 -4 5c-2 3 -5 6 -8 9c-2 2 -5 4 -8 6s-6 4 -9 5l-4 1c-2 1 -3 1 -4 1c-3 1 -6 1 -9 1
c-1 0 -2 0 -2 -1h-2h-2c-4 -2 -6 -6 -5 -10c2 -4 6 -6 10 -5l1 1h2c0 1 1 1 2 1h3h3c1 -1 2 -1 3 -1l7 -3c3 -1 6 -2 8 -4l8 -6c-2 5 12 -14 6 -8c2 -3 3 -6 4 -9c1 -2 1 -4 1 -5c0 -2 1 -4 1 -5c-1 -3 0 -7 -1 -9l-3 -9l-3 -6s-2 -4 -3 -5l-3 -4l3 3c1 2 3 3 4 5l4 6
c2 3 3 5 4 9zM110 150c40 0 69 -32 69 -76s-29 -75 -69 -75s-70 31 -70 75s30 76 70 76zM162 84v6c-1 3 -2 7 -4 11c-1 2 -1 4 -3 5c-1 2 -2 4 -3 5c-2 3 -5 6 -8 8l-8 7c-4 2 -6 4 -9 4c-2 1 -3 2 -5 2c-1 0 -2 1 -4 1c-2 1 -6 1 -8 1c-1 0 -2 -1 -4 -1h-1
c-1 0 -1 -1 -1 -1c-4 -1 -6 -5 -5 -9s6 -6 10 -5l1 1h2c0 0 1 1 1 0c1 0 1 1 3 1c1 -1 2 -1 3 -1s2 0 4 -1c2 0 4 -1 7 -2c2 -2 5 -3 8 -5c2 -1 5 -4 7 -6c-5 2 9 -13 7 -8c1 -2 3 -6 4 -9c0 -1 0 -3 1 -5c0 -1 1 -3 0 -4c0 -4 0 -7 -1 -10c0 -3 -1 -6 -2 -8l-3 -7l-4 -4
l-2 -5s1 2 3 4c1 1 2 3 4 5c1 1 2 4 4 6s3 5 4 8s2 7 2 10c1 2 0 4 0 6z" />
    <glyph glyph-name="comma" unicode="," horiz-adv-x="248" 
d="M202 59c19 -90 -5 -166 -65 -209c-9 -6 -19 -9 -31 -9c-23 0 -46 13 -57 32c-17 29 -9 65 21 87c1 1 3 2 3 4l2 3c0 1 1 2 1 4l1 5c3 9 3 9 3 18v5c0 7 0 13 -1 19c0 1 0 4 -1 6v2c-8 36 11 69 45 79c5 1 10 2 16 2c30 0 57 -21 63 -48zM176 -39c1 5 1 10 1 14
c0 5 0 9 -1 13c0 3 0 7 -1 10s-2 6 -2 8c-1 4 -2 6 -2 6s1 -2 1 -6c1 -3 1 -5 1 -8c1 -3 1 -7 1 -11c0 -3 0 -7 -1 -12c0 -4 0 -8 -1 -13s-2 -9 -4 -14c0 -2 -1 -5 -2 -7l-3 -7c-2 -4 -4 -8 -7 -13l-7 -12c-3 -3 -6 -7 -8 -10c-3 -3 -6 -6 -9 -8c-5 -6 -9 -9 -13 -12l-4 -3
s-1 -1 -2 -1c-3 -3 -3 -8 -1 -11c3 -3 8 -4 11 -1c0 0 0 1 1 1c1 1 3 2 5 4c3 3 8 8 13 14c2 3 5 6 8 10l7 12c3 4 5 8 7 13c3 5 5 10 6 15l3 7c0 3 1 5 1 8c2 4 2 10 2 14z" />
    <glyph glyph-name="exclam" unicode="!" horiz-adv-x="268" 
d="M173 720c15 0 32 -7 43 -20c9 -10 13 -23 12 -35l-57 -466c-5 -32 -26 -53 -55 -53c-15 0 -31 7 -42 20c-10 10 -14 23 -12 35l57 466c4 32 25 53 54 53zM194 684c-5 0 -10 -4 -10 -10l-29 -347l48 346zM98 121c34 0 60 -27 60 -65c0 -37 -26 -64 -60 -64s-58 27 -58 64
c0 38 24 65 58 65zM140 59v5c-1 3 -2 7 -3 9s-2 4 -3 5l-3 4c-2 2 -4 5 -6 8c-3 1 -5 3 -8 5c-3 1 -5 3 -8 4c-1 0 -1 1 -3 1c-1 1 -3 1 -3 1h-7h-4h-1h-1c-4 -2 -5 -6 -4 -9s5 -5 8 -4h1s0 1 2 1c0 1 1 1 1 1h3h2c1 -1 2 -1 3 -1l7 -3c1 -1 4 -2 7 -3c1 -2 4 -4 5 -6l3 -3
c2 -1 2 -2 3 -3c1 -3 2 -5 4 -8c0 -2 0 -3 1 -4v-4c0 -3 0 -6 -1 -9c-1 -2 -1 -4 -2 -7c-2 -1 -2 -4 -3 -5c-1 -2 -2 -3 -3 -4l-2 -3s1 0 3 2c1 2 2 3 3 4c1 2 2 4 4 5c1 3 2 5 2 8c2 3 2 5 3 9v4z" />
    <glyph glyph-name="numbersign" unicode="#" horiz-adv-x="634" 
d="M147 189l-61 -1c-32 0 -46 24 -46 46c0 25 15 51 48 51l74 3l15 101l-68 -1c-30 0 -45 24 -46 47c0 24 16 50 47 51l82 2l26 173c4 27 37 41 61 35c25 -8 38 -31 34 -60l-22 -145l112 3l26 167c3 27 37 41 60 35c25 -8 39 -31 35 -60l-21 -139l44 1c31 0 46 -24 47 -47
c0 -24 -17 -49 -48 -51l-58 -2l-16 -101l52 2c31 0 46 -25 46 -47c0 -25 -16 -50 -48 -51l-64 -3l-26 -166c-2 -23 -26 -36 -48 -36c-3 0 -9 0 -12 2c-25 7 -38 29 -35 60l22 138l-113 -4l-24 -160c-4 -23 -27 -36 -49 -36c-3 0 -8 0 -12 2c-25 7 -39 29 -34 60zM469 492
l28 168c1 4 -3 9 -8 9c-4 0 -9 -3 -9 -7zM261 291l113 3l15 101l-113 -3z" />
    <glyph glyph-name="period" unicode="." horiz-adv-x="219" 
d="M110 152c40 0 69 -32 69 -76s-29 -76 -69 -76c-41 0 -70 32 -70 76s29 76 70 76zM156 62c2 3 2 7 3 10v6c0 2 0 4 -1 6l-3 11c-1 2 -2 4 -3 5c-1 2 -2 4 -4 5l-7 9l-9 6s-6 4 -9 5l-4 1c-2 1 -3 1 -4 1c-3 1 -6 1 -9 1c-1 0 -2 -1 -2 -1h-2h-1s-1 0 -1 -1
c-4 -1 -6 -5 -5 -9c2 -4 6 -6 10 -5c0 0 1 0 2 1h1c1 0 1 1 2 1c1 -1 1 0 3 0c1 0 2 -1 3 -1h3c2 -1 5 -2 7 -3c3 -1 6 -3 8 -5c3 -1 5 -3 8 -6l3 -3c1 -2 2 -3 3 -5c2 -2 3 -5 4 -9c1 -1 1 -3 1 -4c1 -2 1 -4 1 -5c0 -4 0 -7 -1 -10l-3 -8c-1 -2 -2 -5 -3 -7l-3 -4
c-2 -3 -3 -5 -3 -5s1 2 3 4c1 1 3 3 4 5c2 1 3 4 4 6c2 2 3 5 4 8z" />
    <glyph glyph-name="question" unicode="?" horiz-adv-x="497" 
d="M446 585c19 -71 10 -147 3 -185c-24 -139 -115 -199 -186 -209c-10 -2 -21 -2 -31 -2c-19 0 -36 1 -53 6c-1 -13 -2 -26 -2 -39c-3 -42 -38 -64 -71 -64c-20 0 -38 6 -50 19c-11 12 -15 28 -15 46c2 20 3 40 4 60c2 34 4 68 7 102c3 45 37 65 66 65c25 0 48 -13 61 -36
c2 -1 3 -3 5 -5v-2c1 -2 4 -5 5 -6c1 0 1 -1 1 -1l3 -1c2 -1 3 -1 4 -2c1 0 17 -2 25 -8c2 0 6 -1 10 0h4h6l10 3c3 1 5 2 6 2l2 2c5 2 9 4 13 7c2 1 2 3 6 6l2 2c7 7 13 14 21 31c5 10 11 26 13 42c9 44 11 88 3 122c-4 18 -6 31 -14 43l-2 2c-2 5 -2 6 -12 9
c-4 3 -15 6 -29 6h-8h-7c-10 0 -22 0 -30 -5c-15 -9 -23 -25 -26 -51c-5 -41 -32 -67 -68 -67c-18 0 -39 10 -52 25c-12 12 -17 28 -16 44c10 81 39 134 88 162c31 18 72 28 112 28c28 0 54 -4 78 -13c58 -21 97 -67 114 -138zM424 490v18c-1 12 -1 25 -4 37
c-1 13 -4 26 -8 38c-2 7 -4 12 -7 19c-2 5 -5 12 -8 17c-6 12 -14 22 -22 31c-9 9 -19 17 -28 23c-10 7 -20 11 -29 15c-18 8 -35 10 -47 12h-14h-6c-5 0 -9 -4 -9 -10c1 -6 6 -10 11 -9h4h12c11 -1 26 -3 43 -9c9 -2 17 -6 27 -12c8 -5 17 -12 26 -19c8 -9 15 -18 22 -28
c3 -5 5 -10 8 -16c3 -5 6 -11 8 -17c4 -12 7 -24 10 -36c2 -12 4 -24 5 -36v-18v-16v-31c-1 -9 -2 -18 -3 -26c0 -7 -2 -14 -2 -20l-3 -17s1 6 4 17l3 20c1 7 2 17 3 26s3 19 3 31c0 5 1 11 1 16zM203 322c1 3 -1 6 -2 7l-3 -6c1 0 3 0 5 -1zM215 319v4c-1 0 -3 -2 -3 -3
c1 -1 2 -1 3 -1zM102 73c35 0 62 -27 62 -67c0 -39 -27 -68 -62 -68c-36 0 -62 29 -62 68c0 40 26 67 62 67zM142 3c1 2 0 4 0 5v5c-1 4 -2 7 -4 10c0 2 -1 4 -2 5l-3 5c-2 2 -4 5 -7 7c-3 3 -6 4 -7 6c-3 1 -6 3 -9 4l-4 1s-2 1 -3 1c-2 1 -6 1 -8 1c-1 0 -2 -1 -3 -1h-1
l-1 -1c-4 -1 -6 -5 -5 -8c2 -4 6 -6 9 -4h1c1 0 1 0 3 1h3h3c1 0 2 -1 2 -1c2 0 5 -2 7 -3l7 -3c2 -1 5 -4 7 -6l3 -3c1 -2 2 -3 2 -4c2 -2 3 -5 4 -8c1 -2 1 -3 1 -5c0 0 1 -2 1 -3c0 -4 0 -7 -1 -9l-3 -7c-1 -3 -2 -5 -2 -7l-3 -3c-2 -3 -3 -5 -3 -5l4 4c1 1 2 3 2 4
c2 1 3 3 4 6c2 2 3 5 4 7c1 3 2 6 2 9z" />
    <glyph glyph-name="semicolon" unicode=";" horiz-adv-x="253" 
d="M144 234c-40 0 -70 32 -70 75c0 44 30 76 70 76s69 -32 69 -76c0 -43 -29 -75 -69 -75zM133 364c-4 -2 -6 -6 -5 -10c2 -4 6 -6 11 -4c1 0 1 0 3 1h4h3c1 0 2 -1 3 -1c2 0 5 -2 7 -3c3 -1 6 -2 8 -4l8 -6c1 -1 2 -3 3 -4l3 -4c2 -3 3 -6 4 -9c1 -2 1 -3 1 -5s1 -3 1 -5
c-1 -3 0 -6 -1 -9l-3 -8c-1 -3 -2 -5 -3 -7s-2 -4 -3 -5c1 1 3 2 4 4s3 4 4 7c2 2 3 5 4 8s2 6 2 10c1 2 1 4 1 5c-1 2 0 4 -1 6c-1 4 -2 8 -4 11c0 2 -1 4 -2 6c-1 1 -2 3 -4 5c-2 3 -5 6 -8 8c-2 3 -5 4 -8 7c-3 1 -6 3 -9 4c-2 1 -3 1 -4 2c-2 0 -3 0 -4 1h-9h-2
c-1 0 -1 -1 -2 -1h-1h-1zM139 116c30 0 57 -20 63 -47c19 -90 -5 -166 -65 -209c-9 -6 -20 -10 -31 -10c-23 0 -46 13 -57 33c-17 29 -9 64 21 86c1 1 2 3 3 5c1 1 2 2 2 3s1 2 1 3l1 5c3 9 3 9 3 19v4c0 8 0 14 -1 19c0 2 0 5 -1 7v2c-8 36 11 69 45 78c5 2 10 2 16 2z
M181 -5c1 5 0 11 0 16s0 10 -1 15l-2 14c-1 4 -2 8 -4 12c-2 8 -4 14 -6 18c-1 2 -2 4 -3 5c0 1 -1 2 -1 2c-2 4 -7 5 -10 3c-4 -3 -5 -7 -3 -11l1 -1c1 -1 2 -3 3 -5c2 -3 5 -9 7 -15c2 -4 3 -7 4 -11c2 -4 3 -9 4 -13c1 -5 2 -9 2 -14c1 -5 2 -10 1 -15c0 -2 1 -5 0 -7v-7
c0 -5 -2 -10 -2 -14c-1 -5 -3 -9 -4 -13c-1 -5 -3 -8 -5 -12c-1 -3 -2 -6 -4 -9l-4 -7l-4 -6s2 2 4 6l5 6l6 9c1 4 4 7 5 11c2 4 4 9 5 13c1 5 3 10 4 15l1 7c1 3 1 6 1 8z" />
    <glyph glyph-name="parenleft" unicode="(" horiz-adv-x="336" 
d="M278 742c24 -24 24 -60 0 -90c-98 -124 -134 -281 -97 -430c19 -78 44 -137 78 -187c14 -19 15 -40 6 -58c-12 -22 -36 -36 -62 -36c-22 0 -41 10 -54 28c-47 69 -83 161 -99 254c-32 186 15 365 137 518c10 13 25 20 43 20s36 -7 48 -19zM175 34c-5 7 -9 14 -14 22
l-14 26c-4 9 -10 19 -14 29c-4 9 -9 19 -12 30l-6 15c-2 5 -4 10 -5 15c-4 10 -7 21 -9 31c-3 9 -5 19 -7 28l-3 14c-1 4 -1 8 -2 13l-3 22c0 7 -1 12 -1 17c-1 10 -1 15 -1 15v-15v-17c0 -7 1 -15 2 -23c0 -4 0 -8 1 -13c0 -4 1 -9 2 -13c1 -10 2 -20 5 -30
c2 -10 4 -21 7 -31c1 -6 3 -11 4 -16c2 -6 3 -11 5 -16c3 -11 7 -21 11 -32l12 -29c4 -10 8 -19 13 -28l12 -24c8 -14 16 -26 21 -35c3 -4 5 -7 7 -9c1 -3 2 -4 2 -4c4 -5 12 -6 16 -2c5 4 6 11 2 16l-3 3c-1 2 -3 5 -6 9c-6 7 -14 18 -22 32z" />
    <glyph glyph-name="parenright" unicode=")" horiz-adv-x="327" 
d="M164 730c111 -154 149 -343 104 -520c-16 -67 -49 -163 -109 -241c-15 -19 -35 -31 -56 -31c-10 0 -21 3 -31 9c-15 9 -27 27 -31 46c-3 16 0 31 9 43c39 51 71 117 90 190c41 152 11 304 -86 438c-8 12 -11 28 -8 44c4 19 16 36 31 45c10 5 20 8 31 8
c21 0 42 -11 56 -31zM250 414c1 -10 2 -15 2 -15s0 5 -1 15c0 5 -1 11 -1 17l-3 23c0 4 -1 8 -2 12l-2 14c-2 9 -4 19 -7 29l-9 31c-2 5 -4 11 -5 16l-6 15c-4 11 -9 21 -13 31s-9 20 -14 29l-14 27c-5 8 -10 16 -14 23c-9 14 -17 25 -23 33c-3 4 -5 8 -7 10l-3 3
c-4 5 -12 5 -16 1c-5 -4 -5 -11 -1 -16l3 -3c1 -2 4 -4 7 -8c6 -7 14 -18 24 -31c5 -6 10 -14 15 -22c5 -7 10 -16 16 -24c5 -9 10 -18 15 -28c5 -9 10 -19 14 -29c3 -5 5 -10 7 -15l6 -15c4 -10 8 -20 11 -30c4 -9 6 -19 8 -28c2 -5 3 -9 4 -13l3 -13c1 -8 3 -15 4 -22
s2 -12 2 -17z" />
    <glyph glyph-name="hyphen" unicode="-" horiz-adv-x="416" 
d="M82 350h252c41 0 62 -33 62 -64c0 -32 -21 -65 -62 -65h-252c-41 0 -62 33 -62 65c0 31 21 64 62 64zM371 286v4c-1 3 -2 7 -5 11c-2 5 -6 9 -12 13c-5 3 -11 6 -18 8s-14 3 -22 3c-3 1 -7 1 -11 1h-6h-6c-15 -1 -32 -1 -48 -2l-132 -4s66 -4 132 -7l48 -3h6
c2 -1 4 -1 5 -1c4 0 7 0 11 -1c6 -1 12 -2 17 -4s9 -4 12 -7c3 -2 4 -4 5 -6s1 -4 1 -6c0 -6 5 -11 11 -11c6 -1 12 4 12 10v2z" />
    <glyph glyph-name="quotedblleft" unicode="&#x201c;" horiz-adv-x="366" 
d="M44 701c4 23 21 37 44 37c16 0 32 -8 42 -20s14 -27 10 -42v-26c1 -28 12 -57 31 -91c9 -16 9 -33 1 -48c-10 -16 -28 -27 -47 -27c-17 0 -31 9 -40 24c-39 67 -53 135 -41 193zM192 701c4 23 21 37 43 37c17 0 33 -8 43 -20s13 -27 10 -42c-1 -9 0 -18 0 -26
c1 -28 11 -57 31 -91c9 -16 9 -33 0 -48c-9 -16 -28 -27 -46 -27c-17 0 -32 9 -41 24c-38 67 -52 135 -40 193zM60 684v-8c0 -3 0 -6 1 -9c0 -3 1 -6 1 -10c0 -3 1 -6 2 -10c0 -3 1 -6 2 -9c0 -3 1 -7 2 -10l3 -8c0 -3 2 -5 2 -7l6 -16s-1 7 -2 16c-1 3 -1 5 -1 8s-1 6 -1 9
v9v9v10c1 3 1 6 1 9l2 8c0 3 0 5 1 7c1 3 1 5 1 6c1 2 1 4 2 5c0 2 1 4 1 4c2 6 -1 12 -7 14c-6 3 -12 -1 -15 -6v-3s0 -2 -1 -5v-6v-7zM207 684v-8c1 -3 0 -6 1 -9c0 -3 1 -6 1 -10c0 -3 1 -6 2 -10c0 -3 1 -6 2 -9c0 -3 1 -7 2 -10l3 -8c0 -3 2 -5 2 -7l6 -16s-1 7 -2 16
c0 3 -1 5 -1 8s0 6 -1 9v9v9v10c1 3 1 6 1 9l2 8c0 3 0 5 1 7c1 3 1 5 1 6c1 2 1 4 2 5c0 2 1 4 1 4c2 6 -1 12 -7 14c-6 3 -12 -1 -14 -6c-1 -1 -1 -2 -1 -3c0 0 0 -2 -1 -5v-6v-7z" />
    <glyph glyph-name="quotedblright" unicode="&#x201d;" horiz-adv-x="366" 
d="M130 738c23 0 40 -14 44 -37c12 -58 -2 -126 -40 -193c-9 -16 -24 -24 -41 -24c-18 0 -37 10 -46 26c-9 15 -9 32 0 48c20 34 30 64 31 92v25c-3 16 0 31 10 43s26 20 42 20zM278 738c23 0 39 -14 44 -37c12 -58 -3 -126 -41 -193c-9 -16 -23 -24 -40 -24
c-19 0 -37 10 -47 26c-8 15 -8 32 1 48c19 34 29 64 31 92c0 7 0 16 -1 25c-3 16 1 31 10 43c11 12 27 20 43 20zM159 676v8v7s-1 4 -1 6v4c0 1 0 2 -1 3c-2 6 -8 9 -14 7s-9 -9 -7 -14v-1s1 -1 1 -4c0 -1 1 -2 1 -4c1 -2 1 -4 2 -6l1 -7c1 -3 1 -6 1 -9c1 -3 1 -6 1 -9
c1 -3 1 -6 1 -9v-9v-10c-1 -3 -1 -6 -1 -8c0 -3 -1 -6 -1 -8l-3 -16s3 6 6 15l3 8c1 2 2 5 3 8c0 3 1 6 2 9c1 4 1 7 2 10s2 7 2 10s1 6 1 10c0 3 0 6 1 9zM306 676v8v7s0 4 -1 6v4c0 1 0 2 -1 3c-2 6 -8 9 -14 7s-9 -9 -7 -14v-1s1 -1 1 -4c1 -1 1 -2 1 -4c1 -2 1 -4 2 -6
l1 -7c1 -3 1 -6 2 -9v-9c1 -3 1 -6 1 -9v-9v-10c-1 -3 -1 -6 -1 -8c0 -3 -1 -6 -1 -8c-1 -10 -3 -16 -3 -16s3 6 6 15c1 2 3 5 3 8l3 8c1 3 2 6 2 9c1 4 2 7 2 10c1 3 2 7 2 10s1 6 1 10c0 3 0 6 1 9z" />
    <glyph glyph-name="space" unicode=" " 
 />
    <glyph glyph-name="dollar" unicode="$" horiz-adv-x="442" 
d="M353 444c41 -32 49 -85 49 -124c0 -97 -42 -221 -132 -278c-18 -11 -37 -19 -57 -23l-3 -20c-4 -19 -17 -32 -35 -32c-13 0 -26 7 -36 17c-8 10 -11 22 -9 35v5c-14 6 -28 15 -38 26c-47 50 -53 124 -52 188c0 31 24 48 49 48c14 0 27 -5 36 -14c10 -9 14 -21 14 -35v-5
c0 -22 -1 -63 10 -91l28 192c-13 -1 -27 -3 -41 -3c-10 0 -19 1 -28 3c-24 4 -41 16 -50 34c-22 42 0 102 10 126c26 60 81 136 159 170l6 39c2 18 15 30 33 30c14 0 28 -6 36 -16s12 -22 10 -35l-2 -14c36 -14 62 -44 68 -84c5 -29 -9 -53 -35 -61c-16 -4 -39 2 -53 17
l-11 -79c31 4 55 -1 74 -16zM193 439l12 86c-9 -10 -17 -20 -23 -31c-12 -18 -27 -41 -33 -64c9 1 18 2 28 5zM262 352l-32 -216c14 13 27 29 38 51c22 42 35 87 35 128v4c1 16 1 25 -5 40c-1 0 -2 1 -2 2h-1l-9 -3c-8 -1 -15 -3 -24 -6zM382 333v1c1 5 -3 9 -9 10
c-5 0 -9 -4 -9 -9v-1s-1 -5 -1 -14c-1 -5 -1 -10 -2 -17v-10c-1 -3 -1 -7 -1 -11c-1 -8 -2 -17 -4 -26c-1 -8 -3 -18 -6 -27c-1 -10 -4 -20 -8 -30c-2 -10 -6 -20 -10 -30l-4 -7l-3 -7c-3 -5 -5 -9 -7 -14s-5 -9 -8 -13s-6 -9 -8 -13c-7 -7 -13 -16 -18 -22
c-7 -7 -13 -13 -19 -18l-18 -14c-4 -3 -9 -6 -14 -9c-4 -1 -7 -3 -9 -4s-4 -1 -4 -1h4c2 1 5 3 10 5c4 2 9 4 15 9c6 2 12 7 18 12s13 11 19 17c8 6 13 14 20 22c3 4 7 8 9 12c3 4 7 8 9 13c3 5 6 9 8 14l8 14c5 10 10 20 13 30c3 11 7 21 10 30c2 10 6 19 7 29
c2 9 4 18 5 26l3 11c0 4 0 7 1 10c0 7 1 13 1 18c1 10 2 14 2 14z" />
    <glyph glyph-name="at" unicode="@" horiz-adv-x="882" 
d="M505 56c0 1 0 2 -1 3c-38 -43 -81 -65 -126 -65c-21 0 -43 5 -66 15c-128 60 -110 251 -66 364c64 165 161 178 188 178c18 0 38 -4 57 -12c16 -6 32 -15 46 -26c9 22 29 37 54 37c20 0 40 -9 51 -25c10 -12 12 -30 6 -48c-35 -109 -51 -196 -53 -275c0 -28 0 -52 7 -76
c1 -3 1 -4 2 -5c1 -3 1 -3 3 -6v-1h1c0 -1 2 -1 3 -2h2h2h3c3 3 6 5 9 6c17 15 24 24 36 45c50 90 75 218 57 306c-9 47 -39 85 -94 117c-68 39 -141 50 -213 30c-154 -42 -235 -225 -258 -382c-5 -33 -45 -49 -73 -42c-30 8 -45 36 -41 71c19 124 72 247 147 336
c64 79 152 128 246 139c17 2 33 3 50 3c117 0 224 -47 294 -129c65 -77 80 -187 47 -340c-34 -156 -92 -247 -173 -272c-12 -3 -24 -5 -37 -5c-47 0 -90 24 -110 61zM278 328c10 27 26 61 46 92c5 9 11 16 16 23c3 4 6 7 9 10s6 7 9 9c7 6 13 11 20 16c0 1 2 2 4 3l5 2
c2 2 6 3 9 5l9 3c1 1 3 1 4 1c1 1 2 1 3 1c6 1 10 1 14 1s6 -1 8 -1h4h1c6 0 11 5 11 11s-5 10 -11 10h-4h-10c-4 0 -10 -1 -16 -3c-2 0 -4 -1 -5 -1c-2 -1 -4 -1 -5 -2c-3 -1 -7 -3 -10 -5c-4 -1 -8 -3 -11 -5c-1 -1 -3 -3 -5 -4s-4 -2 -5 -3c-7 -6 -13 -12 -20 -19
c-3 -3 -6 -7 -9 -11c-3 -3 -5 -7 -8 -11c-6 -8 -11 -16 -16 -24c-19 -34 -32 -70 -41 -97c-8 -27 -12 -46 -12 -46s6 19 16 45zM475 254c10 45 20 92 9 133c-7 24 -17 38 -32 42c-8 2 -14 3 -20 3c-8 0 -15 -3 -22 -9c-23 -21 -41 -51 -55 -92c-15 -43 -30 -94 -24 -147
c4 -38 15 -62 33 -70c5 -2 11 -3 15 -3c46 0 83 94 96 143zM629 112l-4 4c-1 -1 -3 -4 -1 -7l4 2c1 0 1 1 1 1z" />
    <glyph glyph-name="ampersand" unicode="&#x26;" horiz-adv-x="680" 
d="M590 444h1c34 0 49 -26 49 -50c0 -27 -17 -54 -50 -55c-17 0 -33 -1 -47 -3h-12c5 -19 7 -36 7 -54c1 -70 -28 -138 -80 -191c-55 -55 -130 -88 -206 -88c-87 0 -190 55 -209 156c-17 83 29 158 122 202c58 28 125 47 201 62c-18 8 -38 12 -61 11c-27 0 -53 -5 -81 -14
c-7 -1 -16 -4 -25 -8c-2 0 -5 -1 -7 -2c-5 -3 -5 -3 -7 -3h-4c-23 -3 -43 6 -54 25s-10 48 9 64l121 97h-122c-33 0 -51 27 -51 52c0 26 18 53 51 53h269c22 0 42 -16 51 -38c6 -20 1 -39 -14 -52l-88 -71c12 -2 23 -5 34 -9c25 -9 54 -23 76 -52c10 -13 18 -25 25 -38
c32 3 66 5 102 6zM515 275v12c-1 8 -1 14 -1 19l-3 17c-1 5 -6 8 -11 8c-4 -1 -8 -6 -7 -11v-1l3 -15c0 -5 1 -11 2 -18c0 -4 0 -7 1 -11v-12c0 -8 -1 -17 -3 -27c-1 -10 -4 -20 -7 -30c-2 -5 -3 -10 -6 -15c-1 -6 -4 -11 -6 -16l-9 -14c-4 -5 -6 -10 -9 -15
c-8 -9 -15 -18 -23 -26s-16 -16 -25 -22c-17 -14 -35 -25 -50 -33c-16 -8 -29 -14 -39 -17s-15 -3 -15 -3s5 0 15 2s24 7 40 16c17 7 35 17 53 30c9 6 18 14 27 22c8 8 16 16 23 25l12 15l9 15s6 10 9 16c2 5 4 11 6 15c4 11 7 22 9 32s4 20 4 29c0 5 1 9 1 13zM178 130
c20 -16 49 -24 83 -22c33 2 69 15 98 35c61 43 87 112 67 182c-81 -12 -171 -29 -239 -71l-4 -3c-7 -5 -8 -5 -14 -10c-5 -5 -10 -10 -14 -15l-4 -6c-1 -1 -2 -4 -4 -5c0 -1 0 -3 -1 -6l-2 -5c1 -3 1 -6 1 -8c0 -4 0 -7 -1 -10c2 -7 3 -12 5 -16c9 -18 14 -27 29 -40z" />
    <glyph glyph-name="newGlyph" 
 />
    <glyph glyph-name="newGlyph.001" 
 />
    <glyph glyph-name="newGlyph.002" 
 />
    <glyph glyph-name="newGlyph.003" 
 />
  </font>
</defs>
</svg>
